<svg width="33" height="33" viewBox="0 0 33 33" fill="none" xmlns="http://www.w3.org/2000/svg">
<path d="M22.2617 6.51953C23.3796 6.51953 24.4517 6.9635 25.2422 7.75391C26.0326 8.54433 26.4765 9.61656 26.4766 10.7344V22.2695C26.4766 23.3874 26.0327 24.4595 25.2422 25.25C24.4517 26.0405 23.3796 26.4844 22.2617 26.4844H10.7266C9.60874 26.4843 8.53652 26.0404 7.74609 25.25C6.95569 24.4595 6.51172 23.3874 6.51172 22.2695V10.7344C6.51179 9.61656 6.95567 8.54433 7.74609 7.75391C8.53652 6.96348 9.60874 6.5196 10.7266 6.51953H22.2617ZM13.9707 12.7871C13.3679 12.7872 12.7895 13.0269 12.3633 13.4531C11.9372 13.8794 11.6982 14.4578 11.6982 15.0605V19.3857C11.6982 19.6062 11.7855 19.8177 11.9414 19.9736C12.0973 20.1295 12.3088 20.2168 12.5293 20.2168C12.7497 20.2168 12.9613 20.1295 13.1172 19.9736C13.273 19.8177 13.3604 19.6062 13.3604 19.3857V18.0547H16.0234V19.3857C16.0234 19.6062 16.1108 19.8177 16.2666 19.9736C16.4225 20.1295 16.6341 20.2167 16.8545 20.2168C17.0749 20.2168 17.2865 20.1295 17.4424 19.9736C17.5983 19.8177 17.6865 19.6062 17.6865 19.3857V15.0605C17.6865 14.4578 17.4467 13.8794 17.0205 13.4531C16.6475 13.0801 16.1581 12.8495 15.6377 12.7979L15.4131 12.7871H13.9707ZM20.459 12.7871C20.2386 12.7872 20.0269 12.8745 19.8711 13.0303C19.7153 13.1861 19.628 13.3978 19.6279 13.6182V19.3857L19.6318 19.4678C19.6507 19.6581 19.7348 19.8372 19.8711 19.9736C20.0269 20.1295 20.2386 20.2167 20.459 20.2168C20.6794 20.2168 20.891 20.1294 21.0469 19.9736C21.2028 19.8177 21.291 19.6062 21.291 19.3857V13.6182L21.2871 13.5361C21.2682 13.3458 21.1833 13.1667 21.0469 13.0303C20.891 12.8745 20.6793 12.7871 20.459 12.7871ZM15.4131 14.4502C15.5749 14.4502 15.7303 14.5145 15.8447 14.6289C15.959 14.7434 16.0234 14.8988 16.0234 15.0605V16.3916H13.3604V15.0605C13.3604 14.8988 13.4248 14.7434 13.5391 14.6289C13.6535 14.5145 13.8089 14.4503 13.9707 14.4502H15.4131Z" fill="black"/>
<path d="M22.2617 6.51953C23.3796 6.51953 24.4517 6.9635 25.2422 7.75391C26.0326 8.54433 26.4765 9.61656 26.4766 10.7344V22.2695C26.4766 23.3874 26.0327 24.4595 25.2422 25.25C24.4517 26.0405 23.3796 26.4844 22.2617 26.4844H10.7266C9.60874 26.4843 8.53652 26.0404 7.74609 25.25C6.95569 24.4595 6.51172 23.3874 6.51172 22.2695V10.7344C6.51179 9.61656 6.95567 8.54433 7.74609 7.75391C8.53652 6.96348 9.60874 6.5196 10.7266 6.51953H22.2617ZM13.9707 12.7871C13.3679 12.7872 12.7895 13.0269 12.3633 13.4531C11.9372 13.8794 11.6982 14.4578 11.6982 15.0605V19.3857C11.6982 19.6062 11.7855 19.8177 11.9414 19.9736C12.0973 20.1295 12.3088 20.2168 12.5293 20.2168C12.7497 20.2168 12.9613 20.1295 13.1172 19.9736C13.273 19.8177 13.3604 19.6062 13.3604 19.3857V18.0547H16.0234V19.3857C16.0234 19.6062 16.1108 19.8177 16.2666 19.9736C16.4225 20.1295 16.6341 20.2167 16.8545 20.2168C17.0749 20.2168 17.2865 20.1295 17.4424 19.9736C17.5983 19.8177 17.6865 19.6062 17.6865 19.3857V15.0605C17.6865 14.4578 17.4467 13.8794 17.0205 13.4531C16.6475 13.0801 16.1581 12.8495 15.6377 12.7979L15.4131 12.7871H13.9707ZM20.459 12.7871C20.2386 12.7872 20.0269 12.8745 19.8711 13.0303C19.7153 13.1861 19.628 13.3978 19.6279 13.6182V19.3857L19.6318 19.4678C19.6507 19.6581 19.7348 19.8372 19.8711 19.9736C20.0269 20.1295 20.2386 20.2167 20.459 20.2168C20.6794 20.2168 20.891 20.1294 21.0469 19.9736C21.2028 19.8177 21.291 19.6062 21.291 19.3857V13.6182L21.2871 13.5361C21.2682 13.3458 21.1833 13.1667 21.0469 13.0303C20.891 12.8745 20.6793 12.7871 20.459 12.7871ZM15.4131 14.4502C15.5749 14.4502 15.7303 14.5145 15.8447 14.6289C15.959 14.7434 16.0234 14.8988 16.0234 15.0605V16.3916H13.3604V15.0605C13.3604 14.8988 13.4248 14.7434 13.5391 14.6289C13.6535 14.5145 13.8089 14.4503 13.9707 14.4502H15.4131Z" fill="url(#paint0_linear_4408_76)"/>
<path d="M22.2617 6.51953C23.3796 6.51953 24.4517 6.9635 25.2422 7.75391C26.0326 8.54433 26.4765 9.61656 26.4766 10.7344V22.2695C26.4766 23.3874 26.0327 24.4595 25.2422 25.25C24.4517 26.0405 23.3796 26.4844 22.2617 26.4844H10.7266C9.60874 26.4843 8.53652 26.0404 7.74609 25.25C6.95569 24.4595 6.51172 23.3874 6.51172 22.2695V10.7344C6.51179 9.61656 6.95567 8.54433 7.74609 7.75391C8.53652 6.96348 9.60874 6.5196 10.7266 6.51953H22.2617ZM13.9707 12.7871C13.3679 12.7872 12.7895 13.0269 12.3633 13.4531C11.9372 13.8794 11.6982 14.4578 11.6982 15.0605V19.3857C11.6982 19.6062 11.7855 19.8177 11.9414 19.9736C12.0973 20.1295 12.3088 20.2168 12.5293 20.2168C12.7497 20.2168 12.9613 20.1295 13.1172 19.9736C13.273 19.8177 13.3604 19.6062 13.3604 19.3857V18.0547H16.0234V19.3857C16.0234 19.6062 16.1108 19.8177 16.2666 19.9736C16.4225 20.1295 16.6341 20.2167 16.8545 20.2168C17.0749 20.2168 17.2865 20.1295 17.4424 19.9736C17.5983 19.8177 17.6865 19.6062 17.6865 19.3857V15.0605C17.6865 14.4578 17.4467 13.8794 17.0205 13.4531C16.6475 13.0801 16.1581 12.8495 15.6377 12.7979L15.4131 12.7871H13.9707ZM20.459 12.7871C20.2386 12.7872 20.0269 12.8745 19.8711 13.0303C19.7153 13.1861 19.628 13.3978 19.6279 13.6182V19.3857L19.6318 19.4678C19.6507 19.6581 19.7348 19.8372 19.8711 19.9736C20.0269 20.1295 20.2386 20.2167 20.459 20.2168C20.6794 20.2168 20.891 20.1294 21.0469 19.9736C21.2028 19.8177 21.291 19.6062 21.291 19.3857V13.6182L21.2871 13.5361C21.2682 13.3458 21.1833 13.1667 21.0469 13.0303C20.891 12.8745 20.6793 12.7871 20.459 12.7871ZM15.4131 14.4502C15.5749 14.4502 15.7303 14.5145 15.8447 14.6289C15.959 14.7434 16.0234 14.8988 16.0234 15.0605V16.3916H13.3604V15.0605C13.3604 14.8988 13.4248 14.7434 13.5391 14.6289C13.6535 14.5145 13.8089 14.4503 13.9707 14.4502H15.4131Z" stroke="white" stroke-width="0.5"/>
<mask id="path-2-outside-1_4408_76" maskUnits="userSpaceOnUse" x="0" y="0" width="33" height="33" fill="black">
<rect fill="white" width="33" height="33"/>
<path fill-rule="evenodd" clip-rule="evenodd" d="M25.1512 17.5814H30.9186C31.2054 17.5814 31.4805 17.4675 31.6833 17.2647C31.8861 17.0619 32 16.7868 32 16.5C32 16.2132 31.8861 15.9381 31.6833 15.7353C31.4805 15.5325 31.2054 15.4186 30.9186 15.4186H25.1512C24.8644 15.4186 24.5893 15.5325 24.3865 15.7353C24.1837 15.9381 24.0698 16.2132 24.0698 16.5C24.0698 16.7868 24.1837 17.0619 24.3865 17.2647C24.5893 17.4675 24.8644 17.5814 25.1512 17.5814ZM17.5814 7.84884V2.0814C17.5814 1.79459 17.4675 1.51953 17.2647 1.31673C17.0619 1.11393 16.7868 1 16.5 1C16.2132 1 15.9381 1.11393 15.7353 1.31673C15.5325 1.51953 15.4186 1.79459 15.4186 2.0814V7.84884C15.4186 8.13564 15.5325 8.4107 15.7353 8.6135C15.9381 8.8163 16.2132 8.93023 16.5 8.93023C16.7868 8.93023 17.0619 8.8163 17.2647 8.6135C17.4675 8.4107 17.5814 8.13564 17.5814 7.84884ZM15.4186 25.1512V30.9186C15.4186 31.2054 15.5325 31.4805 15.7353 31.6833C15.9381 31.8861 16.2132 32 16.5 32C16.7868 32 17.0619 31.8861 17.2647 31.6833C17.4675 31.4805 17.5814 31.2054 17.5814 30.9186V25.1512C17.5814 24.8644 17.4675 24.5893 17.2647 24.3865C17.0619 24.1837 16.7868 24.0698 16.5 24.0698C16.2132 24.0698 15.9381 24.1837 15.7353 24.3865C15.5325 24.5893 15.4186 24.8644 15.4186 25.1512ZM7.84884 15.4186H2.0814C1.79459 15.4186 1.51953 15.5325 1.31673 15.7353C1.11393 15.9381 1 16.2132 1 16.5C1 16.7868 1.11393 17.0619 1.31673 17.2647C1.51953 17.4675 1.79459 17.5814 2.0814 17.5814H7.84884C8.13564 17.5814 8.4107 17.4675 8.6135 17.2647C8.8163 17.0619 8.93023 16.7868 8.93023 16.5C8.93023 16.2132 8.8163 15.9381 8.6135 15.7353C8.4107 15.5325 8.13564 15.4186 7.84884 15.4186ZM25.1512 13.2558H28.7558C29.0426 13.2558 29.3177 13.1419 29.5205 12.9391C29.7233 12.7363 29.8372 12.4612 29.8372 12.1744C29.8372 11.8876 29.7233 11.6126 29.5205 11.4098C29.3177 11.207 29.0426 11.093 28.7558 11.093H25.1512C24.8644 11.093 24.5893 11.207 24.3865 11.4098C24.1837 11.6126 24.0698 11.8876 24.0698 12.1744C24.0698 12.4612 24.1837 12.7363 24.3865 12.9391C24.5893 13.1419 24.8644 13.2558 25.1512 13.2558ZM13.2558 7.84884V4.24419C13.2558 3.95738 13.1419 3.68232 12.9391 3.47952C12.7363 3.27672 12.4612 3.16279 12.1744 3.16279C11.8876 3.16279 11.6126 3.27672 11.4098 3.47952C11.207 3.68232 11.093 3.95738 11.093 4.24419V7.84884C11.093 8.13564 11.207 8.4107 11.4098 8.6135C11.6126 8.8163 11.8876 8.93023 12.1744 8.93023C12.4612 8.93023 12.7363 8.8163 12.9391 8.6135C13.1419 8.4107 13.2558 8.13564 13.2558 7.84884ZM11.093 25.1512V28.7558C11.093 29.0426 11.207 29.3177 11.4098 29.5205C11.6126 29.7233 11.8876 29.8372 12.1744 29.8372C12.4612 29.8372 12.7363 29.7233 12.9391 29.5205C13.1419 29.3177 13.2558 29.0426 13.2558 28.7558V25.1512C13.2558 24.8644 13.1419 24.5893 12.9391 24.3865C12.7363 24.1837 12.4612 24.0698 12.1744 24.0698C11.8876 24.0698 11.6126 24.1837 11.4098 24.3865C11.207 24.5893 11.093 24.8644 11.093 25.1512ZM7.84884 11.093H4.24419C3.95738 11.093 3.68232 11.207 3.47952 11.4098C3.27672 11.6126 3.16279 11.8876 3.16279 12.1744C3.16279 12.4612 3.27672 12.7363 3.47952 12.9391C3.68232 13.1419 3.95738 13.2558 4.24419 13.2558H7.84884C8.13564 13.2558 8.4107 13.1419 8.6135 12.9391C8.8163 12.7363 8.93023 12.4612 8.93023 12.1744C8.93023 11.8876 8.8163 11.6126 8.6135 11.4098C8.4107 11.207 8.13564 11.093 7.84884 11.093ZM25.1512 21.907H28.7558C29.0426 21.907 29.3177 21.793 29.5205 21.5902C29.7233 21.3874 29.8372 21.1124 29.8372 20.8256C29.8372 20.5388 29.7233 20.2637 29.5205 20.0609C29.3177 19.8581 29.0426 19.7442 28.7558 19.7442H25.1512C24.8644 19.7442 24.5893 19.8581 24.3865 20.0609C24.1837 20.2637 24.0698 20.5388 24.0698 20.8256C24.0698 21.1124 24.1837 21.3874 24.3865 21.5902C24.5893 21.793 24.8644 21.907 25.1512 21.907ZM21.907 7.84884V4.24419C21.907 3.95738 21.793 3.68232 21.5902 3.47952C21.3874 3.27672 21.1124 3.16279 20.8256 3.16279C20.5388 3.16279 20.2637 3.27672 20.0609 3.47952C19.8581 3.68232 19.7442 3.95738 19.7442 4.24419V7.84884C19.7442 8.13564 19.8581 8.4107 20.0609 8.6135C20.2637 8.8163 20.5388 8.93023 20.8256 8.93023C21.1124 8.93023 21.3874 8.8163 21.5902 8.6135C21.793 8.4107 21.907 8.13564 21.907 7.84884ZM19.7442 25.1512V28.7558C19.7442 29.0426 19.8581 29.3177 20.0609 29.5205C20.2637 29.7233 20.5388 29.8372 20.8256 29.8372C21.1124 29.8372 21.3874 29.7233 21.5902 29.5205C21.793 29.3177 21.907 29.0426 21.907 28.7558V25.1512C21.907 24.8644 21.793 24.5893 21.5902 24.3865C21.3874 24.1837 21.1124 24.0698 20.8256 24.0698C20.5388 24.0698 20.2637 24.1837 20.0609 24.3865C19.8581 24.5893 19.7442 24.8644 19.7442 25.1512ZM7.84884 19.7442H4.24419C3.95738 19.7442 3.68232 19.8581 3.47952 20.0609C3.27672 20.2637 3.16279 20.5388 3.16279 20.8256C3.16279 21.1124 3.27672 21.3874 3.47952 21.5902C3.68232 21.793 3.95738 21.907 4.24419 21.907H7.84884C8.13564 21.907 8.4107 21.793 8.6135 21.5902C8.8163 21.3874 8.93023 21.1124 8.93023 20.8256C8.93023 20.5388 8.8163 20.2637 8.6135 20.0609C8.4107 19.8581 8.13564 19.7442 7.84884 19.7442Z"/>
</mask>
<path fill-rule="evenodd" clip-rule="evenodd" d="M25.1512 17.5814H30.9186C31.2054 17.5814 31.4805 17.4675 31.6833 17.2647C31.8861 17.0619 32 16.7868 32 16.5C32 16.2132 31.8861 15.9381 31.6833 15.7353C31.4805 15.5325 31.2054 15.4186 30.9186 15.4186H25.1512C24.8644 15.4186 24.5893 15.5325 24.3865 15.7353C24.1837 15.9381 24.0698 16.2132 24.0698 16.5C24.0698 16.7868 24.1837 17.0619 24.3865 17.2647C24.5893 17.4675 24.8644 17.5814 25.1512 17.5814ZM17.5814 7.84884V2.0814C17.5814 1.79459 17.4675 1.51953 17.2647 1.31673C17.0619 1.11393 16.7868 1 16.5 1C16.2132 1 15.9381 1.11393 15.7353 1.31673C15.5325 1.51953 15.4186 1.79459 15.4186 2.0814V7.84884C15.4186 8.13564 15.5325 8.4107 15.7353 8.6135C15.9381 8.8163 16.2132 8.93023 16.5 8.93023C16.7868 8.93023 17.0619 8.8163 17.2647 8.6135C17.4675 8.4107 17.5814 8.13564 17.5814 7.84884ZM15.4186 25.1512V30.9186C15.4186 31.2054 15.5325 31.4805 15.7353 31.6833C15.9381 31.8861 16.2132 32 16.5 32C16.7868 32 17.0619 31.8861 17.2647 31.6833C17.4675 31.4805 17.5814 31.2054 17.5814 30.9186V25.1512C17.5814 24.8644 17.4675 24.5893 17.2647 24.3865C17.0619 24.1837 16.7868 24.0698 16.5 24.0698C16.2132 24.0698 15.9381 24.1837 15.7353 24.3865C15.5325 24.5893 15.4186 24.8644 15.4186 25.1512ZM7.84884 15.4186H2.0814C1.79459 15.4186 1.51953 15.5325 1.31673 15.7353C1.11393 15.9381 1 16.2132 1 16.5C1 16.7868 1.11393 17.0619 1.31673 17.2647C1.51953 17.4675 1.79459 17.5814 2.0814 17.5814H7.84884C8.13564 17.5814 8.4107 17.4675 8.6135 17.2647C8.8163 17.0619 8.93023 16.7868 8.93023 16.5C8.93023 16.2132 8.8163 15.9381 8.6135 15.7353C8.4107 15.5325 8.13564 15.4186 7.84884 15.4186ZM25.1512 13.2558H28.7558C29.0426 13.2558 29.3177 13.1419 29.5205 12.9391C29.7233 12.7363 29.8372 12.4612 29.8372 12.1744C29.8372 11.8876 29.7233 11.6126 29.5205 11.4098C29.3177 11.207 29.0426 11.093 28.7558 11.093H25.1512C24.8644 11.093 24.5893 11.207 24.3865 11.4098C24.1837 11.6126 24.0698 11.8876 24.0698 12.1744C24.0698 12.4612 24.1837 12.7363 24.3865 12.9391C24.5893 13.1419 24.8644 13.2558 25.1512 13.2558ZM13.2558 7.84884V4.24419C13.2558 3.95738 13.1419 3.68232 12.9391 3.47952C12.7363 3.27672 12.4612 3.16279 12.1744 3.16279C11.8876 3.16279 11.6126 3.27672 11.4098 3.47952C11.207 3.68232 11.093 3.95738 11.093 4.24419V7.84884C11.093 8.13564 11.207 8.4107 11.4098 8.6135C11.6126 8.8163 11.8876 8.93023 12.1744 8.93023C12.4612 8.93023 12.7363 8.8163 12.9391 8.6135C13.1419 8.4107 13.2558 8.13564 13.2558 7.84884ZM11.093 25.1512V28.7558C11.093 29.0426 11.207 29.3177 11.4098 29.5205C11.6126 29.7233 11.8876 29.8372 12.1744 29.8372C12.4612 29.8372 12.7363 29.7233 12.9391 29.5205C13.1419 29.3177 13.2558 29.0426 13.2558 28.7558V25.1512C13.2558 24.8644 13.1419 24.5893 12.9391 24.3865C12.7363 24.1837 12.4612 24.0698 12.1744 24.0698C11.8876 24.0698 11.6126 24.1837 11.4098 24.3865C11.207 24.5893 11.093 24.8644 11.093 25.1512ZM7.84884 11.093H4.24419C3.95738 11.093 3.68232 11.207 3.47952 11.4098C3.27672 11.6126 3.16279 11.8876 3.16279 12.1744C3.16279 12.4612 3.27672 12.7363 3.47952 12.9391C3.68232 13.1419 3.95738 13.2558 4.24419 13.2558H7.84884C8.13564 13.2558 8.4107 13.1419 8.6135 12.9391C8.8163 12.7363 8.93023 12.4612 8.93023 12.1744C8.93023 11.8876 8.8163 11.6126 8.6135 11.4098C8.4107 11.207 8.13564 11.093 7.84884 11.093ZM25.1512 21.907H28.7558C29.0426 21.907 29.3177 21.793 29.5205 21.5902C29.7233 21.3874 29.8372 21.1124 29.8372 20.8256C29.8372 20.5388 29.7233 20.2637 29.5205 20.0609C29.3177 19.8581 29.0426 19.7442 28.7558 19.7442H25.1512C24.8644 19.7442 24.5893 19.8581 24.3865 20.0609C24.1837 20.2637 24.0698 20.5388 24.0698 20.8256C24.0698 21.1124 24.1837 21.3874 24.3865 21.5902C24.5893 21.793 24.8644 21.907 25.1512 21.907ZM21.907 7.84884V4.24419C21.907 3.95738 21.793 3.68232 21.5902 3.47952C21.3874 3.27672 21.1124 3.16279 20.8256 3.16279C20.5388 3.16279 20.2637 3.27672 20.0609 3.47952C19.8581 3.68232 19.7442 3.95738 19.7442 4.24419V7.84884C19.7442 8.13564 19.8581 8.4107 20.0609 8.6135C20.2637 8.8163 20.5388 8.93023 20.8256 8.93023C21.1124 8.93023 21.3874 8.8163 21.5902 8.6135C21.793 8.4107 21.907 8.13564 21.907 7.84884ZM19.7442 25.1512V28.7558C19.7442 29.0426 19.8581 29.3177 20.0609 29.5205C20.2637 29.7233 20.5388 29.8372 20.8256 29.8372C21.1124 29.8372 21.3874 29.7233 21.5902 29.5205C21.793 29.3177 21.907 29.0426 21.907 28.7558V25.1512C21.907 24.8644 21.793 24.5893 21.5902 24.3865C21.3874 24.1837 21.1124 24.0698 20.8256 24.0698C20.5388 24.0698 20.2637 24.1837 20.0609 24.3865C19.8581 24.5893 19.7442 24.8644 19.7442 25.1512ZM7.84884 19.7442H4.24419C3.95738 19.7442 3.68232 19.8581 3.47952 20.0609C3.27672 20.2637 3.16279 20.5388 3.16279 20.8256C3.16279 21.1124 3.27672 21.3874 3.47952 21.5902C3.68232 21.793 3.95738 21.907 4.24419 21.907H7.84884C8.13564 21.907 8.4107 21.793 8.6135 21.5902C8.8163 21.3874 8.93023 21.1124 8.93023 20.8256C8.93023 20.5388 8.8163 20.2637 8.6135 20.0609C8.4107 19.8581 8.13564 19.7442 7.84884 19.7442Z" fill="black"/>
<path fill-rule="evenodd" clip-rule="evenodd" d="M25.1512 17.5814H30.9186C31.2054 17.5814 31.4805 17.4675 31.6833 17.2647C31.8861 17.0619 32 16.7868 32 16.5C32 16.2132 31.8861 15.9381 31.6833 15.7353C31.4805 15.5325 31.2054 15.4186 30.9186 15.4186H25.1512C24.8644 15.4186 24.5893 15.5325 24.3865 15.7353C24.1837 15.9381 24.0698 16.2132 24.0698 16.5C24.0698 16.7868 24.1837 17.0619 24.3865 17.2647C24.5893 17.4675 24.8644 17.5814 25.1512 17.5814ZM17.5814 7.84884V2.0814C17.5814 1.79459 17.4675 1.51953 17.2647 1.31673C17.0619 1.11393 16.7868 1 16.5 1C16.2132 1 15.9381 1.11393 15.7353 1.31673C15.5325 1.51953 15.4186 1.79459 15.4186 2.0814V7.84884C15.4186 8.13564 15.5325 8.4107 15.7353 8.6135C15.9381 8.8163 16.2132 8.93023 16.5 8.93023C16.7868 8.93023 17.0619 8.8163 17.2647 8.6135C17.4675 8.4107 17.5814 8.13564 17.5814 7.84884ZM15.4186 25.1512V30.9186C15.4186 31.2054 15.5325 31.4805 15.7353 31.6833C15.9381 31.8861 16.2132 32 16.5 32C16.7868 32 17.0619 31.8861 17.2647 31.6833C17.4675 31.4805 17.5814 31.2054 17.5814 30.9186V25.1512C17.5814 24.8644 17.4675 24.5893 17.2647 24.3865C17.0619 24.1837 16.7868 24.0698 16.5 24.0698C16.2132 24.0698 15.9381 24.1837 15.7353 24.3865C15.5325 24.5893 15.4186 24.8644 15.4186 25.1512ZM7.84884 15.4186H2.0814C1.79459 15.4186 1.51953 15.5325 1.31673 15.7353C1.11393 15.9381 1 16.2132 1 16.5C1 16.7868 1.11393 17.0619 1.31673 17.2647C1.51953 17.4675 1.79459 17.5814 2.0814 17.5814H7.84884C8.13564 17.5814 8.4107 17.4675 8.6135 17.2647C8.8163 17.0619 8.93023 16.7868 8.93023 16.5C8.93023 16.2132 8.8163 15.9381 8.6135 15.7353C8.4107 15.5325 8.13564 15.4186 7.84884 15.4186ZM25.1512 13.2558H28.7558C29.0426 13.2558 29.3177 13.1419 29.5205 12.9391C29.7233 12.7363 29.8372 12.4612 29.8372 12.1744C29.8372 11.8876 29.7233 11.6126 29.5205 11.4098C29.3177 11.207 29.0426 11.093 28.7558 11.093H25.1512C24.8644 11.093 24.5893 11.207 24.3865 11.4098C24.1837 11.6126 24.0698 11.8876 24.0698 12.1744C24.0698 12.4612 24.1837 12.7363 24.3865 12.9391C24.5893 13.1419 24.8644 13.2558 25.1512 13.2558ZM13.2558 7.84884V4.24419C13.2558 3.95738 13.1419 3.68232 12.9391 3.47952C12.7363 3.27672 12.4612 3.16279 12.1744 3.16279C11.8876 3.16279 11.6126 3.27672 11.4098 3.47952C11.207 3.68232 11.093 3.95738 11.093 4.24419V7.84884C11.093 8.13564 11.207 8.4107 11.4098 8.6135C11.6126 8.8163 11.8876 8.93023 12.1744 8.93023C12.4612 8.93023 12.7363 8.8163 12.9391 8.6135C13.1419 8.4107 13.2558 8.13564 13.2558 7.84884ZM11.093 25.1512V28.7558C11.093 29.0426 11.207 29.3177 11.4098 29.5205C11.6126 29.7233 11.8876 29.8372 12.1744 29.8372C12.4612 29.8372 12.7363 29.7233 12.9391 29.5205C13.1419 29.3177 13.2558 29.0426 13.2558 28.7558V25.1512C13.2558 24.8644 13.1419 24.5893 12.9391 24.3865C12.7363 24.1837 12.4612 24.0698 12.1744 24.0698C11.8876 24.0698 11.6126 24.1837 11.4098 24.3865C11.207 24.5893 11.093 24.8644 11.093 25.1512ZM7.84884 11.093H4.24419C3.95738 11.093 3.68232 11.207 3.47952 11.4098C3.27672 11.6126 3.16279 11.8876 3.16279 12.1744C3.16279 12.4612 3.27672 12.7363 3.47952 12.9391C3.68232 13.1419 3.95738 13.2558 4.24419 13.2558H7.84884C8.13564 13.2558 8.4107 13.1419 8.6135 12.9391C8.8163 12.7363 8.93023 12.4612 8.93023 12.1744C8.93023 11.8876 8.8163 11.6126 8.6135 11.4098C8.4107 11.207 8.13564 11.093 7.84884 11.093ZM25.1512 21.907H28.7558C29.0426 21.907 29.3177 21.793 29.5205 21.5902C29.7233 21.3874 29.8372 21.1124 29.8372 20.8256C29.8372 20.5388 29.7233 20.2637 29.5205 20.0609C29.3177 19.8581 29.0426 19.7442 28.7558 19.7442H25.1512C24.8644 19.7442 24.5893 19.8581 24.3865 20.0609C24.1837 20.2637 24.0698 20.5388 24.0698 20.8256C24.0698 21.1124 24.1837 21.3874 24.3865 21.5902C24.5893 21.793 24.8644 21.907 25.1512 21.907ZM21.907 7.84884V4.24419C21.907 3.95738 21.793 3.68232 21.5902 3.47952C21.3874 3.27672 21.1124 3.16279 20.8256 3.16279C20.5388 3.16279 20.2637 3.27672 20.0609 3.47952C19.8581 3.68232 19.7442 3.95738 19.7442 4.24419V7.84884C19.7442 8.13564 19.8581 8.4107 20.0609 8.6135C20.2637 8.8163 20.5388 8.93023 20.8256 8.93023C21.1124 8.93023 21.3874 8.8163 21.5902 8.6135C21.793 8.4107 21.907 8.13564 21.907 7.84884ZM19.7442 25.1512V28.7558C19.7442 29.0426 19.8581 29.3177 20.0609 29.5205C20.2637 29.7233 20.5388 29.8372 20.8256 29.8372C21.1124 29.8372 21.3874 29.7233 21.5902 29.5205C21.793 29.3177 21.907 29.0426 21.907 28.7558V25.1512C21.907 24.8644 21.793 24.5893 21.5902 24.3865C21.3874 24.1837 21.1124 24.0698 20.8256 24.0698C20.5388 24.0698 20.2637 24.1837 20.0609 24.3865C19.8581 24.5893 19.7442 24.8644 19.7442 25.1512ZM7.84884 19.7442H4.24419C3.95738 19.7442 3.68232 19.8581 3.47952 20.0609C3.27672 20.2637 3.16279 20.5388 3.16279 20.8256C3.16279 21.1124 3.27672 21.3874 3.47952 21.5902C3.68232 21.793 3.95738 21.907 4.24419 21.907H7.84884C8.13564 21.907 8.4107 21.793 8.6135 21.5902C8.8163 21.3874 8.93023 21.1124 8.93023 20.8256C8.93023 20.5388 8.8163 20.2637 8.6135 20.0609C8.4107 19.8581 8.13564 19.7442 7.84884 19.7442Z" fill="url(#paint1_linear_4408_76)"/>
<path fill-rule="evenodd" clip-rule="evenodd" d="M25.1512 17.5814H30.9186C31.2054 17.5814 31.4805 17.4675 31.6833 17.2647C31.8861 17.0619 32 16.7868 32 16.5C32 16.2132 31.8861 15.9381 31.6833 15.7353C31.4805 15.5325 31.2054 15.4186 30.9186 15.4186H25.1512C24.8644 15.4186 24.5893 15.5325 24.3865 15.7353C24.1837 15.9381 24.0698 16.2132 24.0698 16.5C24.0698 16.7868 24.1837 17.0619 24.3865 17.2647C24.5893 17.4675 24.8644 17.5814 25.1512 17.5814ZM17.5814 7.84884V2.0814C17.5814 1.79459 17.4675 1.51953 17.2647 1.31673C17.0619 1.11393 16.7868 1 16.5 1C16.2132 1 15.9381 1.11393 15.7353 1.31673C15.5325 1.51953 15.4186 1.79459 15.4186 2.0814V7.84884C15.4186 8.13564 15.5325 8.4107 15.7353 8.6135C15.9381 8.8163 16.2132 8.93023 16.5 8.93023C16.7868 8.93023 17.0619 8.8163 17.2647 8.6135C17.4675 8.4107 17.5814 8.13564 17.5814 7.84884ZM15.4186 25.1512V30.9186C15.4186 31.2054 15.5325 31.4805 15.7353 31.6833C15.9381 31.8861 16.2132 32 16.5 32C16.7868 32 17.0619 31.8861 17.2647 31.6833C17.4675 31.4805 17.5814 31.2054 17.5814 30.9186V25.1512C17.5814 24.8644 17.4675 24.5893 17.2647 24.3865C17.0619 24.1837 16.7868 24.0698 16.5 24.0698C16.2132 24.0698 15.9381 24.1837 15.7353 24.3865C15.5325 24.5893 15.4186 24.8644 15.4186 25.1512ZM7.84884 15.4186H2.0814C1.79459 15.4186 1.51953 15.5325 1.31673 15.7353C1.11393 15.9381 1 16.2132 1 16.5C1 16.7868 1.11393 17.0619 1.31673 17.2647C1.51953 17.4675 1.79459 17.5814 2.0814 17.5814H7.84884C8.13564 17.5814 8.4107 17.4675 8.6135 17.2647C8.8163 17.0619 8.93023 16.7868 8.93023 16.5C8.93023 16.2132 8.8163 15.9381 8.6135 15.7353C8.4107 15.5325 8.13564 15.4186 7.84884 15.4186ZM25.1512 13.2558H28.7558C29.0426 13.2558 29.3177 13.1419 29.5205 12.9391C29.7233 12.7363 29.8372 12.4612 29.8372 12.1744C29.8372 11.8876 29.7233 11.6126 29.5205 11.4098C29.3177 11.207 29.0426 11.093 28.7558 11.093H25.1512C24.8644 11.093 24.5893 11.207 24.3865 11.4098C24.1837 11.6126 24.0698 11.8876 24.0698 12.1744C24.0698 12.4612 24.1837 12.7363 24.3865 12.9391C24.5893 13.1419 24.8644 13.2558 25.1512 13.2558ZM13.2558 7.84884V4.24419C13.2558 3.95738 13.1419 3.68232 12.9391 3.47952C12.7363 3.27672 12.4612 3.16279 12.1744 3.16279C11.8876 3.16279 11.6126 3.27672 11.4098 3.47952C11.207 3.68232 11.093 3.95738 11.093 4.24419V7.84884C11.093 8.13564 11.207 8.4107 11.4098 8.6135C11.6126 8.8163 11.8876 8.93023 12.1744 8.93023C12.4612 8.93023 12.7363 8.8163 12.9391 8.6135C13.1419 8.4107 13.2558 8.13564 13.2558 7.84884ZM11.093 25.1512V28.7558C11.093 29.0426 11.207 29.3177 11.4098 29.5205C11.6126 29.7233 11.8876 29.8372 12.1744 29.8372C12.4612 29.8372 12.7363 29.7233 12.9391 29.5205C13.1419 29.3177 13.2558 29.0426 13.2558 28.7558V25.1512C13.2558 24.8644 13.1419 24.5893 12.9391 24.3865C12.7363 24.1837 12.4612 24.0698 12.1744 24.0698C11.8876 24.0698 11.6126 24.1837 11.4098 24.3865C11.207 24.5893 11.093 24.8644 11.093 25.1512ZM7.84884 11.093H4.24419C3.95738 11.093 3.68232 11.207 3.47952 11.4098C3.27672 11.6126 3.16279 11.8876 3.16279 12.1744C3.16279 12.4612 3.27672 12.7363 3.47952 12.9391C3.68232 13.1419 3.95738 13.2558 4.24419 13.2558H7.84884C8.13564 13.2558 8.4107 13.1419 8.6135 12.9391C8.8163 12.7363 8.93023 12.4612 8.93023 12.1744C8.93023 11.8876 8.8163 11.6126 8.6135 11.4098C8.4107 11.207 8.13564 11.093 7.84884 11.093ZM25.1512 21.907H28.7558C29.0426 21.907 29.3177 21.793 29.5205 21.5902C29.7233 21.3874 29.8372 21.1124 29.8372 20.8256C29.8372 20.5388 29.7233 20.2637 29.5205 20.0609C29.3177 19.8581 29.0426 19.7442 28.7558 19.7442H25.1512C24.8644 19.7442 24.5893 19.8581 24.3865 20.0609C24.1837 20.2637 24.0698 20.5388 24.0698 20.8256C24.0698 21.1124 24.1837 21.3874 24.3865 21.5902C24.5893 21.793 24.8644 21.907 25.1512 21.907ZM21.907 7.84884V4.24419C21.907 3.95738 21.793 3.68232 21.5902 3.47952C21.3874 3.27672 21.1124 3.16279 20.8256 3.16279C20.5388 3.16279 20.2637 3.27672 20.0609 3.47952C19.8581 3.68232 19.7442 3.95738 19.7442 4.24419V7.84884C19.7442 8.13564 19.8581 8.4107 20.0609 8.6135C20.2637 8.8163 20.5388 8.93023 20.8256 8.93023C21.1124 8.93023 21.3874 8.8163 21.5902 8.6135C21.793 8.4107 21.907 8.13564 21.907 7.84884ZM19.7442 25.1512V28.7558C19.7442 29.0426 19.8581 29.3177 20.0609 29.5205C20.2637 29.7233 20.5388 29.8372 20.8256 29.8372C21.1124 29.8372 21.3874 29.7233 21.5902 29.5205C21.793 29.3177 21.907 29.0426 21.907 28.7558V25.1512C21.907 24.8644 21.793 24.5893 21.5902 24.3865C21.3874 24.1837 21.1124 24.0698 20.8256 24.0698C20.5388 24.0698 20.2637 24.1837 20.0609 24.3865C19.8581 24.5893 19.7442 24.8644 19.7442 25.1512ZM7.84884 19.7442H4.24419C3.95738 19.7442 3.68232 19.8581 3.47952 20.0609C3.27672 20.2637 3.16279 20.5388 3.16279 20.8256C3.16279 21.1124 3.27672 21.3874 3.47952 21.5902C3.68232 21.793 3.95738 21.907 4.24419 21.907H7.84884C8.13564 21.907 8.4107 21.793 8.6135 21.5902C8.8163 21.3874 8.93023 21.1124 8.93023 20.8256C8.93023 20.5388 8.8163 20.2637 8.6135 20.0609C8.4107 19.8581 8.13564 19.7442 7.84884 19.7442Z" stroke="white" mask="url(#path-2-outside-1_4408_76)"/>
<defs>
<linearGradient id="paint0_linear_4408_76" x1="26.4359" y1="16.4067" x2="6.32449" y2="16.6339" gradientUnits="userSpaceOnUse">
<stop stop-color="#FF7223"/>
<stop offset="1" stop-color="#FF6827"/>
</linearGradient>
<linearGradient id="paint1_linear_4408_76" x1="32.333" y1="16.3481" x2="0.303678" y2="16.7099" gradientUnits="userSpaceOnUse">
<stop stop-color="#FF7223"/>
<stop offset="1" stop-color="#FF6827"/>
</linearGradient>
</defs>
</svg>
