<svg width="63" height="64" viewBox="0 0 63 64" fill="none" xmlns="http://www.w3.org/2000/svg">
<path d="M22.8534 38.7698L22.8532 38.7701C22.7521 39.0126 22.6042 39.2327 22.4181 39.418C22.2319 39.6033 22.011 39.7501 21.7681 39.85C21.5251 39.9499 21.2649 40.001 21.0022 40.0003C20.7396 39.9996 20.4797 39.9472 20.2373 39.8461L22.8534 38.7698ZM22.8534 38.7698L24.007 36.0003H28.0075L29.1612 38.7698L29.1613 38.7701M22.8534 38.7698L29.1613 38.7701M29.1613 38.7701C29.5865 39.7898 30.7578 40.2714 31.7771 39.8463M29.1613 38.7701L31.7771 39.8463M31.7771 39.8463C32.7967 39.4211 33.2783 38.25 32.8534 37.2307C32.8534 37.2306 32.8533 37.2305 32.8533 37.2304L27.8534 25.2307L27.8533 25.2304C27.7013 24.8661 27.445 24.5549 27.1165 24.3359C26.788 24.117 26.4021 24.0002 26.0074 24.0002C25.6126 24.0002 25.2267 24.117 24.8983 24.3359C24.5698 24.5549 24.3134 24.8661 24.1615 25.2304L24.1613 25.2307L19.1615 37.2303C19.1615 37.2303 19.1615 37.2304 19.1615 37.2304C19.1614 37.2305 19.1614 37.2306 19.1613 37.2307C19.0603 37.473 19.008 37.7328 19.0073 37.9953C19.0067 38.2579 19.0577 38.5181 19.1576 38.761C19.2575 39.0039 19.4043 39.2248 19.5895 39.4109C19.7747 39.5971 19.9948 39.745 20.2372 39.8461L31.7771 39.8463ZM25.6742 32.0002L26.0073 31.2006L26.3404 32.0002H25.6742Z" fill="url(#paint0_linear_3154_92)" stroke="white" stroke-width="2"/>
<path d="M34.0073 36C32.9027 36 32.0073 36.8954 32.0073 38C32.0073 39.1046 32.9027 40.0001 34.0073 40.0001H40.0074C41.112 40.0001 42.0074 39.1046 42.0074 38C42.0074 36.8954 41.112 36 40.0074 36H39.0073V28H40.0074C41.112 28 42.0074 27.1046 42.0074 26C42.0074 24.8954 41.112 24 40.0074 24H34.0073C32.9027 24 32.0073 24.8954 32.0073 26C32.0073 27.1046 32.9027 28 34.0073 28H35.0074V36H34.0073Z" fill="url(#paint1_linear_3154_92)" stroke="white" stroke-width="2"/>
<mask id="path-3-outside-1_3154_92" maskUnits="userSpaceOnUse" x="-1" y="0" width="64" height="64" fill="black">
<rect fill="white" x="-1" width="64" height="64"/>
<path d="M2.00722 46C2.00722 48.2092 3.79812 50 6.00719 50C6.50824 49.9981 7.00437 49.9011 7.46918 49.714C9.83317 51.524 13.1692 52.468 17.2692 52.468C17.8871 52.468 18.5292 52.439 19.1802 52.397C22.0841 58.331 26.2742 62 31.0072 62C35.7401 62 39.9302 58.331 42.8351 52.4C43.4872 52.442 44.1281 52.4709 44.7461 52.4709C48.8461 52.4709 52.1821 51.5269 54.5461 49.7169C55.0108 49.9028 55.5066 49.9989 56.0071 50C57.7726 49.995 59.326 48.833 59.8295 47.1408C60.333 45.4486 59.6676 43.6264 58.1921 42.657C58.332 39.437 57.087 35.7829 54.5531 32C57.087 28.218 58.3321 24.5639 58.1921 21.3429C59.9209 20.2273 60.5182 17.9801 59.5715 16.1533C58.6248 14.3265 56.4444 13.5188 54.5361 14.2879C51.8191 12.2089 47.8071 11.2879 42.836 11.6119C39.9343 5.67303 35.7423 2 31.0073 2C26.2722 2 22.0802 5.67303 19.1752 11.612C14.2062 11.29 10.1962 12.212 7.47519 14.288C5.56806 13.5251 3.39323 14.334 2.44813 16.1577C1.50303 17.9815 2.09619 20.2248 3.81918 21.343C3.6812 24.5621 4.92716 28.216 7.46121 32.0001C4.92716 35.783 3.6812 39.4371 3.82223 42.6571C3.26554 43.0194 2.80801 43.5148 2.49109 44.0985C2.17416 44.6822 2.00785 45.3358 2.00722 46ZM4.00726 46C4.00726 44.8955 4.90266 44 6.00729 44C7.11193 44 8.00733 44.8954 8.00733 46C8.00733 47.1046 7.11193 48 6.00729 48C5.47685 48 4.96813 47.7893 4.59305 47.4142C4.21797 47.0392 4.00726 46.5304 4.00726 46ZM20.4163 13.72C23.0784 14.0388 25.7013 14.6275 28.2443 15.4771C26.4543 16.2759 24.7064 17.1657 23.0073 18.1431C21.3022 19.1272 19.6506 20.201 18.0593 21.3601C18.5836 18.74 19.3733 16.1801 20.4163 13.72ZM43.9542 21.3601C42.3634 20.2008 40.7121 19.127 39.0072 18.1431C37.3106 17.1669 35.5657 16.2771 33.7792 15.4771C36.3196 14.628 38.9397 14.0392 41.5992 13.72C42.6415 16.1802 43.4306 18.74 43.9542 21.3601ZM41.5982 50.2801C38.9361 49.9613 36.3132 49.3726 33.7702 48.523C35.5602 47.7242 37.3081 46.8344 39.0072 45.857C40.7123 44.8729 42.3639 43.7991 43.9552 42.64C43.431 45.2601 42.6412 47.82 41.5982 50.2801ZM38.0073 19.876C40.2624 21.1738 42.4182 22.6368 44.4573 24.253C44.825 26.819 45.0088 29.4079 45.0072 32.0001C45.0091 34.5922 44.8256 37.1811 44.4582 39.7471C42.4188 41.3632 40.2626 42.8262 38.0073 44.1241C35.7591 45.4244 33.4196 46.56 31.0073 47.522C28.5947 46.5595 26.2553 45.4232 24.0072 44.122C21.7521 42.8242 19.5963 41.3612 17.5572 39.745C16.8252 34.6063 16.8252 29.3897 17.5572 24.251C19.5964 22.6356 21.7523 21.1732 24.0072 19.8759C26.2573 18.5746 28.5988 17.4383 31.0133 16.4759C33.4237 17.4388 35.7612 18.5751 38.0073 19.876ZM46.7073 26.143C48.7018 27.9088 50.5133 29.871 52.1143 32.0001C50.5155 34.1287 48.7064 36.0909 46.7144 37.8571C46.9107 35.9109 47.0085 33.9561 47.0073 32.0001C47.0079 30.044 46.9095 28.0892 46.7124 26.143H46.7073ZM15.3072 37.8571C13.3122 36.0918 11.5007 34.1295 9.90019 32.0001C11.499 29.8714 13.3081 27.9091 15.3001 26.143C14.9068 30.0378 14.9068 33.9623 15.3001 37.8571H15.3072ZM23.0132 45.857C24.7099 46.8332 26.4548 47.723 28.2412 48.523C25.7008 49.3721 23.0807 49.9609 20.4212 50.2801C19.3786 47.82 18.5892 45.2601 18.0652 42.64C19.6544 43.7991 21.3041 44.8729 23.0072 45.857H23.0132ZM31.0073 60.0001C27.2513 60.0001 23.8382 57.0211 21.3212 52.1891C24.6354 51.7192 27.8852 50.8724 31.0073 49.6651C34.1305 50.8729 37.3816 51.7197 40.6972 52.1891C38.1753 57.0211 34.7632 60.0001 31.0073 60.0001ZM56.0073 48C54.9028 48 54.0073 47.1046 54.0073 46C54.0073 44.8954 54.9027 44 56.0073 44C57.1119 44 58.0073 44.8954 58.0073 46C58.0073 47.1046 57.1118 48 56.0073 48ZM56.2172 42.021C56.1463 42.021 56.0793 42 56.0072 42C53.798 42 52.0072 43.7909 52.0072 46C52.011 46.8943 52.3173 47.7609 52.8763 48.459C50.6983 49.896 47.5192 50.579 43.7112 50.436C44.9511 47.3386 45.8299 44.1086 46.3302 40.81C48.9167 38.7273 51.2575 36.3567 53.3072 33.744C54.9957 36.1953 56.0002 39.0524 56.2172 42.021ZM58.0072 18C58.0072 19.1045 57.1118 20 56.0072 20C54.9026 20 54.0072 19.1046 54.0072 18C54.0072 16.8954 54.9026 16 56.0072 16C57.1118 16 58.0072 16.8955 58.0072 18ZM52.8763 15.541C52.3174 16.2391 52.0111 17.1058 52.0072 18C52.0072 20.2092 53.7981 22 56.0072 22C56.0793 22 56.1462 21.9829 56.2172 21.979C56.0005 24.9477 54.9959 27.8048 53.3072 30.256C51.2571 27.6433 48.916 25.2727 46.3292 23.19C45.8282 19.8912 44.9484 16.6612 43.7072 13.564C47.5183 13.42 50.6993 14.1 52.8763 15.541ZM31.0073 4.00004C34.7632 4.00004 38.1763 6.97903 40.6933 11.811C37.3807 12.2812 34.1327 13.1281 31.0123 14.335C27.889 13.1272 24.6379 12.2804 21.3223 11.811C23.8392 6.97903 27.2513 4.00004 31.0073 4.00004ZM6.00719 16.0001C7.11173 16.0001 8.00723 16.8955 8.00723 18.0001C8.00723 19.1047 7.11183 20.0001 6.00719 20.0001C4.90256 20.0001 4.00716 19.1047 4.00716 18.0001C4.00716 16.8955 4.90266 16.0001 6.00719 16.0001ZM5.79727 21.979C5.86823 21.979 5.93525 22 6.00729 22C8.21646 22 10.0073 20.2091 10.0073 18C10.0035 17.1057 9.69724 16.2391 9.13824 15.541C11.3152 14.104 14.4942 13.422 18.3033 13.564C17.0635 16.6615 16.1847 19.8914 15.6843 23.19C13.0981 25.2726 10.7573 27.6429 8.70727 30.255C7.01824 27.8044 6.01369 24.9474 5.79727 21.979ZM8.70727 33.745C10.7583 36.3569 13.0996 38.7271 15.6862 40.81C16.1872 44.109 17.0666 47.3393 18.3073 50.437C14.5013 50.5809 11.3203 49.896 9.14228 48.459C9.69979 47.7604 10.0046 46.8938 10.0073 46C10.0073 43.7908 8.21637 42 6.00729 42C5.93525 42 5.86833 42.018 5.79727 42.021C6.01406 39.0526 7.01858 36.1958 8.70727 33.745Z"/>
</mask>
<path d="M2.00722 46C2.00722 48.2092 3.79812 50 6.00719 50C6.50824 49.9981 7.00437 49.9011 7.46918 49.714C9.83317 51.524 13.1692 52.468 17.2692 52.468C17.8871 52.468 18.5292 52.439 19.1802 52.397C22.0841 58.331 26.2742 62 31.0072 62C35.7401 62 39.9302 58.331 42.8351 52.4C43.4872 52.442 44.1281 52.4709 44.7461 52.4709C48.8461 52.4709 52.1821 51.5269 54.5461 49.7169C55.0108 49.9028 55.5066 49.9989 56.0071 50C57.7726 49.995 59.326 48.833 59.8295 47.1408C60.333 45.4486 59.6676 43.6264 58.1921 42.657C58.332 39.437 57.087 35.7829 54.5531 32C57.087 28.218 58.3321 24.5639 58.1921 21.3429C59.9209 20.2273 60.5182 17.9801 59.5715 16.1533C58.6248 14.3265 56.4444 13.5188 54.5361 14.2879C51.8191 12.2089 47.8071 11.2879 42.836 11.6119C39.9343 5.67303 35.7423 2 31.0073 2C26.2722 2 22.0802 5.67303 19.1752 11.612C14.2062 11.29 10.1962 12.212 7.47519 14.288C5.56806 13.5251 3.39323 14.334 2.44813 16.1577C1.50303 17.9815 2.09619 20.2248 3.81918 21.343C3.6812 24.5621 4.92716 28.216 7.46121 32.0001C4.92716 35.783 3.6812 39.4371 3.82223 42.6571C3.26554 43.0194 2.80801 43.5148 2.49109 44.0985C2.17416 44.6822 2.00785 45.3358 2.00722 46ZM4.00726 46C4.00726 44.8955 4.90266 44 6.00729 44C7.11193 44 8.00733 44.8954 8.00733 46C8.00733 47.1046 7.11193 48 6.00729 48C5.47685 48 4.96813 47.7893 4.59305 47.4142C4.21797 47.0392 4.00726 46.5304 4.00726 46ZM20.4163 13.72C23.0784 14.0388 25.7013 14.6275 28.2443 15.4771C26.4543 16.2759 24.7064 17.1657 23.0073 18.1431C21.3022 19.1272 19.6506 20.201 18.0593 21.3601C18.5836 18.74 19.3733 16.1801 20.4163 13.72ZM43.9542 21.3601C42.3634 20.2008 40.7121 19.127 39.0072 18.1431C37.3106 17.1669 35.5657 16.2771 33.7792 15.4771C36.3196 14.628 38.9397 14.0392 41.5992 13.72C42.6415 16.1802 43.4306 18.74 43.9542 21.3601ZM41.5982 50.2801C38.9361 49.9613 36.3132 49.3726 33.7702 48.523C35.5602 47.7242 37.3081 46.8344 39.0072 45.857C40.7123 44.8729 42.3639 43.7991 43.9552 42.64C43.431 45.2601 42.6412 47.82 41.5982 50.2801ZM38.0073 19.876C40.2624 21.1738 42.4182 22.6368 44.4573 24.253C44.825 26.819 45.0088 29.4079 45.0072 32.0001C45.0091 34.5922 44.8256 37.1811 44.4582 39.7471C42.4188 41.3632 40.2626 42.8262 38.0073 44.1241C35.7591 45.4244 33.4196 46.56 31.0073 47.522C28.5947 46.5595 26.2553 45.4232 24.0072 44.122C21.7521 42.8242 19.5963 41.3612 17.5572 39.745C16.8252 34.6063 16.8252 29.3897 17.5572 24.251C19.5964 22.6356 21.7523 21.1732 24.0072 19.8759C26.2573 18.5746 28.5988 17.4383 31.0133 16.4759C33.4237 17.4388 35.7612 18.5751 38.0073 19.876ZM46.7073 26.143C48.7018 27.9088 50.5133 29.871 52.1143 32.0001C50.5155 34.1287 48.7064 36.0909 46.7144 37.8571C46.9107 35.9109 47.0085 33.9561 47.0073 32.0001C47.0079 30.044 46.9095 28.0892 46.7124 26.143H46.7073ZM15.3072 37.8571C13.3122 36.0918 11.5007 34.1295 9.90019 32.0001C11.499 29.8714 13.3081 27.9091 15.3001 26.143C14.9068 30.0378 14.9068 33.9623 15.3001 37.8571H15.3072ZM23.0132 45.857C24.7099 46.8332 26.4548 47.723 28.2412 48.523C25.7008 49.3721 23.0807 49.9609 20.4212 50.2801C19.3786 47.82 18.5892 45.2601 18.0652 42.64C19.6544 43.7991 21.3041 44.8729 23.0072 45.857H23.0132ZM31.0073 60.0001C27.2513 60.0001 23.8382 57.0211 21.3212 52.1891C24.6354 51.7192 27.8852 50.8724 31.0073 49.6651C34.1305 50.8729 37.3816 51.7197 40.6972 52.1891C38.1753 57.0211 34.7632 60.0001 31.0073 60.0001ZM56.0073 48C54.9028 48 54.0073 47.1046 54.0073 46C54.0073 44.8954 54.9027 44 56.0073 44C57.1119 44 58.0073 44.8954 58.0073 46C58.0073 47.1046 57.1118 48 56.0073 48ZM56.2172 42.021C56.1463 42.021 56.0793 42 56.0072 42C53.798 42 52.0072 43.7909 52.0072 46C52.011 46.8943 52.3173 47.7609 52.8763 48.459C50.6983 49.896 47.5192 50.579 43.7112 50.436C44.9511 47.3386 45.8299 44.1086 46.3302 40.81C48.9167 38.7273 51.2575 36.3567 53.3072 33.744C54.9957 36.1953 56.0002 39.0524 56.2172 42.021ZM58.0072 18C58.0072 19.1045 57.1118 20 56.0072 20C54.9026 20 54.0072 19.1046 54.0072 18C54.0072 16.8954 54.9026 16 56.0072 16C57.1118 16 58.0072 16.8955 58.0072 18ZM52.8763 15.541C52.3174 16.2391 52.0111 17.1058 52.0072 18C52.0072 20.2092 53.7981 22 56.0072 22C56.0793 22 56.1462 21.9829 56.2172 21.979C56.0005 24.9477 54.9959 27.8048 53.3072 30.256C51.2571 27.6433 48.916 25.2727 46.3292 23.19C45.8282 19.8912 44.9484 16.6612 43.7072 13.564C47.5183 13.42 50.6993 14.1 52.8763 15.541ZM31.0073 4.00004C34.7632 4.00004 38.1763 6.97903 40.6933 11.811C37.3807 12.2812 34.1327 13.1281 31.0123 14.335C27.889 13.1272 24.6379 12.2804 21.3223 11.811C23.8392 6.97903 27.2513 4.00004 31.0073 4.00004ZM6.00719 16.0001C7.11173 16.0001 8.00723 16.8955 8.00723 18.0001C8.00723 19.1047 7.11183 20.0001 6.00719 20.0001C4.90256 20.0001 4.00716 19.1047 4.00716 18.0001C4.00716 16.8955 4.90266 16.0001 6.00719 16.0001ZM5.79727 21.979C5.86823 21.979 5.93525 22 6.00729 22C8.21646 22 10.0073 20.2091 10.0073 18C10.0035 17.1057 9.69724 16.2391 9.13824 15.541C11.3152 14.104 14.4942 13.422 18.3033 13.564C17.0635 16.6615 16.1847 19.8914 15.6843 23.19C13.0981 25.2726 10.7573 27.6429 8.70727 30.255C7.01824 27.8044 6.01369 24.9474 5.79727 21.979ZM8.70727 33.745C10.7583 36.3569 13.0996 38.7271 15.6862 40.81C16.1872 44.109 17.0666 47.3393 18.3073 50.437C14.5013 50.5809 11.3203 49.896 9.14228 48.459C9.69979 47.7604 10.0046 46.8938 10.0073 46C10.0073 43.7908 8.21637 42 6.00729 42C5.93525 42 5.86833 42.018 5.79727 42.021C6.01406 39.0526 7.01858 36.1958 8.70727 33.745Z" fill="url(#paint2_linear_3154_92)"/>
<path d="M2.00722 46C2.00722 48.2092 3.79812 50 6.00719 50C6.50824 49.9981 7.00437 49.9011 7.46918 49.714C9.83317 51.524 13.1692 52.468 17.2692 52.468C17.8871 52.468 18.5292 52.439 19.1802 52.397C22.0841 58.331 26.2742 62 31.0072 62C35.7401 62 39.9302 58.331 42.8351 52.4C43.4872 52.442 44.1281 52.4709 44.7461 52.4709C48.8461 52.4709 52.1821 51.5269 54.5461 49.7169C55.0108 49.9028 55.5066 49.9989 56.0071 50C57.7726 49.995 59.326 48.833 59.8295 47.1408C60.333 45.4486 59.6676 43.6264 58.1921 42.657C58.332 39.437 57.087 35.7829 54.5531 32C57.087 28.218 58.3321 24.5639 58.1921 21.3429C59.9209 20.2273 60.5182 17.9801 59.5715 16.1533C58.6248 14.3265 56.4444 13.5188 54.5361 14.2879C51.8191 12.2089 47.8071 11.2879 42.836 11.6119C39.9343 5.67303 35.7423 2 31.0073 2C26.2722 2 22.0802 5.67303 19.1752 11.612C14.2062 11.29 10.1962 12.212 7.47519 14.288C5.56806 13.5251 3.39323 14.334 2.44813 16.1577C1.50303 17.9815 2.09619 20.2248 3.81918 21.343C3.6812 24.5621 4.92716 28.216 7.46121 32.0001C4.92716 35.783 3.6812 39.4371 3.82223 42.6571C3.26554 43.0194 2.80801 43.5148 2.49109 44.0985C2.17416 44.6822 2.00785 45.3358 2.00722 46ZM4.00726 46C4.00726 44.8955 4.90266 44 6.00729 44C7.11193 44 8.00733 44.8954 8.00733 46C8.00733 47.1046 7.11193 48 6.00729 48C5.47685 48 4.96813 47.7893 4.59305 47.4142C4.21797 47.0392 4.00726 46.5304 4.00726 46ZM20.4163 13.72C23.0784 14.0388 25.7013 14.6275 28.2443 15.4771C26.4543 16.2759 24.7064 17.1657 23.0073 18.1431C21.3022 19.1272 19.6506 20.201 18.0593 21.3601C18.5836 18.74 19.3733 16.1801 20.4163 13.72ZM43.9542 21.3601C42.3634 20.2008 40.7121 19.127 39.0072 18.1431C37.3106 17.1669 35.5657 16.2771 33.7792 15.4771C36.3196 14.628 38.9397 14.0392 41.5992 13.72C42.6415 16.1802 43.4306 18.74 43.9542 21.3601ZM41.5982 50.2801C38.9361 49.9613 36.3132 49.3726 33.7702 48.523C35.5602 47.7242 37.3081 46.8344 39.0072 45.857C40.7123 44.8729 42.3639 43.7991 43.9552 42.64C43.431 45.2601 42.6412 47.82 41.5982 50.2801ZM38.0073 19.876C40.2624 21.1738 42.4182 22.6368 44.4573 24.253C44.825 26.819 45.0088 29.4079 45.0072 32.0001C45.0091 34.5922 44.8256 37.1811 44.4582 39.7471C42.4188 41.3632 40.2626 42.8262 38.0073 44.1241C35.7591 45.4244 33.4196 46.56 31.0073 47.522C28.5947 46.5595 26.2553 45.4232 24.0072 44.122C21.7521 42.8242 19.5963 41.3612 17.5572 39.745C16.8252 34.6063 16.8252 29.3897 17.5572 24.251C19.5964 22.6356 21.7523 21.1732 24.0072 19.8759C26.2573 18.5746 28.5988 17.4383 31.0133 16.4759C33.4237 17.4388 35.7612 18.5751 38.0073 19.876ZM46.7073 26.143C48.7018 27.9088 50.5133 29.871 52.1143 32.0001C50.5155 34.1287 48.7064 36.0909 46.7144 37.8571C46.9107 35.9109 47.0085 33.9561 47.0073 32.0001C47.0079 30.044 46.9095 28.0892 46.7124 26.143H46.7073ZM15.3072 37.8571C13.3122 36.0918 11.5007 34.1295 9.90019 32.0001C11.499 29.8714 13.3081 27.9091 15.3001 26.143C14.9068 30.0378 14.9068 33.9623 15.3001 37.8571H15.3072ZM23.0132 45.857C24.7099 46.8332 26.4548 47.723 28.2412 48.523C25.7008 49.3721 23.0807 49.9609 20.4212 50.2801C19.3786 47.82 18.5892 45.2601 18.0652 42.64C19.6544 43.7991 21.3041 44.8729 23.0072 45.857H23.0132ZM31.0073 60.0001C27.2513 60.0001 23.8382 57.0211 21.3212 52.1891C24.6354 51.7192 27.8852 50.8724 31.0073 49.6651C34.1305 50.8729 37.3816 51.7197 40.6972 52.1891C38.1753 57.0211 34.7632 60.0001 31.0073 60.0001ZM56.0073 48C54.9028 48 54.0073 47.1046 54.0073 46C54.0073 44.8954 54.9027 44 56.0073 44C57.1119 44 58.0073 44.8954 58.0073 46C58.0073 47.1046 57.1118 48 56.0073 48ZM56.2172 42.021C56.1463 42.021 56.0793 42 56.0072 42C53.798 42 52.0072 43.7909 52.0072 46C52.011 46.8943 52.3173 47.7609 52.8763 48.459C50.6983 49.896 47.5192 50.579 43.7112 50.436C44.9511 47.3386 45.8299 44.1086 46.3302 40.81C48.9167 38.7273 51.2575 36.3567 53.3072 33.744C54.9957 36.1953 56.0002 39.0524 56.2172 42.021ZM58.0072 18C58.0072 19.1045 57.1118 20 56.0072 20C54.9026 20 54.0072 19.1046 54.0072 18C54.0072 16.8954 54.9026 16 56.0072 16C57.1118 16 58.0072 16.8955 58.0072 18ZM52.8763 15.541C52.3174 16.2391 52.0111 17.1058 52.0072 18C52.0072 20.2092 53.7981 22 56.0072 22C56.0793 22 56.1462 21.9829 56.2172 21.979C56.0005 24.9477 54.9959 27.8048 53.3072 30.256C51.2571 27.6433 48.916 25.2727 46.3292 23.19C45.8282 19.8912 44.9484 16.6612 43.7072 13.564C47.5183 13.42 50.6993 14.1 52.8763 15.541ZM31.0073 4.00004C34.7632 4.00004 38.1763 6.97903 40.6933 11.811C37.3807 12.2812 34.1327 13.1281 31.0123 14.335C27.889 13.1272 24.6379 12.2804 21.3223 11.811C23.8392 6.97903 27.2513 4.00004 31.0073 4.00004ZM6.00719 16.0001C7.11173 16.0001 8.00723 16.8955 8.00723 18.0001C8.00723 19.1047 7.11183 20.0001 6.00719 20.0001C4.90256 20.0001 4.00716 19.1047 4.00716 18.0001C4.00716 16.8955 4.90266 16.0001 6.00719 16.0001ZM5.79727 21.979C5.86823 21.979 5.93525 22 6.00729 22C8.21646 22 10.0073 20.2091 10.0073 18C10.0035 17.1057 9.69724 16.2391 9.13824 15.541C11.3152 14.104 14.4942 13.422 18.3033 13.564C17.0635 16.6615 16.1847 19.8914 15.6843 23.19C13.0981 25.2726 10.7573 27.6429 8.70727 30.255C7.01824 27.8044 6.01369 24.9474 5.79727 21.979ZM8.70727 33.745C10.7583 36.3569 13.0996 38.7271 15.6862 40.81C16.1872 44.109 17.0666 47.3393 18.3073 50.437C14.5013 50.5809 11.3203 49.896 9.14228 48.459C9.69979 47.7604 10.0046 46.8938 10.0073 46C10.0073 43.7908 8.21637 42 6.00729 42C5.93525 42 5.86833 42.018 5.79727 42.021C6.01406 39.0526 7.01858 36.1958 8.70727 33.745Z" stroke="white" stroke-width="4" mask="url(#path-3-outside-1_3154_92)"/>
<defs>
<linearGradient id="paint0_linear_3154_92" x1="20.0073" y1="32.0004" x2="32.0076" y2="32.0004" gradientUnits="userSpaceOnUse">
<stop stop-color="#FF4B38"/>
<stop offset="0.515" stop-color="#FF4F35"/>
<stop offset="1" stop-color="#FF5433"/>
</linearGradient>
<linearGradient id="paint1_linear_3154_92" x1="33.0073" y1="32" x2="41.0074" y2="32" gradientUnits="userSpaceOnUse">
<stop stop-color="#FF4B38"/>
<stop offset="0.515" stop-color="#FF4F35"/>
<stop offset="1" stop-color="#FF5433"/>
</linearGradient>
<linearGradient id="paint2_linear_3154_92" x1="2" y1="32" x2="60.0195" y2="32" gradientUnits="userSpaceOnUse">
<stop stop-color="#FF4B38"/>
<stop offset="0.515" stop-color="#FF4F35"/>
<stop offset="1" stop-color="#FF5433"/>
</linearGradient>
</defs>
</svg>
