<svg width="33" height="33" viewBox="0 0 33 33" fill="none" xmlns="http://www.w3.org/2000/svg">
<path d="M5.28711 22.792C5.95976 22.7921 6.50578 23.3426 6.50586 24.0156V31.0264C6.50585 31.6995 5.9598 32.2499 5.28711 32.25H2.02246C1.34964 32.25 0.803718 31.6995 0.803711 31.0264V24.0156L0.80957 23.8906C0.872267 23.2756 1.39188 22.792 2.02246 22.792H5.28711ZM13.8682 14.4111C14.5409 14.4111 15.0869 14.9616 15.0869 15.6348V30.8232C15.0867 31.4962 14.5408 32.0469 13.8682 32.0469H10.6035C9.93079 32.0467 9.38497 31.4961 9.38477 30.8232V15.6348C9.38479 14.9617 9.93076 14.4113 10.6035 14.4111H13.8682ZM22.4502 17.2617C23.1229 17.2619 23.6689 17.8124 23.6689 18.4854V30.6191C23.6689 31.2922 23.1229 31.8426 22.4502 31.8428H19.1855C18.5128 31.8428 17.9668 31.2924 17.9668 30.6191V18.4854C17.9669 17.8123 18.5127 17.2617 19.1855 17.2617H22.4502ZM31.0312 9.32129C31.7042 9.32132 32.2499 9.87183 32.25 10.5449V30.416C32.2499 31.089 31.704 31.6396 31.0312 31.6396H27.7666C27.0939 31.6396 26.548 31.0891 26.5479 30.416V10.5449C26.5479 9.87181 27.0939 9.32131 27.7666 9.32129H31.0312ZM29.3984 0.75C30.7227 0.75 31.7939 1.82851 31.7939 3.15625C31.7939 4.48416 30.7227 5.56152 29.3984 5.56152C29.0592 5.56195 28.7251 5.48986 28.417 5.35059L23.1279 9.89258C23.1838 10.0987 23.213 10.3113 23.2129 10.5254L23.2002 10.7715C23.0776 11.984 22.0588 12.9316 20.8174 12.9316C19.5771 12.9316 18.5606 11.9854 18.4365 10.7744L13.9395 9.19238C13.5351 9.60449 12.9859 9.87364 12.3721 9.9082L12.2363 9.91211C11.9061 9.91257 11.5807 9.84308 11.2793 9.71094L5.44727 14.8408C5.50836 15.0557 5.54122 15.2779 5.54102 15.502L5.52832 15.748C5.41395 16.8799 4.51892 17.7814 3.39062 17.8965L3.14551 17.9082C1.82144 17.9081 0.75 16.8299 0.75 15.502C0.750102 14.1741 1.82142 13.0957 3.14551 13.0957L3.29102 13.0996C3.5707 13.1164 3.84489 13.1835 4.10156 13.2959L9.93262 8.16699C9.87163 7.9522 9.84059 7.72976 9.84082 7.50586L9.85254 7.25977C9.97515 6.04722 10.995 5.09961 12.2363 5.09961C13.4758 5.09978 14.4912 6.04493 14.6162 7.25488L19.1133 8.83691C19.5472 8.39496 20.1497 8.11915 20.8174 8.11914L20.9658 8.12305C21.2541 8.14069 21.5366 8.21111 21.7998 8.33008L27.0879 3.78906C27.0321 3.58299 27.0028 3.37031 27.0029 3.15625L27.0156 2.91016C27.1383 1.69789 28.1573 0.750175 29.3984 0.75Z" fill="black"/>
<path d="M5.28711 22.792C5.95976 22.7921 6.50578 23.3426 6.50586 24.0156V31.0264C6.50585 31.6995 5.9598 32.2499 5.28711 32.25H2.02246C1.34964 32.25 0.803718 31.6995 0.803711 31.0264V24.0156L0.80957 23.8906C0.872267 23.2756 1.39188 22.792 2.02246 22.792H5.28711ZM13.8682 14.4111C14.5409 14.4111 15.0869 14.9616 15.0869 15.6348V30.8232C15.0867 31.4962 14.5408 32.0469 13.8682 32.0469H10.6035C9.93079 32.0467 9.38497 31.4961 9.38477 30.8232V15.6348C9.38479 14.9617 9.93076 14.4113 10.6035 14.4111H13.8682ZM22.4502 17.2617C23.1229 17.2619 23.6689 17.8124 23.6689 18.4854V30.6191C23.6689 31.2922 23.1229 31.8426 22.4502 31.8428H19.1855C18.5128 31.8428 17.9668 31.2924 17.9668 30.6191V18.4854C17.9669 17.8123 18.5127 17.2617 19.1855 17.2617H22.4502ZM31.0312 9.32129C31.7042 9.32132 32.2499 9.87183 32.25 10.5449V30.416C32.2499 31.089 31.704 31.6396 31.0312 31.6396H27.7666C27.0939 31.6396 26.548 31.0891 26.5479 30.416V10.5449C26.5479 9.87181 27.0939 9.32131 27.7666 9.32129H31.0312ZM29.3984 0.75C30.7227 0.75 31.7939 1.82851 31.7939 3.15625C31.7939 4.48416 30.7227 5.56152 29.3984 5.56152C29.0592 5.56195 28.7251 5.48986 28.417 5.35059L23.1279 9.89258C23.1838 10.0987 23.213 10.3113 23.2129 10.5254L23.2002 10.7715C23.0776 11.984 22.0588 12.9316 20.8174 12.9316C19.5771 12.9316 18.5606 11.9854 18.4365 10.7744L13.9395 9.19238C13.5351 9.60449 12.9859 9.87364 12.3721 9.9082L12.2363 9.91211C11.9061 9.91257 11.5807 9.84308 11.2793 9.71094L5.44727 14.8408C5.50836 15.0557 5.54122 15.2779 5.54102 15.502L5.52832 15.748C5.41395 16.8799 4.51892 17.7814 3.39062 17.8965L3.14551 17.9082C1.82144 17.9081 0.75 16.8299 0.75 15.502C0.750102 14.1741 1.82142 13.0957 3.14551 13.0957L3.29102 13.0996C3.5707 13.1164 3.84489 13.1835 4.10156 13.2959L9.93262 8.16699C9.87163 7.9522 9.84059 7.72976 9.84082 7.50586L9.85254 7.25977C9.97515 6.04722 10.995 5.09961 12.2363 5.09961C13.4758 5.09978 14.4912 6.04493 14.6162 7.25488L19.1133 8.83691C19.5472 8.39496 20.1497 8.11915 20.8174 8.11914L20.9658 8.12305C21.2541 8.14069 21.5366 8.21111 21.7998 8.33008L27.0879 3.78906C27.0321 3.58299 27.0028 3.37031 27.0029 3.15625L27.0156 2.91016C27.1383 1.69789 28.1573 0.750175 29.3984 0.75Z" fill="url(#paint0_linear_4408_65)"/>
<path d="M5.28711 22.792C5.95976 22.7921 6.50578 23.3426 6.50586 24.0156V31.0264C6.50585 31.6995 5.9598 32.2499 5.28711 32.25H2.02246C1.34964 32.25 0.803718 31.6995 0.803711 31.0264V24.0156L0.80957 23.8906C0.872267 23.2756 1.39188 22.792 2.02246 22.792H5.28711ZM13.8682 14.4111C14.5409 14.4111 15.0869 14.9616 15.0869 15.6348V30.8232C15.0867 31.4962 14.5408 32.0469 13.8682 32.0469H10.6035C9.93079 32.0467 9.38497 31.4961 9.38477 30.8232V15.6348C9.38479 14.9617 9.93076 14.4113 10.6035 14.4111H13.8682ZM22.4502 17.2617C23.1229 17.2619 23.6689 17.8124 23.6689 18.4854V30.6191C23.6689 31.2922 23.1229 31.8426 22.4502 31.8428H19.1855C18.5128 31.8428 17.9668 31.2924 17.9668 30.6191V18.4854C17.9669 17.8123 18.5127 17.2617 19.1855 17.2617H22.4502ZM31.0312 9.32129C31.7042 9.32132 32.2499 9.87183 32.25 10.5449V30.416C32.2499 31.089 31.704 31.6396 31.0312 31.6396H27.7666C27.0939 31.6396 26.548 31.0891 26.5479 30.416V10.5449C26.5479 9.87181 27.0939 9.32131 27.7666 9.32129H31.0312ZM29.3984 0.75C30.7227 0.75 31.7939 1.82851 31.7939 3.15625C31.7939 4.48416 30.7227 5.56152 29.3984 5.56152C29.0592 5.56195 28.7251 5.48986 28.417 5.35059L23.1279 9.89258C23.1838 10.0987 23.213 10.3113 23.2129 10.5254L23.2002 10.7715C23.0776 11.984 22.0588 12.9316 20.8174 12.9316C19.5771 12.9316 18.5606 11.9854 18.4365 10.7744L13.9395 9.19238C13.5351 9.60449 12.9859 9.87364 12.3721 9.9082L12.2363 9.91211C11.9061 9.91257 11.5807 9.84308 11.2793 9.71094L5.44727 14.8408C5.50836 15.0557 5.54122 15.2779 5.54102 15.502L5.52832 15.748C5.41395 16.8799 4.51892 17.7814 3.39062 17.8965L3.14551 17.9082C1.82144 17.9081 0.75 16.8299 0.75 15.502C0.750102 14.1741 1.82142 13.0957 3.14551 13.0957L3.29102 13.0996C3.5707 13.1164 3.84489 13.1835 4.10156 13.2959L9.93262 8.16699C9.87163 7.9522 9.84059 7.72976 9.84082 7.50586L9.85254 7.25977C9.97515 6.04722 10.995 5.09961 12.2363 5.09961C13.4758 5.09978 14.4912 6.04493 14.6162 7.25488L19.1133 8.83691C19.5472 8.39496 20.1497 8.11915 20.8174 8.11914L20.9658 8.12305C21.2541 8.14069 21.5366 8.21111 21.7998 8.33008L27.0879 3.78906C27.0321 3.58299 27.0028 3.37031 27.0029 3.15625L27.0156 2.91016C27.1383 1.69789 28.1573 0.750175 29.3984 0.75Z" stroke="white" stroke-width="0.5"/>
<defs>
<linearGradient id="paint0_linear_4408_65" x1="32.333" y1="16.3481" x2="0.303678" y2="16.7099" gradientUnits="userSpaceOnUse">
<stop stop-color="#FF7223"/>
<stop offset="1" stop-color="#FF6827"/>
</linearGradient>
</defs>
</svg>
