<svg width="32" height="33" viewBox="0 0 32 33" fill="none" xmlns="http://www.w3.org/2000/svg">
<mask id="path-1-outside-1_4408_62" maskUnits="userSpaceOnUse" x="0" y="0" width="32" height="33" fill="black">
<rect fill="white" width="32" height="33"/>
<path fill-rule="evenodd" clip-rule="evenodd" d="M21.4793 14.6618C20.9761 14.6618 20.479 14.6004 19.9971 14.4804C19.4009 13.0933 18.0507 12.0808 16.4427 11.9231C15.8862 11.0386 15.5936 10.0261 15.5936 8.9833C15.5936 5.41553 12.5847 2.51329 8.88679 2.51329C5.18883 2.51329 2.18069 5.41553 2.18069 8.9833C2.18069 12.187 4.60634 14.8537 7.77924 15.3649L6.62521 16.2C6.44404 16.3306 6.40712 16.5792 6.54317 16.754C6.58136 16.8032 6.6309 16.8431 6.68786 16.8706C6.74483 16.8981 6.80765 16.9124 6.87133 16.9123C6.95679 16.9123 7.04362 16.8866 7.11745 16.8332L9.13291 15.3748C9.17606 15.3437 9.21241 15.3047 9.23987 15.26C9.26732 15.2152 9.28534 15.1657 9.29288 15.1143C9.3007 15.0628 9.29784 15.0103 9.28446 14.96C9.27108 14.9096 9.24745 14.8622 9.21495 14.8207L7.70336 12.8749C7.67104 12.8334 7.63054 12.7983 7.58419 12.7718C7.53784 12.7454 7.48653 12.728 7.43321 12.7206C7.37988 12.7133 7.32558 12.7161 7.27339 12.729C7.22121 12.7419 7.17217 12.7646 7.12908 12.7958C7.08598 12.827 7.04968 12.866 7.02223 12.9107C6.99478 12.9555 6.97674 13.005 6.96912 13.0564C6.9615 13.1079 6.96446 13.1603 6.97783 13.2106C6.9912 13.261 7.01472 13.3083 7.04704 13.3498L8.01784 14.5998C5.18336 14.1928 3.00109 11.8295 3.00109 8.9833C3.00109 5.85218 5.64142 3.30415 8.88679 3.30415C12.1322 3.30415 14.7732 5.85152 14.7732 8.9833C14.7732 10.0156 15.0254 11.0215 15.5074 11.9297C13.3539 12.1665 11.6755 13.9349 11.6755 16.0746C11.6755 18.3753 13.6157 20.2479 16.001 20.2479C18.3857 20.2479 20.3259 18.376 20.3259 16.0746C20.3259 15.826 20.302 15.5832 20.2589 15.3464C20.6615 15.418 21.0699 15.454 21.4793 15.454C25.1772 15.454 28.186 12.5511 28.186 8.98396C28.186 5.76643 25.7392 3.09044 22.5465 2.59574L23.706 1.70528C23.8837 1.5694 23.9124 1.32007 23.7716 1.14924C23.6308 0.978403 23.3723 0.95004 23.1953 1.08592L21.2236 2.5997C21.1814 2.63194 21.1463 2.67191 21.1203 2.71731C21.0942 2.7627 21.0777 2.81263 21.0718 2.8642C21.0595 2.96841 21.0902 3.07329 21.1579 3.15508L22.7269 5.05736C22.7654 5.10402 22.8142 5.14172 22.8699 5.16764C22.9255 5.19357 22.9865 5.20705 23.0483 5.20709C23.1378 5.20709 23.2281 5.17873 23.3033 5.12134C23.481 4.98481 23.5104 4.73614 23.3689 4.5653L22.3851 3.37275C25.2018 3.79489 27.3649 6.14966 27.3649 8.98396C27.3649 12.1144 24.7246 14.6618 21.4793 14.6618ZM7.44288 8.36327V9.64817C7.44288 10.3849 6.82211 10.9845 6.05845 10.9845H5.08354C4.85725 10.9845 4.67334 10.8071 4.67334 10.5888V7.424C4.67334 7.20568 4.85725 7.02824 5.08354 7.02824H6.05845C6.82211 7.02758 7.44288 7.62716 7.44288 8.36327ZM5.49374 7.8191H6.05845C6.36952 7.8191 6.62248 8.06315 6.62248 8.36327V9.64817C6.62248 9.94829 6.36952 10.1923 6.05845 10.1923H5.49374V7.8191ZM8.63178 7.8191V8.60996H9.52875C9.75504 8.60996 9.93895 8.78739 9.93895 9.00572C9.93895 9.22471 9.75504 9.40148 9.52875 9.40148H8.63178V10.1923H9.52875C9.75504 10.1923 9.93895 10.3698 9.93895 10.5881C9.93895 10.8071 9.75504 10.9839 9.52875 10.9839H8.22158C7.9946 10.9839 7.81138 10.8064 7.81138 10.5881V7.42334C7.81138 7.20502 7.9946 7.02758 8.22158 7.02758H9.52875C9.75504 7.02758 9.93895 7.20502 9.93895 7.42334C9.93895 7.64167 9.75504 7.8191 9.52875 7.8191H8.63178ZM12.0494 10.7009C12.0241 10.7826 11.9722 10.8542 11.9014 10.9051C11.8306 10.9561 11.7447 10.9837 11.6563 10.9839C11.4745 10.9839 11.3145 10.8684 11.2632 10.7009L10.2883 7.53614C10.273 7.48629 10.268 7.43401 10.2736 7.3823C10.2792 7.33058 10.2953 7.28045 10.3211 7.23475C10.3468 7.18905 10.3816 7.14869 10.4235 7.11598C10.4653 7.08326 10.5135 7.05883 10.5652 7.04407C10.7819 6.98207 11.0103 7.10146 11.0752 7.31055L11.6563 9.19832L12.2374 7.31055C12.3024 7.10146 12.5307 6.98207 12.7475 7.04407C12.7991 7.05883 12.8473 7.08326 12.8892 7.11598C12.9311 7.14869 12.9659 7.18905 12.9916 7.23475C13.0173 7.28045 13.0334 7.33058 13.039 7.3823C13.0447 7.43401 13.0397 7.48629 13.0243 7.53614L12.0494 10.7009ZM24.8135 7.02758H25.277C25.9552 7.02758 26.5076 7.55988 26.5076 8.2142C26.5076 8.43319 26.3237 8.60996 26.0974 8.60996C25.8704 8.60996 25.6872 8.43319 25.6872 8.2142C25.6872 7.99654 25.5033 7.81844 25.277 7.81844H24.8135C24.7048 7.81844 24.6005 7.8601 24.5237 7.93426C24.4468 8.00842 24.4036 8.109 24.4036 8.21387C24.4036 8.31875 24.4468 8.41933 24.5237 8.49348C24.6005 8.56764 24.7048 8.6093 24.8135 8.6093H25.277C25.9552 8.6093 26.5076 9.1416 26.5076 9.79658C26.5076 10.4516 25.9552 10.9839 25.277 10.9839H24.8135C24.1353 10.9839 23.5836 10.4516 23.5836 9.79658C23.5836 9.57825 23.7668 9.40082 23.9938 9.40082C24.2201 9.40082 24.404 9.57825 24.404 9.79658C24.404 10.0149 24.5879 10.1917 24.8135 10.1917H25.277C25.5033 10.1917 25.6872 10.0142 25.6872 9.79658C25.6872 9.57891 25.5033 9.40148 25.277 9.40148H24.8135C24.1353 9.40148 23.5836 8.86919 23.5836 8.2142C23.5836 7.55988 24.1353 7.02758 24.8135 7.02758ZM20.6001 7.42334C20.6001 7.20502 20.784 7.02758 21.0103 7.02758H22.1397C22.8179 7.02758 23.3696 7.55988 23.3696 8.2142C23.3696 8.86853 22.8179 9.40148 22.1397 9.40148H21.4205V10.5881C21.4205 10.8071 21.2365 10.9839 21.0103 10.9839C20.784 10.9839 20.6001 10.8064 20.6001 10.5881V7.42334ZM21.4205 8.60996V7.8191H22.1397C22.2484 7.8191 22.3526 7.86076 22.4295 7.93492C22.5064 8.00908 22.5495 8.10966 22.5495 8.21453C22.5495 8.31941 22.5064 8.41999 22.4295 8.49414C22.3526 8.5683 22.2484 8.60996 22.1397 8.60996H21.4205ZM18.5265 7.8191C19.0803 7.8191 19.5301 8.25378 19.5301 8.78805V9.22339C19.5301 9.75767 19.0803 10.1923 18.5265 10.1923C17.9727 10.1923 17.5222 9.75767 17.5222 9.22339V8.78805C17.5222 8.25378 17.9727 7.8191 18.5265 7.8191ZM18.5265 10.9839C17.5201 10.9839 16.7018 10.1943 16.7018 9.22339V8.78805C16.7018 7.81778 17.5201 7.02758 18.5265 7.02758C19.5322 7.02758 20.3505 7.81712 20.3505 8.78805V9.22339C20.3505 10.1943 19.5322 10.9839 18.5265 10.9839ZM23.2212 26.1487C23.9863 27.3723 24.4265 28.8042 24.4265 30.3339V30.7323C24.4265 31.2105 24.2563 31.6504 23.9719 32H30.1516C30.6206 32 31 31.6326 31 31.1808V30.8899C31 27.9929 28.56 25.6368 25.5566 25.6368C24.7479 25.6368 23.9487 25.8136 23.2212 26.1487ZM16.001 22.9965C20.1946 22.9965 23.6061 26.2879 23.6061 30.3339V30.7323C23.6061 31.4314 23.0168 32 22.2921 32H9.70924C8.98523 32 8.39523 31.4314 8.39523 30.7323V30.3339C8.39523 26.2879 11.8074 22.9965 16.001 22.9965ZM6.44473 25.6368C3.44274 25.6368 1 27.9929 1 30.8899V31.1808C1 31.6326 1.38149 32 1.8498 32H8.02947C7.74506 31.6504 7.57483 31.2105 7.57483 30.7323V30.3339C7.57483 28.8042 8.01579 27.3723 8.78013 26.1487C8.05102 25.812 7.25304 25.6371 6.44473 25.6368ZM9.71471 20.4735C9.71471 22.2129 8.24756 23.6284 6.44473 23.6284C4.6419 23.6284 3.17475 22.2129 3.17475 20.4735C3.17475 18.7341 4.6419 17.3186 6.44473 17.3186C8.24756 17.3186 9.71471 18.7341 9.71471 20.4735ZM25.5566 17.3186C27.3595 17.3186 28.828 18.7341 28.828 20.4735C28.828 22.2129 27.3595 23.6284 25.5566 23.6284C23.7538 23.6284 22.2867 22.2129 22.2867 20.4735C22.2867 18.7341 23.7538 17.3186 25.5566 17.3186Z"/>
</mask>
<path fill-rule="evenodd" clip-rule="evenodd" d="M21.4793 14.6618C20.9761 14.6618 20.479 14.6004 19.9971 14.4804C19.4009 13.0933 18.0507 12.0808 16.4427 11.9231C15.8862 11.0386 15.5936 10.0261 15.5936 8.9833C15.5936 5.41553 12.5847 2.51329 8.88679 2.51329C5.18883 2.51329 2.18069 5.41553 2.18069 8.9833C2.18069 12.187 4.60634 14.8537 7.77924 15.3649L6.62521 16.2C6.44404 16.3306 6.40712 16.5792 6.54317 16.754C6.58136 16.8032 6.6309 16.8431 6.68786 16.8706C6.74483 16.8981 6.80765 16.9124 6.87133 16.9123C6.95679 16.9123 7.04362 16.8866 7.11745 16.8332L9.13291 15.3748C9.17606 15.3437 9.21241 15.3047 9.23987 15.26C9.26732 15.2152 9.28534 15.1657 9.29288 15.1143C9.3007 15.0628 9.29784 15.0103 9.28446 14.96C9.27108 14.9096 9.24745 14.8622 9.21495 14.8207L7.70336 12.8749C7.67104 12.8334 7.63054 12.7983 7.58419 12.7718C7.53784 12.7454 7.48653 12.728 7.43321 12.7206C7.37988 12.7133 7.32558 12.7161 7.27339 12.729C7.22121 12.7419 7.17217 12.7646 7.12908 12.7958C7.08598 12.827 7.04968 12.866 7.02223 12.9107C6.99478 12.9555 6.97674 13.005 6.96912 13.0564C6.9615 13.1079 6.96446 13.1603 6.97783 13.2106C6.9912 13.261 7.01472 13.3083 7.04704 13.3498L8.01784 14.5998C5.18336 14.1928 3.00109 11.8295 3.00109 8.9833C3.00109 5.85218 5.64142 3.30415 8.88679 3.30415C12.1322 3.30415 14.7732 5.85152 14.7732 8.9833C14.7732 10.0156 15.0254 11.0215 15.5074 11.9297C13.3539 12.1665 11.6755 13.9349 11.6755 16.0746C11.6755 18.3753 13.6157 20.2479 16.001 20.2479C18.3857 20.2479 20.3259 18.376 20.3259 16.0746C20.3259 15.826 20.302 15.5832 20.2589 15.3464C20.6615 15.418 21.0699 15.454 21.4793 15.454C25.1772 15.454 28.186 12.5511 28.186 8.98396C28.186 5.76643 25.7392 3.09044 22.5465 2.59574L23.706 1.70528C23.8837 1.5694 23.9124 1.32007 23.7716 1.14924C23.6308 0.978403 23.3723 0.95004 23.1953 1.08592L21.2236 2.5997C21.1814 2.63194 21.1463 2.67191 21.1203 2.71731C21.0942 2.7627 21.0777 2.81263 21.0718 2.8642C21.0595 2.96841 21.0902 3.07329 21.1579 3.15508L22.7269 5.05736C22.7654 5.10402 22.8142 5.14172 22.8699 5.16764C22.9255 5.19357 22.9865 5.20705 23.0483 5.20709C23.1378 5.20709 23.2281 5.17873 23.3033 5.12134C23.481 4.98481 23.5104 4.73614 23.3689 4.5653L22.3851 3.37275C25.2018 3.79489 27.3649 6.14966 27.3649 8.98396C27.3649 12.1144 24.7246 14.6618 21.4793 14.6618ZM7.44288 8.36327V9.64817C7.44288 10.3849 6.82211 10.9845 6.05845 10.9845H5.08354C4.85725 10.9845 4.67334 10.8071 4.67334 10.5888V7.424C4.67334 7.20568 4.85725 7.02824 5.08354 7.02824H6.05845C6.82211 7.02758 7.44288 7.62716 7.44288 8.36327ZM5.49374 7.8191H6.05845C6.36952 7.8191 6.62248 8.06315 6.62248 8.36327V9.64817C6.62248 9.94829 6.36952 10.1923 6.05845 10.1923H5.49374V7.8191ZM8.63178 7.8191V8.60996H9.52875C9.75504 8.60996 9.93895 8.78739 9.93895 9.00572C9.93895 9.22471 9.75504 9.40148 9.52875 9.40148H8.63178V10.1923H9.52875C9.75504 10.1923 9.93895 10.3698 9.93895 10.5881C9.93895 10.8071 9.75504 10.9839 9.52875 10.9839H8.22158C7.9946 10.9839 7.81138 10.8064 7.81138 10.5881V7.42334C7.81138 7.20502 7.9946 7.02758 8.22158 7.02758H9.52875C9.75504 7.02758 9.93895 7.20502 9.93895 7.42334C9.93895 7.64167 9.75504 7.8191 9.52875 7.8191H8.63178ZM12.0494 10.7009C12.0241 10.7826 11.9722 10.8542 11.9014 10.9051C11.8306 10.9561 11.7447 10.9837 11.6563 10.9839C11.4745 10.9839 11.3145 10.8684 11.2632 10.7009L10.2883 7.53614C10.273 7.48629 10.268 7.43401 10.2736 7.3823C10.2792 7.33058 10.2953 7.28045 10.3211 7.23475C10.3468 7.18905 10.3816 7.14869 10.4235 7.11598C10.4653 7.08326 10.5135 7.05883 10.5652 7.04407C10.7819 6.98207 11.0103 7.10146 11.0752 7.31055L11.6563 9.19832L12.2374 7.31055C12.3024 7.10146 12.5307 6.98207 12.7475 7.04407C12.7991 7.05883 12.8473 7.08326 12.8892 7.11598C12.9311 7.14869 12.9659 7.18905 12.9916 7.23475C13.0173 7.28045 13.0334 7.33058 13.039 7.3823C13.0447 7.43401 13.0397 7.48629 13.0243 7.53614L12.0494 10.7009ZM24.8135 7.02758H25.277C25.9552 7.02758 26.5076 7.55988 26.5076 8.2142C26.5076 8.43319 26.3237 8.60996 26.0974 8.60996C25.8704 8.60996 25.6872 8.43319 25.6872 8.2142C25.6872 7.99654 25.5033 7.81844 25.277 7.81844H24.8135C24.7048 7.81844 24.6005 7.8601 24.5237 7.93426C24.4468 8.00842 24.4036 8.109 24.4036 8.21387C24.4036 8.31875 24.4468 8.41933 24.5237 8.49348C24.6005 8.56764 24.7048 8.6093 24.8135 8.6093H25.277C25.9552 8.6093 26.5076 9.1416 26.5076 9.79658C26.5076 10.4516 25.9552 10.9839 25.277 10.9839H24.8135C24.1353 10.9839 23.5836 10.4516 23.5836 9.79658C23.5836 9.57825 23.7668 9.40082 23.9938 9.40082C24.2201 9.40082 24.404 9.57825 24.404 9.79658C24.404 10.0149 24.5879 10.1917 24.8135 10.1917H25.277C25.5033 10.1917 25.6872 10.0142 25.6872 9.79658C25.6872 9.57891 25.5033 9.40148 25.277 9.40148H24.8135C24.1353 9.40148 23.5836 8.86919 23.5836 8.2142C23.5836 7.55988 24.1353 7.02758 24.8135 7.02758ZM20.6001 7.42334C20.6001 7.20502 20.784 7.02758 21.0103 7.02758H22.1397C22.8179 7.02758 23.3696 7.55988 23.3696 8.2142C23.3696 8.86853 22.8179 9.40148 22.1397 9.40148H21.4205V10.5881C21.4205 10.8071 21.2365 10.9839 21.0103 10.9839C20.784 10.9839 20.6001 10.8064 20.6001 10.5881V7.42334ZM21.4205 8.60996V7.8191H22.1397C22.2484 7.8191 22.3526 7.86076 22.4295 7.93492C22.5064 8.00908 22.5495 8.10966 22.5495 8.21453C22.5495 8.31941 22.5064 8.41999 22.4295 8.49414C22.3526 8.5683 22.2484 8.60996 22.1397 8.60996H21.4205ZM18.5265 7.8191C19.0803 7.8191 19.5301 8.25378 19.5301 8.78805V9.22339C19.5301 9.75767 19.0803 10.1923 18.5265 10.1923C17.9727 10.1923 17.5222 9.75767 17.5222 9.22339V8.78805C17.5222 8.25378 17.9727 7.8191 18.5265 7.8191ZM18.5265 10.9839C17.5201 10.9839 16.7018 10.1943 16.7018 9.22339V8.78805C16.7018 7.81778 17.5201 7.02758 18.5265 7.02758C19.5322 7.02758 20.3505 7.81712 20.3505 8.78805V9.22339C20.3505 10.1943 19.5322 10.9839 18.5265 10.9839ZM23.2212 26.1487C23.9863 27.3723 24.4265 28.8042 24.4265 30.3339V30.7323C24.4265 31.2105 24.2563 31.6504 23.9719 32H30.1516C30.6206 32 31 31.6326 31 31.1808V30.8899C31 27.9929 28.56 25.6368 25.5566 25.6368C24.7479 25.6368 23.9487 25.8136 23.2212 26.1487ZM16.001 22.9965C20.1946 22.9965 23.6061 26.2879 23.6061 30.3339V30.7323C23.6061 31.4314 23.0168 32 22.2921 32H9.70924C8.98523 32 8.39523 31.4314 8.39523 30.7323V30.3339C8.39523 26.2879 11.8074 22.9965 16.001 22.9965ZM6.44473 25.6368C3.44274 25.6368 1 27.9929 1 30.8899V31.1808C1 31.6326 1.38149 32 1.8498 32H8.02947C7.74506 31.6504 7.57483 31.2105 7.57483 30.7323V30.3339C7.57483 28.8042 8.01579 27.3723 8.78013 26.1487C8.05102 25.812 7.25304 25.6371 6.44473 25.6368ZM9.71471 20.4735C9.71471 22.2129 8.24756 23.6284 6.44473 23.6284C4.6419 23.6284 3.17475 22.2129 3.17475 20.4735C3.17475 18.7341 4.6419 17.3186 6.44473 17.3186C8.24756 17.3186 9.71471 18.7341 9.71471 20.4735ZM25.5566 17.3186C27.3595 17.3186 28.828 18.7341 28.828 20.4735C28.828 22.2129 27.3595 23.6284 25.5566 23.6284C23.7538 23.6284 22.2867 22.2129 22.2867 20.4735C22.2867 18.7341 23.7538 17.3186 25.5566 17.3186Z" fill="black"/>
<path fill-rule="evenodd" clip-rule="evenodd" d="M21.4793 14.6618C20.9761 14.6618 20.479 14.6004 19.9971 14.4804C19.4009 13.0933 18.0507 12.0808 16.4427 11.9231C15.8862 11.0386 15.5936 10.0261 15.5936 8.9833C15.5936 5.41553 12.5847 2.51329 8.88679 2.51329C5.18883 2.51329 2.18069 5.41553 2.18069 8.9833C2.18069 12.187 4.60634 14.8537 7.77924 15.3649L6.62521 16.2C6.44404 16.3306 6.40712 16.5792 6.54317 16.754C6.58136 16.8032 6.6309 16.8431 6.68786 16.8706C6.74483 16.8981 6.80765 16.9124 6.87133 16.9123C6.95679 16.9123 7.04362 16.8866 7.11745 16.8332L9.13291 15.3748C9.17606 15.3437 9.21241 15.3047 9.23987 15.26C9.26732 15.2152 9.28534 15.1657 9.29288 15.1143C9.3007 15.0628 9.29784 15.0103 9.28446 14.96C9.27108 14.9096 9.24745 14.8622 9.21495 14.8207L7.70336 12.8749C7.67104 12.8334 7.63054 12.7983 7.58419 12.7718C7.53784 12.7454 7.48653 12.728 7.43321 12.7206C7.37988 12.7133 7.32558 12.7161 7.27339 12.729C7.22121 12.7419 7.17217 12.7646 7.12908 12.7958C7.08598 12.827 7.04968 12.866 7.02223 12.9107C6.99478 12.9555 6.97674 13.005 6.96912 13.0564C6.9615 13.1079 6.96446 13.1603 6.97783 13.2106C6.9912 13.261 7.01472 13.3083 7.04704 13.3498L8.01784 14.5998C5.18336 14.1928 3.00109 11.8295 3.00109 8.9833C3.00109 5.85218 5.64142 3.30415 8.88679 3.30415C12.1322 3.30415 14.7732 5.85152 14.7732 8.9833C14.7732 10.0156 15.0254 11.0215 15.5074 11.9297C13.3539 12.1665 11.6755 13.9349 11.6755 16.0746C11.6755 18.3753 13.6157 20.2479 16.001 20.2479C18.3857 20.2479 20.3259 18.376 20.3259 16.0746C20.3259 15.826 20.302 15.5832 20.2589 15.3464C20.6615 15.418 21.0699 15.454 21.4793 15.454C25.1772 15.454 28.186 12.5511 28.186 8.98396C28.186 5.76643 25.7392 3.09044 22.5465 2.59574L23.706 1.70528C23.8837 1.5694 23.9124 1.32007 23.7716 1.14924C23.6308 0.978403 23.3723 0.95004 23.1953 1.08592L21.2236 2.5997C21.1814 2.63194 21.1463 2.67191 21.1203 2.71731C21.0942 2.7627 21.0777 2.81263 21.0718 2.8642C21.0595 2.96841 21.0902 3.07329 21.1579 3.15508L22.7269 5.05736C22.7654 5.10402 22.8142 5.14172 22.8699 5.16764C22.9255 5.19357 22.9865 5.20705 23.0483 5.20709C23.1378 5.20709 23.2281 5.17873 23.3033 5.12134C23.481 4.98481 23.5104 4.73614 23.3689 4.5653L22.3851 3.37275C25.2018 3.79489 27.3649 6.14966 27.3649 8.98396C27.3649 12.1144 24.7246 14.6618 21.4793 14.6618ZM7.44288 8.36327V9.64817C7.44288 10.3849 6.82211 10.9845 6.05845 10.9845H5.08354C4.85725 10.9845 4.67334 10.8071 4.67334 10.5888V7.424C4.67334 7.20568 4.85725 7.02824 5.08354 7.02824H6.05845C6.82211 7.02758 7.44288 7.62716 7.44288 8.36327ZM5.49374 7.8191H6.05845C6.36952 7.8191 6.62248 8.06315 6.62248 8.36327V9.64817C6.62248 9.94829 6.36952 10.1923 6.05845 10.1923H5.49374V7.8191ZM8.63178 7.8191V8.60996H9.52875C9.75504 8.60996 9.93895 8.78739 9.93895 9.00572C9.93895 9.22471 9.75504 9.40148 9.52875 9.40148H8.63178V10.1923H9.52875C9.75504 10.1923 9.93895 10.3698 9.93895 10.5881C9.93895 10.8071 9.75504 10.9839 9.52875 10.9839H8.22158C7.9946 10.9839 7.81138 10.8064 7.81138 10.5881V7.42334C7.81138 7.20502 7.9946 7.02758 8.22158 7.02758H9.52875C9.75504 7.02758 9.93895 7.20502 9.93895 7.42334C9.93895 7.64167 9.75504 7.8191 9.52875 7.8191H8.63178ZM12.0494 10.7009C12.0241 10.7826 11.9722 10.8542 11.9014 10.9051C11.8306 10.9561 11.7447 10.9837 11.6563 10.9839C11.4745 10.9839 11.3145 10.8684 11.2632 10.7009L10.2883 7.53614C10.273 7.48629 10.268 7.43401 10.2736 7.3823C10.2792 7.33058 10.2953 7.28045 10.3211 7.23475C10.3468 7.18905 10.3816 7.14869 10.4235 7.11598C10.4653 7.08326 10.5135 7.05883 10.5652 7.04407C10.7819 6.98207 11.0103 7.10146 11.0752 7.31055L11.6563 9.19832L12.2374 7.31055C12.3024 7.10146 12.5307 6.98207 12.7475 7.04407C12.7991 7.05883 12.8473 7.08326 12.8892 7.11598C12.9311 7.14869 12.9659 7.18905 12.9916 7.23475C13.0173 7.28045 13.0334 7.33058 13.039 7.3823C13.0447 7.43401 13.0397 7.48629 13.0243 7.53614L12.0494 10.7009ZM24.8135 7.02758H25.277C25.9552 7.02758 26.5076 7.55988 26.5076 8.2142C26.5076 8.43319 26.3237 8.60996 26.0974 8.60996C25.8704 8.60996 25.6872 8.43319 25.6872 8.2142C25.6872 7.99654 25.5033 7.81844 25.277 7.81844H24.8135C24.7048 7.81844 24.6005 7.8601 24.5237 7.93426C24.4468 8.00842 24.4036 8.109 24.4036 8.21387C24.4036 8.31875 24.4468 8.41933 24.5237 8.49348C24.6005 8.56764 24.7048 8.6093 24.8135 8.6093H25.277C25.9552 8.6093 26.5076 9.1416 26.5076 9.79658C26.5076 10.4516 25.9552 10.9839 25.277 10.9839H24.8135C24.1353 10.9839 23.5836 10.4516 23.5836 9.79658C23.5836 9.57825 23.7668 9.40082 23.9938 9.40082C24.2201 9.40082 24.404 9.57825 24.404 9.79658C24.404 10.0149 24.5879 10.1917 24.8135 10.1917H25.277C25.5033 10.1917 25.6872 10.0142 25.6872 9.79658C25.6872 9.57891 25.5033 9.40148 25.277 9.40148H24.8135C24.1353 9.40148 23.5836 8.86919 23.5836 8.2142C23.5836 7.55988 24.1353 7.02758 24.8135 7.02758ZM20.6001 7.42334C20.6001 7.20502 20.784 7.02758 21.0103 7.02758H22.1397C22.8179 7.02758 23.3696 7.55988 23.3696 8.2142C23.3696 8.86853 22.8179 9.40148 22.1397 9.40148H21.4205V10.5881C21.4205 10.8071 21.2365 10.9839 21.0103 10.9839C20.784 10.9839 20.6001 10.8064 20.6001 10.5881V7.42334ZM21.4205 8.60996V7.8191H22.1397C22.2484 7.8191 22.3526 7.86076 22.4295 7.93492C22.5064 8.00908 22.5495 8.10966 22.5495 8.21453C22.5495 8.31941 22.5064 8.41999 22.4295 8.49414C22.3526 8.5683 22.2484 8.60996 22.1397 8.60996H21.4205ZM18.5265 7.8191C19.0803 7.8191 19.5301 8.25378 19.5301 8.78805V9.22339C19.5301 9.75767 19.0803 10.1923 18.5265 10.1923C17.9727 10.1923 17.5222 9.75767 17.5222 9.22339V8.78805C17.5222 8.25378 17.9727 7.8191 18.5265 7.8191ZM18.5265 10.9839C17.5201 10.9839 16.7018 10.1943 16.7018 9.22339V8.78805C16.7018 7.81778 17.5201 7.02758 18.5265 7.02758C19.5322 7.02758 20.3505 7.81712 20.3505 8.78805V9.22339C20.3505 10.1943 19.5322 10.9839 18.5265 10.9839ZM23.2212 26.1487C23.9863 27.3723 24.4265 28.8042 24.4265 30.3339V30.7323C24.4265 31.2105 24.2563 31.6504 23.9719 32H30.1516C30.6206 32 31 31.6326 31 31.1808V30.8899C31 27.9929 28.56 25.6368 25.5566 25.6368C24.7479 25.6368 23.9487 25.8136 23.2212 26.1487ZM16.001 22.9965C20.1946 22.9965 23.6061 26.2879 23.6061 30.3339V30.7323C23.6061 31.4314 23.0168 32 22.2921 32H9.70924C8.98523 32 8.39523 31.4314 8.39523 30.7323V30.3339C8.39523 26.2879 11.8074 22.9965 16.001 22.9965ZM6.44473 25.6368C3.44274 25.6368 1 27.9929 1 30.8899V31.1808C1 31.6326 1.38149 32 1.8498 32H8.02947C7.74506 31.6504 7.57483 31.2105 7.57483 30.7323V30.3339C7.57483 28.8042 8.01579 27.3723 8.78013 26.1487C8.05102 25.812 7.25304 25.6371 6.44473 25.6368ZM9.71471 20.4735C9.71471 22.2129 8.24756 23.6284 6.44473 23.6284C4.6419 23.6284 3.17475 22.2129 3.17475 20.4735C3.17475 18.7341 4.6419 17.3186 6.44473 17.3186C8.24756 17.3186 9.71471 18.7341 9.71471 20.4735ZM25.5566 17.3186C27.3595 17.3186 28.828 18.7341 28.828 20.4735C28.828 22.2129 27.3595 23.6284 25.5566 23.6284C23.7538 23.6284 22.2867 22.2129 22.2867 20.4735C22.2867 18.7341 23.7538 17.3186 25.5566 17.3186Z" fill="url(#paint0_linear_4408_62)"/>
<path fill-rule="evenodd" clip-rule="evenodd" d="M21.4793 14.6618C20.9761 14.6618 20.479 14.6004 19.9971 14.4804C19.4009 13.0933 18.0507 12.0808 16.4427 11.9231C15.8862 11.0386 15.5936 10.0261 15.5936 8.9833C15.5936 5.41553 12.5847 2.51329 8.88679 2.51329C5.18883 2.51329 2.18069 5.41553 2.18069 8.9833C2.18069 12.187 4.60634 14.8537 7.77924 15.3649L6.62521 16.2C6.44404 16.3306 6.40712 16.5792 6.54317 16.754C6.58136 16.8032 6.6309 16.8431 6.68786 16.8706C6.74483 16.8981 6.80765 16.9124 6.87133 16.9123C6.95679 16.9123 7.04362 16.8866 7.11745 16.8332L9.13291 15.3748C9.17606 15.3437 9.21241 15.3047 9.23987 15.26C9.26732 15.2152 9.28534 15.1657 9.29288 15.1143C9.3007 15.0628 9.29784 15.0103 9.28446 14.96C9.27108 14.9096 9.24745 14.8622 9.21495 14.8207L7.70336 12.8749C7.67104 12.8334 7.63054 12.7983 7.58419 12.7718C7.53784 12.7454 7.48653 12.728 7.43321 12.7206C7.37988 12.7133 7.32558 12.7161 7.27339 12.729C7.22121 12.7419 7.17217 12.7646 7.12908 12.7958C7.08598 12.827 7.04968 12.866 7.02223 12.9107C6.99478 12.9555 6.97674 13.005 6.96912 13.0564C6.9615 13.1079 6.96446 13.1603 6.97783 13.2106C6.9912 13.261 7.01472 13.3083 7.04704 13.3498L8.01784 14.5998C5.18336 14.1928 3.00109 11.8295 3.00109 8.9833C3.00109 5.85218 5.64142 3.30415 8.88679 3.30415C12.1322 3.30415 14.7732 5.85152 14.7732 8.9833C14.7732 10.0156 15.0254 11.0215 15.5074 11.9297C13.3539 12.1665 11.6755 13.9349 11.6755 16.0746C11.6755 18.3753 13.6157 20.2479 16.001 20.2479C18.3857 20.2479 20.3259 18.376 20.3259 16.0746C20.3259 15.826 20.302 15.5832 20.2589 15.3464C20.6615 15.418 21.0699 15.454 21.4793 15.454C25.1772 15.454 28.186 12.5511 28.186 8.98396C28.186 5.76643 25.7392 3.09044 22.5465 2.59574L23.706 1.70528C23.8837 1.5694 23.9124 1.32007 23.7716 1.14924C23.6308 0.978403 23.3723 0.95004 23.1953 1.08592L21.2236 2.5997C21.1814 2.63194 21.1463 2.67191 21.1203 2.71731C21.0942 2.7627 21.0777 2.81263 21.0718 2.8642C21.0595 2.96841 21.0902 3.07329 21.1579 3.15508L22.7269 5.05736C22.7654 5.10402 22.8142 5.14172 22.8699 5.16764C22.9255 5.19357 22.9865 5.20705 23.0483 5.20709C23.1378 5.20709 23.2281 5.17873 23.3033 5.12134C23.481 4.98481 23.5104 4.73614 23.3689 4.5653L22.3851 3.37275C25.2018 3.79489 27.3649 6.14966 27.3649 8.98396C27.3649 12.1144 24.7246 14.6618 21.4793 14.6618ZM7.44288 8.36327V9.64817C7.44288 10.3849 6.82211 10.9845 6.05845 10.9845H5.08354C4.85725 10.9845 4.67334 10.8071 4.67334 10.5888V7.424C4.67334 7.20568 4.85725 7.02824 5.08354 7.02824H6.05845C6.82211 7.02758 7.44288 7.62716 7.44288 8.36327ZM5.49374 7.8191H6.05845C6.36952 7.8191 6.62248 8.06315 6.62248 8.36327V9.64817C6.62248 9.94829 6.36952 10.1923 6.05845 10.1923H5.49374V7.8191ZM8.63178 7.8191V8.60996H9.52875C9.75504 8.60996 9.93895 8.78739 9.93895 9.00572C9.93895 9.22471 9.75504 9.40148 9.52875 9.40148H8.63178V10.1923H9.52875C9.75504 10.1923 9.93895 10.3698 9.93895 10.5881C9.93895 10.8071 9.75504 10.9839 9.52875 10.9839H8.22158C7.9946 10.9839 7.81138 10.8064 7.81138 10.5881V7.42334C7.81138 7.20502 7.9946 7.02758 8.22158 7.02758H9.52875C9.75504 7.02758 9.93895 7.20502 9.93895 7.42334C9.93895 7.64167 9.75504 7.8191 9.52875 7.8191H8.63178ZM12.0494 10.7009C12.0241 10.7826 11.9722 10.8542 11.9014 10.9051C11.8306 10.9561 11.7447 10.9837 11.6563 10.9839C11.4745 10.9839 11.3145 10.8684 11.2632 10.7009L10.2883 7.53614C10.273 7.48629 10.268 7.43401 10.2736 7.3823C10.2792 7.33058 10.2953 7.28045 10.3211 7.23475C10.3468 7.18905 10.3816 7.14869 10.4235 7.11598C10.4653 7.08326 10.5135 7.05883 10.5652 7.04407C10.7819 6.98207 11.0103 7.10146 11.0752 7.31055L11.6563 9.19832L12.2374 7.31055C12.3024 7.10146 12.5307 6.98207 12.7475 7.04407C12.7991 7.05883 12.8473 7.08326 12.8892 7.11598C12.9311 7.14869 12.9659 7.18905 12.9916 7.23475C13.0173 7.28045 13.0334 7.33058 13.039 7.3823C13.0447 7.43401 13.0397 7.48629 13.0243 7.53614L12.0494 10.7009ZM24.8135 7.02758H25.277C25.9552 7.02758 26.5076 7.55988 26.5076 8.2142C26.5076 8.43319 26.3237 8.60996 26.0974 8.60996C25.8704 8.60996 25.6872 8.43319 25.6872 8.2142C25.6872 7.99654 25.5033 7.81844 25.277 7.81844H24.8135C24.7048 7.81844 24.6005 7.8601 24.5237 7.93426C24.4468 8.00842 24.4036 8.109 24.4036 8.21387C24.4036 8.31875 24.4468 8.41933 24.5237 8.49348C24.6005 8.56764 24.7048 8.6093 24.8135 8.6093H25.277C25.9552 8.6093 26.5076 9.1416 26.5076 9.79658C26.5076 10.4516 25.9552 10.9839 25.277 10.9839H24.8135C24.1353 10.9839 23.5836 10.4516 23.5836 9.79658C23.5836 9.57825 23.7668 9.40082 23.9938 9.40082C24.2201 9.40082 24.404 9.57825 24.404 9.79658C24.404 10.0149 24.5879 10.1917 24.8135 10.1917H25.277C25.5033 10.1917 25.6872 10.0142 25.6872 9.79658C25.6872 9.57891 25.5033 9.40148 25.277 9.40148H24.8135C24.1353 9.40148 23.5836 8.86919 23.5836 8.2142C23.5836 7.55988 24.1353 7.02758 24.8135 7.02758ZM20.6001 7.42334C20.6001 7.20502 20.784 7.02758 21.0103 7.02758H22.1397C22.8179 7.02758 23.3696 7.55988 23.3696 8.2142C23.3696 8.86853 22.8179 9.40148 22.1397 9.40148H21.4205V10.5881C21.4205 10.8071 21.2365 10.9839 21.0103 10.9839C20.784 10.9839 20.6001 10.8064 20.6001 10.5881V7.42334ZM21.4205 8.60996V7.8191H22.1397C22.2484 7.8191 22.3526 7.86076 22.4295 7.93492C22.5064 8.00908 22.5495 8.10966 22.5495 8.21453C22.5495 8.31941 22.5064 8.41999 22.4295 8.49414C22.3526 8.5683 22.2484 8.60996 22.1397 8.60996H21.4205ZM18.5265 7.8191C19.0803 7.8191 19.5301 8.25378 19.5301 8.78805V9.22339C19.5301 9.75767 19.0803 10.1923 18.5265 10.1923C17.9727 10.1923 17.5222 9.75767 17.5222 9.22339V8.78805C17.5222 8.25378 17.9727 7.8191 18.5265 7.8191ZM18.5265 10.9839C17.5201 10.9839 16.7018 10.1943 16.7018 9.22339V8.78805C16.7018 7.81778 17.5201 7.02758 18.5265 7.02758C19.5322 7.02758 20.3505 7.81712 20.3505 8.78805V9.22339C20.3505 10.1943 19.5322 10.9839 18.5265 10.9839ZM23.2212 26.1487C23.9863 27.3723 24.4265 28.8042 24.4265 30.3339V30.7323C24.4265 31.2105 24.2563 31.6504 23.9719 32H30.1516C30.6206 32 31 31.6326 31 31.1808V30.8899C31 27.9929 28.56 25.6368 25.5566 25.6368C24.7479 25.6368 23.9487 25.8136 23.2212 26.1487ZM16.001 22.9965C20.1946 22.9965 23.6061 26.2879 23.6061 30.3339V30.7323C23.6061 31.4314 23.0168 32 22.2921 32H9.70924C8.98523 32 8.39523 31.4314 8.39523 30.7323V30.3339C8.39523 26.2879 11.8074 22.9965 16.001 22.9965ZM6.44473 25.6368C3.44274 25.6368 1 27.9929 1 30.8899V31.1808C1 31.6326 1.38149 32 1.8498 32H8.02947C7.74506 31.6504 7.57483 31.2105 7.57483 30.7323V30.3339C7.57483 28.8042 8.01579 27.3723 8.78013 26.1487C8.05102 25.812 7.25304 25.6371 6.44473 25.6368ZM9.71471 20.4735C9.71471 22.2129 8.24756 23.6284 6.44473 23.6284C4.6419 23.6284 3.17475 22.2129 3.17475 20.4735C3.17475 18.7341 4.6419 17.3186 6.44473 17.3186C8.24756 17.3186 9.71471 18.7341 9.71471 20.4735ZM25.5566 17.3186C27.3595 17.3186 28.828 18.7341 28.828 20.4735C28.828 22.2129 27.3595 23.6284 25.5566 23.6284C23.7538 23.6284 22.2867 22.2129 22.2867 20.4735C22.2867 18.7341 23.7538 17.3186 25.5566 17.3186Z" stroke="white" mask="url(#path-1-outside-1_4408_62)"/>
<defs>
<linearGradient id="paint0_linear_4408_62" x1="31.3223" y1="16.3481" x2="0.325889" y2="16.6869" gradientUnits="userSpaceOnUse">
<stop stop-color="#FF7223"/>
<stop offset="1" stop-color="#FF6827"/>
</linearGradient>
</defs>
</svg>
