<svg width="73" height="64" viewBox="0 0 73 64" fill="none" xmlns="http://www.w3.org/2000/svg">
<mask id="path-1-outside-1_3154_97" maskUnits="userSpaceOnUse" x="0" y="0" width="73" height="64" fill="black">
<rect fill="white" width="73" height="64"/>
<path d="M40.6171 22.8599C39.9762 22.9867 39.5109 23.5527 39.5109 24.206V26.4305C39.5109 27.0841 39.9764 27.6504 40.6177 27.7767L41.3148 27.9143L41.7869 29.0538L41.3909 29.644C41.0272 30.1867 41.0983 30.9158 41.5604 31.3784L43.1333 32.9511C43.3583 33.1754 43.6541 33.3148 43.9703 33.3457C44.2864 33.3766 44.6035 33.297 44.8677 33.1205L45.4579 32.7246L46.5974 33.1967L46.7348 33.8945C46.8617 34.5355 47.4277 35.0006 48.081 35.0006H50.3055C50.9591 35.0006 51.5253 34.5352 51.6517 33.8939L51.7892 33.1968L52.9287 32.7246L53.5188 33.1203C54.0616 33.4843 54.7912 33.4134 55.2534 32.9511L56.8262 31.3783C57.2887 30.9159 57.3598 30.1864 56.9955 29.6438L56.5998 29.0536L57.0719 27.9141L57.7689 27.7767C58.0805 27.7147 58.361 27.5467 58.5628 27.3013C58.7646 27.0558 58.8751 26.7481 58.8757 26.4304V24.2059C58.8757 23.5527 58.4106 22.9866 57.7689 22.8596L57.0719 22.7223L56.5998 21.5827L56.9953 20.9929C57.3599 20.4497 57.2887 19.7201 56.8262 19.2581L55.2534 17.6853C55.0284 17.461 54.7327 17.3215 54.4165 17.2906C54.1003 17.2597 53.7832 17.3393 53.519 17.5158L52.9288 17.9115L51.7892 17.4394L51.6518 16.7425C51.5898 16.4309 51.4218 16.1503 51.1763 15.9486C50.9309 15.7468 50.6232 15.6363 50.3055 15.6357H48.081C47.4278 15.6357 46.8617 16.1008 46.7347 16.7425L46.5974 17.4394L45.4578 17.9115L44.8675 17.5157C44.325 17.1521 43.5954 17.2232 43.1333 17.6851L41.5604 19.2581C41.0983 19.7202 41.0271 20.4495 41.391 20.9925L41.7869 21.5827L41.3148 22.7222L40.6171 22.8596V22.8599ZM41.4272 24.6535L42.1887 24.5033C42.3436 24.4728 42.4885 24.4045 42.6106 24.3045C42.7327 24.2044 42.8282 24.0758 42.8886 23.9299L43.7534 21.8422C43.8138 21.6964 43.8372 21.5379 43.8216 21.3809C43.806 21.2238 43.7519 21.073 43.664 20.942L43.2316 20.297L44.1721 19.3567L44.8169 19.789C44.9479 19.8771 45.0987 19.9313 45.2558 19.9469C45.4129 19.9625 45.5714 19.939 45.7171 19.8784L47.805 19.0135C47.9508 18.9531 48.0794 18.8576 48.1794 18.7355C48.2795 18.6134 48.3477 18.4685 48.3783 18.3137L48.5283 17.5522H49.8583L50.0086 18.3138C50.0391 18.4686 50.1074 18.6135 50.2074 18.7356C50.3074 18.8577 50.436 18.9531 50.5818 19.0135L52.6696 19.8784C52.8154 19.9389 52.9739 19.9624 53.131 19.9468C53.2881 19.9312 53.4389 19.877 53.57 19.789L54.2148 19.3567L55.1551 20.297L54.7227 20.942C54.6348 21.073 54.5806 21.2238 54.565 21.3808C54.5494 21.5379 54.5729 21.6964 54.6334 21.8422L55.4983 23.9301C55.5587 24.0759 55.6542 24.2045 55.7763 24.3045C55.8984 24.4045 56.0433 24.4728 56.1981 24.5033L56.9596 24.6533V25.9834L56.198 26.1336C56.0431 26.1641 55.8982 26.2324 55.7762 26.3324C55.6541 26.4324 55.5586 26.5611 55.4983 26.7069L54.6334 28.7945C54.573 28.9403 54.5495 29.0988 54.5651 29.2559C54.5807 29.413 54.6349 29.5638 54.7227 29.6949L55.1553 30.34L54.2149 31.2802L53.5698 30.8478C53.4388 30.7598 53.288 30.7056 53.1309 30.69C52.9738 30.6744 52.8153 30.6979 52.6695 30.7584L50.5818 31.6233C50.436 31.6837 50.3074 31.7792 50.2074 31.9013C50.1074 32.0233 50.0391 32.1682 50.0086 32.323L49.8583 33.0846H48.5283L48.3783 32.323C48.3478 32.1682 48.2794 32.0232 48.1794 31.9011C48.0794 31.779 47.9507 31.6836 47.8049 31.6232L45.7171 30.7584C45.5713 30.6979 45.4129 30.6745 45.2558 30.6901C45.0987 30.7057 44.948 30.7598 44.8169 30.8478L44.1719 31.2802L43.2316 30.34L43.664 29.6949C43.7519 29.5638 43.8061 29.413 43.8217 29.256C43.8373 29.0989 43.8138 28.9404 43.7534 28.7946L42.8886 26.707C42.8282 26.5612 42.7328 26.4326 42.6107 26.3326C42.4886 26.2326 42.3437 26.1643 42.1889 26.1338L41.4272 25.9835V24.6536V24.6535ZM49.1934 30.7506C52.1888 30.7506 54.6257 28.3137 54.6257 25.3183C54.6257 22.3229 52.1888 19.886 49.1934 19.886C46.198 19.886 43.7612 22.3229 43.7612 25.3183C43.7612 28.3137 46.1981 30.7506 49.1934 30.7506ZM49.1934 21.8024C51.1321 21.8024 52.7094 23.3796 52.7094 25.3184C52.7094 27.2573 51.1322 28.8345 49.1934 28.8345C47.2545 28.8345 45.6774 27.2573 45.6774 25.3184C45.6774 23.3796 47.2545 21.8024 49.1934 21.8024ZM32.3676 27.7768C32.6793 27.7148 32.9598 27.5468 33.1615 27.3014C33.3633 27.056 33.4739 26.7482 33.4744 26.4305V24.206C33.4744 23.5529 33.0092 22.9867 32.3675 22.8597L31.6705 22.7224L31.1985 21.5829L31.5944 20.9926C31.7708 20.7284 31.8503 20.4113 31.8194 20.0952C31.7886 19.779 31.6492 19.4833 31.425 19.2582L29.852 17.6855C29.3902 17.2234 28.6608 17.152 28.1177 17.5161L27.5275 17.9118L26.3878 17.4397L26.2504 16.7421C26.1235 16.1011 25.5575 15.636 24.9042 15.636H22.6797C22.0261 15.636 21.4599 16.1013 21.3336 16.7426L21.196 17.4397L20.0564 17.9118L19.4662 17.516C18.9233 17.1524 18.1939 17.2234 17.7318 17.6855L16.1592 19.258C15.6965 19.7203 15.6253 20.45 15.9897 20.9927L16.3854 21.5829L15.9133 22.7226L15.2159 22.86C14.5748 22.9867 14.1095 23.5529 14.1095 24.2062V26.4307C14.1095 27.0842 14.5749 27.6505 15.2162 27.7768L15.9133 27.9144L16.3855 29.0539L15.9899 29.6438C15.8133 29.908 15.7336 30.2251 15.7644 30.5414C15.7953 30.8577 15.9347 31.1535 16.159 31.3786L17.7318 32.9514C18.1938 33.4135 18.9232 33.4848 19.4662 33.1209L20.0564 32.7249L21.1959 33.1971L21.3333 33.8941C21.3953 34.2057 21.5633 34.4862 21.8087 34.688C22.0541 34.8897 22.3619 35.0003 22.6796 35.0009H24.9041C25.5573 35.0009 26.1234 34.5358 26.2504 33.8941L26.3877 33.1971L27.5273 32.725L28.1175 33.1209C28.6604 33.4848 29.3898 33.4135 29.8517 32.9516L31.4251 31.3783C31.6492 31.1532 31.7884 30.8574 31.8192 30.5413C31.85 30.2252 31.7704 29.9081 31.594 29.644L31.1982 29.0538L31.6703 27.9144L32.3674 27.777L32.3676 27.7768ZM31.5582 25.9832L30.7965 26.1335C30.6416 26.164 30.4967 26.2323 30.3746 26.3323C30.2526 26.4323 30.1571 26.5609 30.0967 26.7067L29.2318 28.7944C29.1714 28.9402 29.148 29.0987 29.1636 29.2558C29.1792 29.4129 29.2333 29.5637 29.3212 29.6949L29.7537 30.3398L28.8134 31.28L28.1684 30.8476C28.0374 30.7597 27.8866 30.7056 27.7295 30.69C27.5725 30.6744 27.414 30.6979 27.2682 30.7583L25.1803 31.6232C25.0345 31.6836 24.9059 31.7791 24.8059 31.9012C24.7059 32.0233 24.6376 32.1682 24.6071 32.323L24.4571 33.0845H23.127L22.9767 32.3229C22.9463 32.1681 22.878 32.0231 22.778 31.9011C22.678 31.779 22.5493 31.6835 22.4035 31.6232L20.3159 30.7583C20.1701 30.6978 20.0116 30.6743 19.8545 30.6899C19.6974 30.7055 19.5466 30.7597 19.4155 30.8476L18.7704 31.28L17.8302 30.3398L18.2626 29.6947C18.3506 29.5637 18.4047 29.4129 18.4203 29.2558C18.4359 29.0987 18.4124 28.9402 18.352 28.7944L17.4871 26.7067C17.4267 26.561 17.3312 26.4324 17.2091 26.3324C17.0871 26.2324 16.9422 26.164 16.7874 26.1335L16.0258 25.9832V24.6532L16.7872 24.5032C16.9421 24.4727 17.087 24.4044 17.2091 24.3044C17.3312 24.2044 17.4267 24.0757 17.4871 23.9299L18.352 21.842C18.4124 21.6962 18.4358 21.5378 18.4202 21.3807C18.4046 21.2237 18.3505 21.0729 18.2626 20.9418L17.8302 20.2969L18.7706 19.3565L19.4154 19.7889C19.5464 19.8769 19.6972 19.9312 19.8543 19.9468C20.0114 19.9624 20.1699 19.9388 20.3157 19.8783L22.4035 19.0134C22.5493 18.9529 22.6779 18.8575 22.7779 18.7354C22.8779 18.6133 22.9462 18.4685 22.9767 18.3137L23.127 17.5521H24.4571L24.6071 18.3135C24.6376 18.4684 24.7059 18.6133 24.8059 18.7354C24.9059 18.8575 25.0345 18.953 25.1803 19.0134L27.2682 19.8783C27.414 19.9387 27.5725 19.9622 27.7295 19.9466C27.8866 19.931 28.0374 19.8768 28.1684 19.7889L28.8133 19.3565L29.7537 20.2969L29.3212 20.9417C29.2333 21.0728 29.1791 21.2236 29.1635 21.3806C29.1479 21.5377 29.1714 21.6962 29.2318 21.842L30.0967 23.9299C30.1572 24.0757 30.2527 24.2044 30.3748 24.3044C30.4968 24.4044 30.6417 24.4727 30.7966 24.5032L31.5582 24.6533V25.9832ZM23.792 19.8861C20.7966 19.8861 18.3597 22.323 18.3597 25.3183C18.3597 28.3135 20.7966 30.7506 23.792 30.7506C26.7874 30.7506 29.2242 28.3137 29.2242 25.3183C29.2242 22.3229 26.7872 19.8861 23.792 19.8861ZM23.792 28.8342C21.8533 28.8342 20.2759 27.257 20.2759 25.3181C20.2759 23.3793 21.8531 21.8022 23.792 21.8022C25.7308 21.8022 27.3079 23.3793 27.3079 25.3181C27.3079 27.257 25.7308 28.8342 23.792 28.8342ZM10.133 25.3181C10.133 17.7867 16.2605 11.6593 23.792 11.6593C31.3234 11.6593 37.4508 17.7867 37.4508 25.3181C37.4508 31.793 42.7185 37.0607 49.1934 37.0607C55.6683 37.0607 60.9359 31.793 60.9359 25.3181C60.9359 18.8432 55.6683 13.5756 49.1934 13.5756C46.1042 13.5756 43.2161 14.7557 41.0412 16.8626L41.1203 16.8598C41.6482 16.8409 42.0933 17.2533 42.1129 17.782C42.1222 18.036 42.0303 18.2832 41.8574 18.4693C41.6844 18.6555 41.4446 18.7653 41.1907 18.7747L38.5258 18.8724C38.3856 18.8776 38.246 18.8519 38.1168 18.7971C37.9876 18.7424 37.872 18.66 37.7781 18.5556C37.6843 18.4513 37.6145 18.3276 37.5738 18.1934C37.533 18.0591 37.5222 17.9175 37.5422 17.7786L37.9173 15.1692C37.9351 15.0447 37.9774 14.9248 38.0416 14.8166C38.1058 14.7084 38.1906 14.6138 38.2914 14.5384C38.3921 14.463 38.5067 14.4082 38.6287 14.3771C38.7506 14.346 38.8775 14.3392 39.002 14.3571C39.2424 14.3917 39.4607 14.5163 39.6127 14.7056C39.7648 14.895 39.8392 15.135 39.8211 15.3771C42.3375 12.9928 45.6516 11.6595 49.1932 11.6595C56.7247 11.6595 62.8521 17.7868 62.8521 25.3183C62.8521 32.8497 56.7247 38.9771 49.1932 38.9771C41.6618 38.9771 35.5344 32.8497 35.5344 25.3183C35.5344 18.8434 30.2667 13.5757 23.7918 13.5757C17.3169 13.5757 12.0491 18.8434 12.0491 25.3183C12.0491 31.7932 17.3168 37.0608 23.7918 37.0608C26.881 37.0608 29.7691 35.8807 31.944 33.7738L31.8646 33.7766C31.337 33.7933 30.8916 33.383 30.8721 32.8542C30.8629 32.6003 30.9548 32.3531 31.1278 32.167C31.3008 31.9809 31.5406 31.8711 31.7945 31.8618L34.4594 31.7642C34.5995 31.7596 34.7389 31.7856 34.868 31.8403C34.997 31.895 35.1127 31.9771 35.2069 32.0809C35.3007 32.1852 35.3704 32.3089 35.4112 32.4431C35.452 32.5774 35.4628 32.7189 35.4428 32.8578L35.0679 35.4671C34.9928 35.9907 34.5061 36.3555 33.9833 36.2793C33.7429 36.2447 33.5246 36.1202 33.3725 35.9309C33.2205 35.7415 33.146 35.5015 33.1641 35.2593C30.6477 37.6437 27.3336 38.977 23.792 38.977C16.2605 38.977 10.133 32.8496 10.133 25.3181ZM67.6511 2H5.33415C3.49564 2 2 3.49591 2 5.33443V47.5162C2 49.3549 3.49578 50.8505 5.33415 50.8505H30.3345V55.2497H25.9026C23.2294 55.2497 21.0545 57.4247 21.0545 60.0978V61.0419C21.0545 61.296 21.1554 61.5397 21.3351 61.7194C21.5148 61.8991 21.7585 62 22.0126 62H50.9725C51.2266 62 51.4703 61.8991 51.65 61.7194C51.8297 61.5397 51.9306 61.296 51.9306 61.0419V60.0978C51.9306 57.4247 49.7555 55.2497 47.0822 55.2497H42.6506V50.8505H67.6508C69.4894 50.8505 70.9851 49.3547 70.9851 47.5162V5.33429C70.9851 3.49564 69.4893 2 67.6508 2H67.6511ZM50.0145 60.0837H22.9709C22.9784 58.4734 24.2908 57.166 25.9027 57.166H47.0823C48.6945 57.166 50.007 58.4735 50.0145 60.0837ZM40.7344 55.2497H32.2509V50.8505H40.7344V55.2497ZM69.0691 47.5162C69.0691 48.2982 68.433 48.9343 67.6511 48.9343H5.33415C4.55232 48.9343 3.91626 48.2982 3.91626 47.5162V5.33443C3.91626 4.55232 4.55232 3.91626 5.33415 3.91626H67.6509C68.4329 3.91626 69.0689 4.55232 69.0689 5.33429V47.5162H69.0691ZM65.9673 6.05987H7.01786C6.76375 6.05987 6.52005 6.16082 6.34036 6.3405C6.16068 6.52018 6.05973 6.76389 6.05973 7.018V43.6186C6.05973 43.8727 6.16068 44.1164 6.34036 44.2961C6.52005 44.4757 6.76375 44.5767 7.01786 44.5767H65.9673C66.2215 44.5767 66.4652 44.4757 66.6448 44.2961C66.8245 44.1164 66.9255 43.8727 66.9255 43.6186V7.018C66.9255 6.76389 66.8245 6.52018 66.6448 6.3405C66.4652 6.16082 66.2215 6.05987 65.9673 6.05987ZM65.0092 42.6604H7.97599V7.97613H65.0092V42.6604Z"/>
</mask>
<path d="M40.6171 22.8599C39.9762 22.9867 39.5109 23.5527 39.5109 24.206V26.4305C39.5109 27.0841 39.9764 27.6504 40.6177 27.7767L41.3148 27.9143L41.7869 29.0538L41.3909 29.644C41.0272 30.1867 41.0983 30.9158 41.5604 31.3784L43.1333 32.9511C43.3583 33.1754 43.6541 33.3148 43.9703 33.3457C44.2864 33.3766 44.6035 33.297 44.8677 33.1205L45.4579 32.7246L46.5974 33.1967L46.7348 33.8945C46.8617 34.5355 47.4277 35.0006 48.081 35.0006H50.3055C50.9591 35.0006 51.5253 34.5352 51.6517 33.8939L51.7892 33.1968L52.9287 32.7246L53.5188 33.1203C54.0616 33.4843 54.7912 33.4134 55.2534 32.9511L56.8262 31.3783C57.2887 30.9159 57.3598 30.1864 56.9955 29.6438L56.5998 29.0536L57.0719 27.9141L57.7689 27.7767C58.0805 27.7147 58.361 27.5467 58.5628 27.3013C58.7646 27.0558 58.8751 26.7481 58.8757 26.4304V24.2059C58.8757 23.5527 58.4106 22.9866 57.7689 22.8596L57.0719 22.7223L56.5998 21.5827L56.9953 20.9929C57.3599 20.4497 57.2887 19.7201 56.8262 19.2581L55.2534 17.6853C55.0284 17.461 54.7327 17.3215 54.4165 17.2906C54.1003 17.2597 53.7832 17.3393 53.519 17.5158L52.9288 17.9115L51.7892 17.4394L51.6518 16.7425C51.5898 16.4309 51.4218 16.1503 51.1763 15.9486C50.9309 15.7468 50.6232 15.6363 50.3055 15.6357H48.081C47.4278 15.6357 46.8617 16.1008 46.7347 16.7425L46.5974 17.4394L45.4578 17.9115L44.8675 17.5157C44.325 17.1521 43.5954 17.2232 43.1333 17.6851L41.5604 19.2581C41.0983 19.7202 41.0271 20.4495 41.391 20.9925L41.7869 21.5827L41.3148 22.7222L40.6171 22.8596V22.8599ZM41.4272 24.6535L42.1887 24.5033C42.3436 24.4728 42.4885 24.4045 42.6106 24.3045C42.7327 24.2044 42.8282 24.0758 42.8886 23.9299L43.7534 21.8422C43.8138 21.6964 43.8372 21.5379 43.8216 21.3809C43.806 21.2238 43.7519 21.073 43.664 20.942L43.2316 20.297L44.1721 19.3567L44.8169 19.789C44.9479 19.8771 45.0987 19.9313 45.2558 19.9469C45.4129 19.9625 45.5714 19.939 45.7171 19.8784L47.805 19.0135C47.9508 18.9531 48.0794 18.8576 48.1794 18.7355C48.2795 18.6134 48.3477 18.4685 48.3783 18.3137L48.5283 17.5522H49.8583L50.0086 18.3138C50.0391 18.4686 50.1074 18.6135 50.2074 18.7356C50.3074 18.8577 50.436 18.9531 50.5818 19.0135L52.6696 19.8784C52.8154 19.9389 52.9739 19.9624 53.131 19.9468C53.2881 19.9312 53.4389 19.877 53.57 19.789L54.2148 19.3567L55.1551 20.297L54.7227 20.942C54.6348 21.073 54.5806 21.2238 54.565 21.3808C54.5494 21.5379 54.5729 21.6964 54.6334 21.8422L55.4983 23.9301C55.5587 24.0759 55.6542 24.2045 55.7763 24.3045C55.8984 24.4045 56.0433 24.4728 56.1981 24.5033L56.9596 24.6533V25.9834L56.198 26.1336C56.0431 26.1641 55.8982 26.2324 55.7762 26.3324C55.6541 26.4324 55.5586 26.5611 55.4983 26.7069L54.6334 28.7945C54.573 28.9403 54.5495 29.0988 54.5651 29.2559C54.5807 29.413 54.6349 29.5638 54.7227 29.6949L55.1553 30.34L54.2149 31.2802L53.5698 30.8478C53.4388 30.7598 53.288 30.7056 53.1309 30.69C52.9738 30.6744 52.8153 30.6979 52.6695 30.7584L50.5818 31.6233C50.436 31.6837 50.3074 31.7792 50.2074 31.9013C50.1074 32.0233 50.0391 32.1682 50.0086 32.323L49.8583 33.0846H48.5283L48.3783 32.323C48.3478 32.1682 48.2794 32.0232 48.1794 31.9011C48.0794 31.779 47.9507 31.6836 47.8049 31.6232L45.7171 30.7584C45.5713 30.6979 45.4129 30.6745 45.2558 30.6901C45.0987 30.7057 44.948 30.7598 44.8169 30.8478L44.1719 31.2802L43.2316 30.34L43.664 29.6949C43.7519 29.5638 43.8061 29.413 43.8217 29.256C43.8373 29.0989 43.8138 28.9404 43.7534 28.7946L42.8886 26.707C42.8282 26.5612 42.7328 26.4326 42.6107 26.3326C42.4886 26.2326 42.3437 26.1643 42.1889 26.1338L41.4272 25.9835V24.6536V24.6535ZM49.1934 30.7506C52.1888 30.7506 54.6257 28.3137 54.6257 25.3183C54.6257 22.3229 52.1888 19.886 49.1934 19.886C46.198 19.886 43.7612 22.3229 43.7612 25.3183C43.7612 28.3137 46.1981 30.7506 49.1934 30.7506ZM49.1934 21.8024C51.1321 21.8024 52.7094 23.3796 52.7094 25.3184C52.7094 27.2573 51.1322 28.8345 49.1934 28.8345C47.2545 28.8345 45.6774 27.2573 45.6774 25.3184C45.6774 23.3796 47.2545 21.8024 49.1934 21.8024ZM32.3676 27.7768C32.6793 27.7148 32.9598 27.5468 33.1615 27.3014C33.3633 27.056 33.4739 26.7482 33.4744 26.4305V24.206C33.4744 23.5529 33.0092 22.9867 32.3675 22.8597L31.6705 22.7224L31.1985 21.5829L31.5944 20.9926C31.7708 20.7284 31.8503 20.4113 31.8194 20.0952C31.7886 19.779 31.6492 19.4833 31.425 19.2582L29.852 17.6855C29.3902 17.2234 28.6608 17.152 28.1177 17.5161L27.5275 17.9118L26.3878 17.4397L26.2504 16.7421C26.1235 16.1011 25.5575 15.636 24.9042 15.636H22.6797C22.0261 15.636 21.4599 16.1013 21.3336 16.7426L21.196 17.4397L20.0564 17.9118L19.4662 17.516C18.9233 17.1524 18.1939 17.2234 17.7318 17.6855L16.1592 19.258C15.6965 19.7203 15.6253 20.45 15.9897 20.9927L16.3854 21.5829L15.9133 22.7226L15.2159 22.86C14.5748 22.9867 14.1095 23.5529 14.1095 24.2062V26.4307C14.1095 27.0842 14.5749 27.6505 15.2162 27.7768L15.9133 27.9144L16.3855 29.0539L15.9899 29.6438C15.8133 29.908 15.7336 30.2251 15.7644 30.5414C15.7953 30.8577 15.9347 31.1535 16.159 31.3786L17.7318 32.9514C18.1938 33.4135 18.9232 33.4848 19.4662 33.1209L20.0564 32.7249L21.1959 33.1971L21.3333 33.8941C21.3953 34.2057 21.5633 34.4862 21.8087 34.688C22.0541 34.8897 22.3619 35.0003 22.6796 35.0009H24.9041C25.5573 35.0009 26.1234 34.5358 26.2504 33.8941L26.3877 33.1971L27.5273 32.725L28.1175 33.1209C28.6604 33.4848 29.3898 33.4135 29.8517 32.9516L31.4251 31.3783C31.6492 31.1532 31.7884 30.8574 31.8192 30.5413C31.85 30.2252 31.7704 29.9081 31.594 29.644L31.1982 29.0538L31.6703 27.9144L32.3674 27.777L32.3676 27.7768ZM31.5582 25.9832L30.7965 26.1335C30.6416 26.164 30.4967 26.2323 30.3746 26.3323C30.2526 26.4323 30.1571 26.5609 30.0967 26.7067L29.2318 28.7944C29.1714 28.9402 29.148 29.0987 29.1636 29.2558C29.1792 29.4129 29.2333 29.5637 29.3212 29.6949L29.7537 30.3398L28.8134 31.28L28.1684 30.8476C28.0374 30.7597 27.8866 30.7056 27.7295 30.69C27.5725 30.6744 27.414 30.6979 27.2682 30.7583L25.1803 31.6232C25.0345 31.6836 24.9059 31.7791 24.8059 31.9012C24.7059 32.0233 24.6376 32.1682 24.6071 32.323L24.4571 33.0845H23.127L22.9767 32.3229C22.9463 32.1681 22.878 32.0231 22.778 31.9011C22.678 31.779 22.5493 31.6835 22.4035 31.6232L20.3159 30.7583C20.1701 30.6978 20.0116 30.6743 19.8545 30.6899C19.6974 30.7055 19.5466 30.7597 19.4155 30.8476L18.7704 31.28L17.8302 30.3398L18.2626 29.6947C18.3506 29.5637 18.4047 29.4129 18.4203 29.2558C18.4359 29.0987 18.4124 28.9402 18.352 28.7944L17.4871 26.7067C17.4267 26.561 17.3312 26.4324 17.2091 26.3324C17.0871 26.2324 16.9422 26.164 16.7874 26.1335L16.0258 25.9832V24.6532L16.7872 24.5032C16.9421 24.4727 17.087 24.4044 17.2091 24.3044C17.3312 24.2044 17.4267 24.0757 17.4871 23.9299L18.352 21.842C18.4124 21.6962 18.4358 21.5378 18.4202 21.3807C18.4046 21.2237 18.3505 21.0729 18.2626 20.9418L17.8302 20.2969L18.7706 19.3565L19.4154 19.7889C19.5464 19.8769 19.6972 19.9312 19.8543 19.9468C20.0114 19.9624 20.1699 19.9388 20.3157 19.8783L22.4035 19.0134C22.5493 18.9529 22.6779 18.8575 22.7779 18.7354C22.8779 18.6133 22.9462 18.4685 22.9767 18.3137L23.127 17.5521H24.4571L24.6071 18.3135C24.6376 18.4684 24.7059 18.6133 24.8059 18.7354C24.9059 18.8575 25.0345 18.953 25.1803 19.0134L27.2682 19.8783C27.414 19.9387 27.5725 19.9622 27.7295 19.9466C27.8866 19.931 28.0374 19.8768 28.1684 19.7889L28.8133 19.3565L29.7537 20.2969L29.3212 20.9417C29.2333 21.0728 29.1791 21.2236 29.1635 21.3806C29.1479 21.5377 29.1714 21.6962 29.2318 21.842L30.0967 23.9299C30.1572 24.0757 30.2527 24.2044 30.3748 24.3044C30.4968 24.4044 30.6417 24.4727 30.7966 24.5032L31.5582 24.6533V25.9832ZM23.792 19.8861C20.7966 19.8861 18.3597 22.323 18.3597 25.3183C18.3597 28.3135 20.7966 30.7506 23.792 30.7506C26.7874 30.7506 29.2242 28.3137 29.2242 25.3183C29.2242 22.3229 26.7872 19.8861 23.792 19.8861ZM23.792 28.8342C21.8533 28.8342 20.2759 27.257 20.2759 25.3181C20.2759 23.3793 21.8531 21.8022 23.792 21.8022C25.7308 21.8022 27.3079 23.3793 27.3079 25.3181C27.3079 27.257 25.7308 28.8342 23.792 28.8342ZM10.133 25.3181C10.133 17.7867 16.2605 11.6593 23.792 11.6593C31.3234 11.6593 37.4508 17.7867 37.4508 25.3181C37.4508 31.793 42.7185 37.0607 49.1934 37.0607C55.6683 37.0607 60.9359 31.793 60.9359 25.3181C60.9359 18.8432 55.6683 13.5756 49.1934 13.5756C46.1042 13.5756 43.2161 14.7557 41.0412 16.8626L41.1203 16.8598C41.6482 16.8409 42.0933 17.2533 42.1129 17.782C42.1222 18.036 42.0303 18.2832 41.8574 18.4693C41.6844 18.6555 41.4446 18.7653 41.1907 18.7747L38.5258 18.8724C38.3856 18.8776 38.246 18.8519 38.1168 18.7971C37.9876 18.7424 37.872 18.66 37.7781 18.5556C37.6843 18.4513 37.6145 18.3276 37.5738 18.1934C37.533 18.0591 37.5222 17.9175 37.5422 17.7786L37.9173 15.1692C37.9351 15.0447 37.9774 14.9248 38.0416 14.8166C38.1058 14.7084 38.1906 14.6138 38.2914 14.5384C38.3921 14.463 38.5067 14.4082 38.6287 14.3771C38.7506 14.346 38.8775 14.3392 39.002 14.3571C39.2424 14.3917 39.4607 14.5163 39.6127 14.7056C39.7648 14.895 39.8392 15.135 39.8211 15.3771C42.3375 12.9928 45.6516 11.6595 49.1932 11.6595C56.7247 11.6595 62.8521 17.7868 62.8521 25.3183C62.8521 32.8497 56.7247 38.9771 49.1932 38.9771C41.6618 38.9771 35.5344 32.8497 35.5344 25.3183C35.5344 18.8434 30.2667 13.5757 23.7918 13.5757C17.3169 13.5757 12.0491 18.8434 12.0491 25.3183C12.0491 31.7932 17.3168 37.0608 23.7918 37.0608C26.881 37.0608 29.7691 35.8807 31.944 33.7738L31.8646 33.7766C31.337 33.7933 30.8916 33.383 30.8721 32.8542C30.8629 32.6003 30.9548 32.3531 31.1278 32.167C31.3008 31.9809 31.5406 31.8711 31.7945 31.8618L34.4594 31.7642C34.5995 31.7596 34.7389 31.7856 34.868 31.8403C34.997 31.895 35.1127 31.9771 35.2069 32.0809C35.3007 32.1852 35.3704 32.3089 35.4112 32.4431C35.452 32.5774 35.4628 32.7189 35.4428 32.8578L35.0679 35.4671C34.9928 35.9907 34.5061 36.3555 33.9833 36.2793C33.7429 36.2447 33.5246 36.1202 33.3725 35.9309C33.2205 35.7415 33.146 35.5015 33.1641 35.2593C30.6477 37.6437 27.3336 38.977 23.792 38.977C16.2605 38.977 10.133 32.8496 10.133 25.3181ZM67.6511 2H5.33415C3.49564 2 2 3.49591 2 5.33443V47.5162C2 49.3549 3.49578 50.8505 5.33415 50.8505H30.3345V55.2497H25.9026C23.2294 55.2497 21.0545 57.4247 21.0545 60.0978V61.0419C21.0545 61.296 21.1554 61.5397 21.3351 61.7194C21.5148 61.8991 21.7585 62 22.0126 62H50.9725C51.2266 62 51.4703 61.8991 51.65 61.7194C51.8297 61.5397 51.9306 61.296 51.9306 61.0419V60.0978C51.9306 57.4247 49.7555 55.2497 47.0822 55.2497H42.6506V50.8505H67.6508C69.4894 50.8505 70.9851 49.3547 70.9851 47.5162V5.33429C70.9851 3.49564 69.4893 2 67.6508 2H67.6511ZM50.0145 60.0837H22.9709C22.9784 58.4734 24.2908 57.166 25.9027 57.166H47.0823C48.6945 57.166 50.007 58.4735 50.0145 60.0837ZM40.7344 55.2497H32.2509V50.8505H40.7344V55.2497ZM69.0691 47.5162C69.0691 48.2982 68.433 48.9343 67.6511 48.9343H5.33415C4.55232 48.9343 3.91626 48.2982 3.91626 47.5162V5.33443C3.91626 4.55232 4.55232 3.91626 5.33415 3.91626H67.6509C68.4329 3.91626 69.0689 4.55232 69.0689 5.33429V47.5162H69.0691ZM65.9673 6.05987H7.01786C6.76375 6.05987 6.52005 6.16082 6.34036 6.3405C6.16068 6.52018 6.05973 6.76389 6.05973 7.018V43.6186C6.05973 43.8727 6.16068 44.1164 6.34036 44.2961C6.52005 44.4757 6.76375 44.5767 7.01786 44.5767H65.9673C66.2215 44.5767 66.4652 44.4757 66.6448 44.2961C66.8245 44.1164 66.9255 43.8727 66.9255 43.6186V7.018C66.9255 6.76389 66.8245 6.52018 66.6448 6.3405C66.4652 6.16082 66.2215 6.05987 65.9673 6.05987ZM65.0092 42.6604H7.97599V7.97613H65.0092V42.6604Z" fill="url(#paint0_linear_3154_97)"/>
<path d="M40.6171 22.8599C39.9762 22.9867 39.5109 23.5527 39.5109 24.206V26.4305C39.5109 27.0841 39.9764 27.6504 40.6177 27.7767L41.3148 27.9143L41.7869 29.0538L41.3909 29.644C41.0272 30.1867 41.0983 30.9158 41.5604 31.3784L43.1333 32.9511C43.3583 33.1754 43.6541 33.3148 43.9703 33.3457C44.2864 33.3766 44.6035 33.297 44.8677 33.1205L45.4579 32.7246L46.5974 33.1967L46.7348 33.8945C46.8617 34.5355 47.4277 35.0006 48.081 35.0006H50.3055C50.9591 35.0006 51.5253 34.5352 51.6517 33.8939L51.7892 33.1968L52.9287 32.7246L53.5188 33.1203C54.0616 33.4843 54.7912 33.4134 55.2534 32.9511L56.8262 31.3783C57.2887 30.9159 57.3598 30.1864 56.9955 29.6438L56.5998 29.0536L57.0719 27.9141L57.7689 27.7767C58.0805 27.7147 58.361 27.5467 58.5628 27.3013C58.7646 27.0558 58.8751 26.7481 58.8757 26.4304V24.2059C58.8757 23.5527 58.4106 22.9866 57.7689 22.8596L57.0719 22.7223L56.5998 21.5827L56.9953 20.9929C57.3599 20.4497 57.2887 19.7201 56.8262 19.2581L55.2534 17.6853C55.0284 17.461 54.7327 17.3215 54.4165 17.2906C54.1003 17.2597 53.7832 17.3393 53.519 17.5158L52.9288 17.9115L51.7892 17.4394L51.6518 16.7425C51.5898 16.4309 51.4218 16.1503 51.1763 15.9486C50.9309 15.7468 50.6232 15.6363 50.3055 15.6357H48.081C47.4278 15.6357 46.8617 16.1008 46.7347 16.7425L46.5974 17.4394L45.4578 17.9115L44.8675 17.5157C44.325 17.1521 43.5954 17.2232 43.1333 17.6851L41.5604 19.2581C41.0983 19.7202 41.0271 20.4495 41.391 20.9925L41.7869 21.5827L41.3148 22.7222L40.6171 22.8596V22.8599ZM41.4272 24.6535L42.1887 24.5033C42.3436 24.4728 42.4885 24.4045 42.6106 24.3045C42.7327 24.2044 42.8282 24.0758 42.8886 23.9299L43.7534 21.8422C43.8138 21.6964 43.8372 21.5379 43.8216 21.3809C43.806 21.2238 43.7519 21.073 43.664 20.942L43.2316 20.297L44.1721 19.3567L44.8169 19.789C44.9479 19.8771 45.0987 19.9313 45.2558 19.9469C45.4129 19.9625 45.5714 19.939 45.7171 19.8784L47.805 19.0135C47.9508 18.9531 48.0794 18.8576 48.1794 18.7355C48.2795 18.6134 48.3477 18.4685 48.3783 18.3137L48.5283 17.5522H49.8583L50.0086 18.3138C50.0391 18.4686 50.1074 18.6135 50.2074 18.7356C50.3074 18.8577 50.436 18.9531 50.5818 19.0135L52.6696 19.8784C52.8154 19.9389 52.9739 19.9624 53.131 19.9468C53.2881 19.9312 53.4389 19.877 53.57 19.789L54.2148 19.3567L55.1551 20.297L54.7227 20.942C54.6348 21.073 54.5806 21.2238 54.565 21.3808C54.5494 21.5379 54.5729 21.6964 54.6334 21.8422L55.4983 23.9301C55.5587 24.0759 55.6542 24.2045 55.7763 24.3045C55.8984 24.4045 56.0433 24.4728 56.1981 24.5033L56.9596 24.6533V25.9834L56.198 26.1336C56.0431 26.1641 55.8982 26.2324 55.7762 26.3324C55.6541 26.4324 55.5586 26.5611 55.4983 26.7069L54.6334 28.7945C54.573 28.9403 54.5495 29.0988 54.5651 29.2559C54.5807 29.413 54.6349 29.5638 54.7227 29.6949L55.1553 30.34L54.2149 31.2802L53.5698 30.8478C53.4388 30.7598 53.288 30.7056 53.1309 30.69C52.9738 30.6744 52.8153 30.6979 52.6695 30.7584L50.5818 31.6233C50.436 31.6837 50.3074 31.7792 50.2074 31.9013C50.1074 32.0233 50.0391 32.1682 50.0086 32.323L49.8583 33.0846H48.5283L48.3783 32.323C48.3478 32.1682 48.2794 32.0232 48.1794 31.9011C48.0794 31.779 47.9507 31.6836 47.8049 31.6232L45.7171 30.7584C45.5713 30.6979 45.4129 30.6745 45.2558 30.6901C45.0987 30.7057 44.948 30.7598 44.8169 30.8478L44.1719 31.2802L43.2316 30.34L43.664 29.6949C43.7519 29.5638 43.8061 29.413 43.8217 29.256C43.8373 29.0989 43.8138 28.9404 43.7534 28.7946L42.8886 26.707C42.8282 26.5612 42.7328 26.4326 42.6107 26.3326C42.4886 26.2326 42.3437 26.1643 42.1889 26.1338L41.4272 25.9835V24.6536V24.6535ZM49.1934 30.7506C52.1888 30.7506 54.6257 28.3137 54.6257 25.3183C54.6257 22.3229 52.1888 19.886 49.1934 19.886C46.198 19.886 43.7612 22.3229 43.7612 25.3183C43.7612 28.3137 46.1981 30.7506 49.1934 30.7506ZM49.1934 21.8024C51.1321 21.8024 52.7094 23.3796 52.7094 25.3184C52.7094 27.2573 51.1322 28.8345 49.1934 28.8345C47.2545 28.8345 45.6774 27.2573 45.6774 25.3184C45.6774 23.3796 47.2545 21.8024 49.1934 21.8024ZM32.3676 27.7768C32.6793 27.7148 32.9598 27.5468 33.1615 27.3014C33.3633 27.056 33.4739 26.7482 33.4744 26.4305V24.206C33.4744 23.5529 33.0092 22.9867 32.3675 22.8597L31.6705 22.7224L31.1985 21.5829L31.5944 20.9926C31.7708 20.7284 31.8503 20.4113 31.8194 20.0952C31.7886 19.779 31.6492 19.4833 31.425 19.2582L29.852 17.6855C29.3902 17.2234 28.6608 17.152 28.1177 17.5161L27.5275 17.9118L26.3878 17.4397L26.2504 16.7421C26.1235 16.1011 25.5575 15.636 24.9042 15.636H22.6797C22.0261 15.636 21.4599 16.1013 21.3336 16.7426L21.196 17.4397L20.0564 17.9118L19.4662 17.516C18.9233 17.1524 18.1939 17.2234 17.7318 17.6855L16.1592 19.258C15.6965 19.7203 15.6253 20.45 15.9897 20.9927L16.3854 21.5829L15.9133 22.7226L15.2159 22.86C14.5748 22.9867 14.1095 23.5529 14.1095 24.2062V26.4307C14.1095 27.0842 14.5749 27.6505 15.2162 27.7768L15.9133 27.9144L16.3855 29.0539L15.9899 29.6438C15.8133 29.908 15.7336 30.2251 15.7644 30.5414C15.7953 30.8577 15.9347 31.1535 16.159 31.3786L17.7318 32.9514C18.1938 33.4135 18.9232 33.4848 19.4662 33.1209L20.0564 32.7249L21.1959 33.1971L21.3333 33.8941C21.3953 34.2057 21.5633 34.4862 21.8087 34.688C22.0541 34.8897 22.3619 35.0003 22.6796 35.0009H24.9041C25.5573 35.0009 26.1234 34.5358 26.2504 33.8941L26.3877 33.1971L27.5273 32.725L28.1175 33.1209C28.6604 33.4848 29.3898 33.4135 29.8517 32.9516L31.4251 31.3783C31.6492 31.1532 31.7884 30.8574 31.8192 30.5413C31.85 30.2252 31.7704 29.9081 31.594 29.644L31.1982 29.0538L31.6703 27.9144L32.3674 27.777L32.3676 27.7768ZM31.5582 25.9832L30.7965 26.1335C30.6416 26.164 30.4967 26.2323 30.3746 26.3323C30.2526 26.4323 30.1571 26.5609 30.0967 26.7067L29.2318 28.7944C29.1714 28.9402 29.148 29.0987 29.1636 29.2558C29.1792 29.4129 29.2333 29.5637 29.3212 29.6949L29.7537 30.3398L28.8134 31.28L28.1684 30.8476C28.0374 30.7597 27.8866 30.7056 27.7295 30.69C27.5725 30.6744 27.414 30.6979 27.2682 30.7583L25.1803 31.6232C25.0345 31.6836 24.9059 31.7791 24.8059 31.9012C24.7059 32.0233 24.6376 32.1682 24.6071 32.323L24.4571 33.0845H23.127L22.9767 32.3229C22.9463 32.1681 22.878 32.0231 22.778 31.9011C22.678 31.779 22.5493 31.6835 22.4035 31.6232L20.3159 30.7583C20.1701 30.6978 20.0116 30.6743 19.8545 30.6899C19.6974 30.7055 19.5466 30.7597 19.4155 30.8476L18.7704 31.28L17.8302 30.3398L18.2626 29.6947C18.3506 29.5637 18.4047 29.4129 18.4203 29.2558C18.4359 29.0987 18.4124 28.9402 18.352 28.7944L17.4871 26.7067C17.4267 26.561 17.3312 26.4324 17.2091 26.3324C17.0871 26.2324 16.9422 26.164 16.7874 26.1335L16.0258 25.9832V24.6532L16.7872 24.5032C16.9421 24.4727 17.087 24.4044 17.2091 24.3044C17.3312 24.2044 17.4267 24.0757 17.4871 23.9299L18.352 21.842C18.4124 21.6962 18.4358 21.5378 18.4202 21.3807C18.4046 21.2237 18.3505 21.0729 18.2626 20.9418L17.8302 20.2969L18.7706 19.3565L19.4154 19.7889C19.5464 19.8769 19.6972 19.9312 19.8543 19.9468C20.0114 19.9624 20.1699 19.9388 20.3157 19.8783L22.4035 19.0134C22.5493 18.9529 22.6779 18.8575 22.7779 18.7354C22.8779 18.6133 22.9462 18.4685 22.9767 18.3137L23.127 17.5521H24.4571L24.6071 18.3135C24.6376 18.4684 24.7059 18.6133 24.8059 18.7354C24.9059 18.8575 25.0345 18.953 25.1803 19.0134L27.2682 19.8783C27.414 19.9387 27.5725 19.9622 27.7295 19.9466C27.8866 19.931 28.0374 19.8768 28.1684 19.7889L28.8133 19.3565L29.7537 20.2969L29.3212 20.9417C29.2333 21.0728 29.1791 21.2236 29.1635 21.3806C29.1479 21.5377 29.1714 21.6962 29.2318 21.842L30.0967 23.9299C30.1572 24.0757 30.2527 24.2044 30.3748 24.3044C30.4968 24.4044 30.6417 24.4727 30.7966 24.5032L31.5582 24.6533V25.9832ZM23.792 19.8861C20.7966 19.8861 18.3597 22.323 18.3597 25.3183C18.3597 28.3135 20.7966 30.7506 23.792 30.7506C26.7874 30.7506 29.2242 28.3137 29.2242 25.3183C29.2242 22.3229 26.7872 19.8861 23.792 19.8861ZM23.792 28.8342C21.8533 28.8342 20.2759 27.257 20.2759 25.3181C20.2759 23.3793 21.8531 21.8022 23.792 21.8022C25.7308 21.8022 27.3079 23.3793 27.3079 25.3181C27.3079 27.257 25.7308 28.8342 23.792 28.8342ZM10.133 25.3181C10.133 17.7867 16.2605 11.6593 23.792 11.6593C31.3234 11.6593 37.4508 17.7867 37.4508 25.3181C37.4508 31.793 42.7185 37.0607 49.1934 37.0607C55.6683 37.0607 60.9359 31.793 60.9359 25.3181C60.9359 18.8432 55.6683 13.5756 49.1934 13.5756C46.1042 13.5756 43.2161 14.7557 41.0412 16.8626L41.1203 16.8598C41.6482 16.8409 42.0933 17.2533 42.1129 17.782C42.1222 18.036 42.0303 18.2832 41.8574 18.4693C41.6844 18.6555 41.4446 18.7653 41.1907 18.7747L38.5258 18.8724C38.3856 18.8776 38.246 18.8519 38.1168 18.7971C37.9876 18.7424 37.872 18.66 37.7781 18.5556C37.6843 18.4513 37.6145 18.3276 37.5738 18.1934C37.533 18.0591 37.5222 17.9175 37.5422 17.7786L37.9173 15.1692C37.9351 15.0447 37.9774 14.9248 38.0416 14.8166C38.1058 14.7084 38.1906 14.6138 38.2914 14.5384C38.3921 14.463 38.5067 14.4082 38.6287 14.3771C38.7506 14.346 38.8775 14.3392 39.002 14.3571C39.2424 14.3917 39.4607 14.5163 39.6127 14.7056C39.7648 14.895 39.8392 15.135 39.8211 15.3771C42.3375 12.9928 45.6516 11.6595 49.1932 11.6595C56.7247 11.6595 62.8521 17.7868 62.8521 25.3183C62.8521 32.8497 56.7247 38.9771 49.1932 38.9771C41.6618 38.9771 35.5344 32.8497 35.5344 25.3183C35.5344 18.8434 30.2667 13.5757 23.7918 13.5757C17.3169 13.5757 12.0491 18.8434 12.0491 25.3183C12.0491 31.7932 17.3168 37.0608 23.7918 37.0608C26.881 37.0608 29.7691 35.8807 31.944 33.7738L31.8646 33.7766C31.337 33.7933 30.8916 33.383 30.8721 32.8542C30.8629 32.6003 30.9548 32.3531 31.1278 32.167C31.3008 31.9809 31.5406 31.8711 31.7945 31.8618L34.4594 31.7642C34.5995 31.7596 34.7389 31.7856 34.868 31.8403C34.997 31.895 35.1127 31.9771 35.2069 32.0809C35.3007 32.1852 35.3704 32.3089 35.4112 32.4431C35.452 32.5774 35.4628 32.7189 35.4428 32.8578L35.0679 35.4671C34.9928 35.9907 34.5061 36.3555 33.9833 36.2793C33.7429 36.2447 33.5246 36.1202 33.3725 35.9309C33.2205 35.7415 33.146 35.5015 33.1641 35.2593C30.6477 37.6437 27.3336 38.977 23.792 38.977C16.2605 38.977 10.133 32.8496 10.133 25.3181ZM67.6511 2H5.33415C3.49564 2 2 3.49591 2 5.33443V47.5162C2 49.3549 3.49578 50.8505 5.33415 50.8505H30.3345V55.2497H25.9026C23.2294 55.2497 21.0545 57.4247 21.0545 60.0978V61.0419C21.0545 61.296 21.1554 61.5397 21.3351 61.7194C21.5148 61.8991 21.7585 62 22.0126 62H50.9725C51.2266 62 51.4703 61.8991 51.65 61.7194C51.8297 61.5397 51.9306 61.296 51.9306 61.0419V60.0978C51.9306 57.4247 49.7555 55.2497 47.0822 55.2497H42.6506V50.8505H67.6508C69.4894 50.8505 70.9851 49.3547 70.9851 47.5162V5.33429C70.9851 3.49564 69.4893 2 67.6508 2H67.6511ZM50.0145 60.0837H22.9709C22.9784 58.4734 24.2908 57.166 25.9027 57.166H47.0823C48.6945 57.166 50.007 58.4735 50.0145 60.0837ZM40.7344 55.2497H32.2509V50.8505H40.7344V55.2497ZM69.0691 47.5162C69.0691 48.2982 68.433 48.9343 67.6511 48.9343H5.33415C4.55232 48.9343 3.91626 48.2982 3.91626 47.5162V5.33443C3.91626 4.55232 4.55232 3.91626 5.33415 3.91626H67.6509C68.4329 3.91626 69.0689 4.55232 69.0689 5.33429V47.5162H69.0691ZM65.9673 6.05987H7.01786C6.76375 6.05987 6.52005 6.16082 6.34036 6.3405C6.16068 6.52018 6.05973 6.76389 6.05973 7.018V43.6186C6.05973 43.8727 6.16068 44.1164 6.34036 44.2961C6.52005 44.4757 6.76375 44.5767 7.01786 44.5767H65.9673C66.2215 44.5767 66.4652 44.4757 66.6448 44.2961C66.8245 44.1164 66.9255 43.8727 66.9255 43.6186V7.018C66.9255 6.76389 66.8245 6.52018 66.6448 6.3405C66.4652 6.16082 66.2215 6.05987 65.9673 6.05987ZM65.0092 42.6604H7.97599V7.97613H65.0092V42.6604Z" stroke="white" stroke-width="4" mask="url(#path-1-outside-1_3154_97)"/>
<defs>
<linearGradient id="paint0_linear_3154_97" x1="2" y1="32" x2="70.9851" y2="32" gradientUnits="userSpaceOnUse">
<stop stop-color="#FF4B38"/>
<stop offset="0.515" stop-color="#FF4F35"/>
<stop offset="1" stop-color="#FF5433"/>
</linearGradient>
</defs>
</svg>
