<svg width="65" height="64" viewBox="0 0 65 64" fill="none" xmlns="http://www.w3.org/2000/svg">
<path d="M25.2031 5.75H16.7656C16.1185 5.75 15.5938 6.27463 15.5938 6.92185C15.5938 7.56908 16.1185 8.0937 16.7656 8.0937H25.2031C25.8502 8.0937 26.3749 7.56908 26.3749 6.92185C26.3749 6.27463 25.8502 5.75 25.2031 5.75ZM21.8127 55.5182C21.5948 55.3 21.2925 55.1747 20.9843 55.1747C20.676 55.1747 20.3737 55.3002 20.1557 55.5182C19.9368 55.7384 19.8134 56.0361 19.8124 56.3467C19.8124 56.655 19.9377 56.9572 20.1557 57.1753C20.3737 57.3933 20.676 57.5186 20.9843 57.5186C21.2925 57.5186 21.5948 57.3931 21.8127 57.1753C22.0317 56.955 22.1551 56.6573 22.1561 56.3467C22.1561 56.0373 22.0308 55.736 21.8127 55.5182Z" fill="black"/>
<path d="M25.2031 5.75H16.7656C16.1185 5.75 15.5938 6.27463 15.5938 6.92185C15.5938 7.56908 16.1185 8.0937 16.7656 8.0937H25.2031C25.8502 8.0937 26.3749 7.56908 26.3749 6.92185C26.3749 6.27463 25.8502 5.75 25.2031 5.75ZM21.8127 55.5182C21.5948 55.3 21.2925 55.1747 20.9843 55.1747C20.676 55.1747 20.3737 55.3002 20.1557 55.5182C19.9368 55.7384 19.8134 56.0361 19.8124 56.3467C19.8124 56.655 19.9377 56.9572 20.1557 57.1753C20.3737 57.3933 20.676 57.5186 20.9843 57.5186C21.2925 57.5186 21.5948 57.3931 21.8127 57.1753C22.0317 56.955 22.1551 56.6573 22.1561 56.3467C22.1561 56.0373 22.0308 55.736 21.8127 55.5182Z" fill="url(#paint0_linear_3154_86)"/>
<mask id="path-2-outside-1_3154_86" maskUnits="userSpaceOnUse" x="0" y="0" width="65" height="64" fill="black">
<rect fill="white" width="65" height="64"/>
<path d="M54.4664 39.251L50.1549 31.7833C51.9228 30.1453 52.3944 27.4423 51.1396 25.2689C50.4341 24.0472 49.2953 23.1731 47.9324 22.808C46.9557 22.5462 45.9477 22.57 45.005 22.8635L40.6943 15.3972C40.5984 15.2311 40.4633 15.0911 40.3007 14.9895C40.1381 14.8879 39.9531 14.8277 39.7618 14.8142C39.5706 14.8007 39.3789 14.8343 39.2037 14.9122C39.0285 14.99 38.8751 15.1097 38.7568 15.2606L25.3355 32.3998L19.7029 35.6518C16.4889 37.5073 15.3838 41.6318 17.2395 44.8459C18.1384 46.4029 19.5897 47.5167 21.3264 47.9819C21.898 48.1356 22.4873 48.2137 23.0793 48.2142C24.2455 48.2142 25.3965 47.9084 26.4336 47.3094L27.1044 46.9222L29.444 50.9744H4.3437V11.8438H37.6248V12.1953C37.6248 12.8425 38.1496 13.3671 38.7967 13.3671C39.4438 13.3671 39.9685 12.8425 39.9685 12.1953V6.6009C39.9685 4.06404 37.9046 2 35.3676 2H6.60091C4.06393 2 2 4.06393 2 6.6009V57.3991C2 59.936 4.06393 62 6.60091 62H35.3679C37.9047 62 39.9688 59.9361 39.9688 57.3991V42.937L53.6165 40.997C53.8064 40.9701 53.9867 40.8971 54.1416 40.7842C54.2966 40.6714 54.4216 40.5222 54.5055 40.3499C54.5894 40.1775 54.6297 39.9871 54.6229 39.7956C54.6161 39.604 54.5623 39.417 54.4664 39.251ZM4.3437 6.6009C4.3437 5.35627 5.35627 4.34382 6.60079 4.34382H35.3678C36.6123 4.34382 37.6248 5.35627 37.6248 6.6009V9.49994H4.3437V6.6009ZM47.3258 25.0719C48.0839 25.275 48.7175 25.7612 49.1099 26.4409C49.7116 27.4832 49.5996 28.7448 48.927 29.6568L46.2326 24.9899C46.599 24.9483 46.9698 24.9761 47.3258 25.0719ZM25.2618 45.2797C24.247 45.8657 23.0645 46.0212 21.933 45.718C20.8012 45.4146 19.8552 44.6889 19.2693 43.674C18.0599 41.5791 18.7802 38.8908 20.8749 37.6813L25.6894 34.9017L30.0758 42.5002L25.2618 45.2797ZM29.1343 45.7503L31.2476 44.5302L34.0162 49.3253L31.9028 50.5454L29.1343 45.7503ZM37.6248 57.399C37.6248 58.6436 36.6123 59.6561 35.3678 59.6561H6.60091C5.35638 59.6561 4.34382 58.6436 4.34382 57.399V53.3181H37.625V57.399H37.6248ZM37.6248 50.9744H35.8471L36.2026 50.7691C36.7631 50.4456 36.9552 49.7289 36.6315 49.1682L33.5598 43.8478L37.6248 43.27V50.9744ZM32.2975 41.66L27.5287 33.4004L36.0519 22.5162L45.9817 39.7149L32.2975 41.66ZM48.4827 39.3594L37.6097 20.5268L39.5323 18.0718L51.5694 38.9206L48.4827 39.3594ZM61.8535 19.1235C61.5299 18.5631 60.8134 18.3709 60.2528 18.6946L54.5069 22.0121C53.9464 22.3356 53.7543 23.0523 54.078 23.6128C54.1549 23.7461 54.2573 23.8629 54.3794 23.9566C54.5015 24.0503 54.6408 24.119 54.7895 24.1589C54.9381 24.1987 55.0932 24.2088 55.2458 24.1887C55.3983 24.1686 55.5455 24.1186 55.6787 24.0417L61.4246 20.7242C61.9851 20.4007 62.1772 19.684 61.8535 19.1235ZM51.2468 13.9784C50.6215 13.8108 49.9792 14.182 49.8116 14.807L48.9739 17.9334C48.8063 18.5588 49.1774 19.2013 49.8026 19.3688C49.9042 19.396 50.0062 19.409 50.1066 19.409C50.624 19.409 51.0975 19.0637 51.2378 18.5401L52.0755 15.4137C52.243 14.7884 51.872 14.1459 51.2468 13.9784ZM60.1969 29.3085L56.9659 28.4427C56.3406 28.2751 55.6983 28.6463 55.5307 29.2714C55.3631 29.8966 55.7341 30.5391 56.3593 30.7067L59.5903 31.5725C59.6919 31.5997 59.7939 31.6127 59.8943 31.6127C60.4117 31.6127 60.8852 31.2674 61.0255 30.7439C61.193 30.1186 60.8221 29.4759 60.1969 29.3085Z"/>
</mask>
<path d="M54.4664 39.251L50.1549 31.7833C51.9228 30.1453 52.3944 27.4423 51.1396 25.2689C50.4341 24.0472 49.2953 23.1731 47.9324 22.808C46.9557 22.5462 45.9477 22.57 45.005 22.8635L40.6943 15.3972C40.5984 15.2311 40.4633 15.0911 40.3007 14.9895C40.1381 14.8879 39.9531 14.8277 39.7618 14.8142C39.5706 14.8007 39.3789 14.8343 39.2037 14.9122C39.0285 14.99 38.8751 15.1097 38.7568 15.2606L25.3355 32.3998L19.7029 35.6518C16.4889 37.5073 15.3838 41.6318 17.2395 44.8459C18.1384 46.4029 19.5897 47.5167 21.3264 47.9819C21.898 48.1356 22.4873 48.2137 23.0793 48.2142C24.2455 48.2142 25.3965 47.9084 26.4336 47.3094L27.1044 46.9222L29.444 50.9744H4.3437V11.8438H37.6248V12.1953C37.6248 12.8425 38.1496 13.3671 38.7967 13.3671C39.4438 13.3671 39.9685 12.8425 39.9685 12.1953V6.6009C39.9685 4.06404 37.9046 2 35.3676 2H6.60091C4.06393 2 2 4.06393 2 6.6009V57.3991C2 59.936 4.06393 62 6.60091 62H35.3679C37.9047 62 39.9688 59.9361 39.9688 57.3991V42.937L53.6165 40.997C53.8064 40.9701 53.9867 40.8971 54.1416 40.7842C54.2966 40.6714 54.4216 40.5222 54.5055 40.3499C54.5894 40.1775 54.6297 39.9871 54.6229 39.7956C54.6161 39.604 54.5623 39.417 54.4664 39.251ZM4.3437 6.6009C4.3437 5.35627 5.35627 4.34382 6.60079 4.34382H35.3678C36.6123 4.34382 37.6248 5.35627 37.6248 6.6009V9.49994H4.3437V6.6009ZM47.3258 25.0719C48.0839 25.275 48.7175 25.7612 49.1099 26.4409C49.7116 27.4832 49.5996 28.7448 48.927 29.6568L46.2326 24.9899C46.599 24.9483 46.9698 24.9761 47.3258 25.0719ZM25.2618 45.2797C24.247 45.8657 23.0645 46.0212 21.933 45.718C20.8012 45.4146 19.8552 44.6889 19.2693 43.674C18.0599 41.5791 18.7802 38.8908 20.8749 37.6813L25.6894 34.9017L30.0758 42.5002L25.2618 45.2797ZM29.1343 45.7503L31.2476 44.5302L34.0162 49.3253L31.9028 50.5454L29.1343 45.7503ZM37.6248 57.399C37.6248 58.6436 36.6123 59.6561 35.3678 59.6561H6.60091C5.35638 59.6561 4.34382 58.6436 4.34382 57.399V53.3181H37.625V57.399H37.6248ZM37.6248 50.9744H35.8471L36.2026 50.7691C36.7631 50.4456 36.9552 49.7289 36.6315 49.1682L33.5598 43.8478L37.6248 43.27V50.9744ZM32.2975 41.66L27.5287 33.4004L36.0519 22.5162L45.9817 39.7149L32.2975 41.66ZM48.4827 39.3594L37.6097 20.5268L39.5323 18.0718L51.5694 38.9206L48.4827 39.3594ZM61.8535 19.1235C61.5299 18.5631 60.8134 18.3709 60.2528 18.6946L54.5069 22.0121C53.9464 22.3356 53.7543 23.0523 54.078 23.6128C54.1549 23.7461 54.2573 23.8629 54.3794 23.9566C54.5015 24.0503 54.6408 24.119 54.7895 24.1589C54.9381 24.1987 55.0932 24.2088 55.2458 24.1887C55.3983 24.1686 55.5455 24.1186 55.6787 24.0417L61.4246 20.7242C61.9851 20.4007 62.1772 19.684 61.8535 19.1235ZM51.2468 13.9784C50.6215 13.8108 49.9792 14.182 49.8116 14.807L48.9739 17.9334C48.8063 18.5588 49.1774 19.2013 49.8026 19.3688C49.9042 19.396 50.0062 19.409 50.1066 19.409C50.624 19.409 51.0975 19.0637 51.2378 18.5401L52.0755 15.4137C52.243 14.7884 51.872 14.1459 51.2468 13.9784ZM60.1969 29.3085L56.9659 28.4427C56.3406 28.2751 55.6983 28.6463 55.5307 29.2714C55.3631 29.8966 55.7341 30.5391 56.3593 30.7067L59.5903 31.5725C59.6919 31.5997 59.7939 31.6127 59.8943 31.6127C60.4117 31.6127 60.8852 31.2674 61.0255 30.7439C61.193 30.1186 60.8221 29.4759 60.1969 29.3085Z" fill="black"/>
<path d="M54.4664 39.251L50.1549 31.7833C51.9228 30.1453 52.3944 27.4423 51.1396 25.2689C50.4341 24.0472 49.2953 23.1731 47.9324 22.808C46.9557 22.5462 45.9477 22.57 45.005 22.8635L40.6943 15.3972C40.5984 15.2311 40.4633 15.0911 40.3007 14.9895C40.1381 14.8879 39.9531 14.8277 39.7618 14.8142C39.5706 14.8007 39.3789 14.8343 39.2037 14.9122C39.0285 14.99 38.8751 15.1097 38.7568 15.2606L25.3355 32.3998L19.7029 35.6518C16.4889 37.5073 15.3838 41.6318 17.2395 44.8459C18.1384 46.4029 19.5897 47.5167 21.3264 47.9819C21.898 48.1356 22.4873 48.2137 23.0793 48.2142C24.2455 48.2142 25.3965 47.9084 26.4336 47.3094L27.1044 46.9222L29.444 50.9744H4.3437V11.8438H37.6248V12.1953C37.6248 12.8425 38.1496 13.3671 38.7967 13.3671C39.4438 13.3671 39.9685 12.8425 39.9685 12.1953V6.6009C39.9685 4.06404 37.9046 2 35.3676 2H6.60091C4.06393 2 2 4.06393 2 6.6009V57.3991C2 59.936 4.06393 62 6.60091 62H35.3679C37.9047 62 39.9688 59.9361 39.9688 57.3991V42.937L53.6165 40.997C53.8064 40.9701 53.9867 40.8971 54.1416 40.7842C54.2966 40.6714 54.4216 40.5222 54.5055 40.3499C54.5894 40.1775 54.6297 39.9871 54.6229 39.7956C54.6161 39.604 54.5623 39.417 54.4664 39.251ZM4.3437 6.6009C4.3437 5.35627 5.35627 4.34382 6.60079 4.34382H35.3678C36.6123 4.34382 37.6248 5.35627 37.6248 6.6009V9.49994H4.3437V6.6009ZM47.3258 25.0719C48.0839 25.275 48.7175 25.7612 49.1099 26.4409C49.7116 27.4832 49.5996 28.7448 48.927 29.6568L46.2326 24.9899C46.599 24.9483 46.9698 24.9761 47.3258 25.0719ZM25.2618 45.2797C24.247 45.8657 23.0645 46.0212 21.933 45.718C20.8012 45.4146 19.8552 44.6889 19.2693 43.674C18.0599 41.5791 18.7802 38.8908 20.8749 37.6813L25.6894 34.9017L30.0758 42.5002L25.2618 45.2797ZM29.1343 45.7503L31.2476 44.5302L34.0162 49.3253L31.9028 50.5454L29.1343 45.7503ZM37.6248 57.399C37.6248 58.6436 36.6123 59.6561 35.3678 59.6561H6.60091C5.35638 59.6561 4.34382 58.6436 4.34382 57.399V53.3181H37.625V57.399H37.6248ZM37.6248 50.9744H35.8471L36.2026 50.7691C36.7631 50.4456 36.9552 49.7289 36.6315 49.1682L33.5598 43.8478L37.6248 43.27V50.9744ZM32.2975 41.66L27.5287 33.4004L36.0519 22.5162L45.9817 39.7149L32.2975 41.66ZM48.4827 39.3594L37.6097 20.5268L39.5323 18.0718L51.5694 38.9206L48.4827 39.3594ZM61.8535 19.1235C61.5299 18.5631 60.8134 18.3709 60.2528 18.6946L54.5069 22.0121C53.9464 22.3356 53.7543 23.0523 54.078 23.6128C54.1549 23.7461 54.2573 23.8629 54.3794 23.9566C54.5015 24.0503 54.6408 24.119 54.7895 24.1589C54.9381 24.1987 55.0932 24.2088 55.2458 24.1887C55.3983 24.1686 55.5455 24.1186 55.6787 24.0417L61.4246 20.7242C61.9851 20.4007 62.1772 19.684 61.8535 19.1235ZM51.2468 13.9784C50.6215 13.8108 49.9792 14.182 49.8116 14.807L48.9739 17.9334C48.8063 18.5588 49.1774 19.2013 49.8026 19.3688C49.9042 19.396 50.0062 19.409 50.1066 19.409C50.624 19.409 51.0975 19.0637 51.2378 18.5401L52.0755 15.4137C52.243 14.7884 51.872 14.1459 51.2468 13.9784ZM60.1969 29.3085L56.9659 28.4427C56.3406 28.2751 55.6983 28.6463 55.5307 29.2714C55.3631 29.8966 55.7341 30.5391 56.3593 30.7067L59.5903 31.5725C59.6919 31.5997 59.7939 31.6127 59.8943 31.6127C60.4117 31.6127 60.8852 31.2674 61.0255 30.7439C61.193 30.1186 60.8221 29.4759 60.1969 29.3085Z" fill="url(#paint1_linear_3154_86)"/>
<path d="M54.4664 39.251L50.1549 31.7833C51.9228 30.1453 52.3944 27.4423 51.1396 25.2689C50.4341 24.0472 49.2953 23.1731 47.9324 22.808C46.9557 22.5462 45.9477 22.57 45.005 22.8635L40.6943 15.3972C40.5984 15.2311 40.4633 15.0911 40.3007 14.9895C40.1381 14.8879 39.9531 14.8277 39.7618 14.8142C39.5706 14.8007 39.3789 14.8343 39.2037 14.9122C39.0285 14.99 38.8751 15.1097 38.7568 15.2606L25.3355 32.3998L19.7029 35.6518C16.4889 37.5073 15.3838 41.6318 17.2395 44.8459C18.1384 46.4029 19.5897 47.5167 21.3264 47.9819C21.898 48.1356 22.4873 48.2137 23.0793 48.2142C24.2455 48.2142 25.3965 47.9084 26.4336 47.3094L27.1044 46.9222L29.444 50.9744H4.3437V11.8438H37.6248V12.1953C37.6248 12.8425 38.1496 13.3671 38.7967 13.3671C39.4438 13.3671 39.9685 12.8425 39.9685 12.1953V6.6009C39.9685 4.06404 37.9046 2 35.3676 2H6.60091C4.06393 2 2 4.06393 2 6.6009V57.3991C2 59.936 4.06393 62 6.60091 62H35.3679C37.9047 62 39.9688 59.9361 39.9688 57.3991V42.937L53.6165 40.997C53.8064 40.9701 53.9867 40.8971 54.1416 40.7842C54.2966 40.6714 54.4216 40.5222 54.5055 40.3499C54.5894 40.1775 54.6297 39.9871 54.6229 39.7956C54.6161 39.604 54.5623 39.417 54.4664 39.251ZM4.3437 6.6009C4.3437 5.35627 5.35627 4.34382 6.60079 4.34382H35.3678C36.6123 4.34382 37.6248 5.35627 37.6248 6.6009V9.49994H4.3437V6.6009ZM47.3258 25.0719C48.0839 25.275 48.7175 25.7612 49.1099 26.4409C49.7116 27.4832 49.5996 28.7448 48.927 29.6568L46.2326 24.9899C46.599 24.9483 46.9698 24.9761 47.3258 25.0719ZM25.2618 45.2797C24.247 45.8657 23.0645 46.0212 21.933 45.718C20.8012 45.4146 19.8552 44.6889 19.2693 43.674C18.0599 41.5791 18.7802 38.8908 20.8749 37.6813L25.6894 34.9017L30.0758 42.5002L25.2618 45.2797ZM29.1343 45.7503L31.2476 44.5302L34.0162 49.3253L31.9028 50.5454L29.1343 45.7503ZM37.6248 57.399C37.6248 58.6436 36.6123 59.6561 35.3678 59.6561H6.60091C5.35638 59.6561 4.34382 58.6436 4.34382 57.399V53.3181H37.625V57.399H37.6248ZM37.6248 50.9744H35.8471L36.2026 50.7691C36.7631 50.4456 36.9552 49.7289 36.6315 49.1682L33.5598 43.8478L37.6248 43.27V50.9744ZM32.2975 41.66L27.5287 33.4004L36.0519 22.5162L45.9817 39.7149L32.2975 41.66ZM48.4827 39.3594L37.6097 20.5268L39.5323 18.0718L51.5694 38.9206L48.4827 39.3594ZM61.8535 19.1235C61.5299 18.5631 60.8134 18.3709 60.2528 18.6946L54.5069 22.0121C53.9464 22.3356 53.7543 23.0523 54.078 23.6128C54.1549 23.7461 54.2573 23.8629 54.3794 23.9566C54.5015 24.0503 54.6408 24.119 54.7895 24.1589C54.9381 24.1987 55.0932 24.2088 55.2458 24.1887C55.3983 24.1686 55.5455 24.1186 55.6787 24.0417L61.4246 20.7242C61.9851 20.4007 62.1772 19.684 61.8535 19.1235ZM51.2468 13.9784C50.6215 13.8108 49.9792 14.182 49.8116 14.807L48.9739 17.9334C48.8063 18.5588 49.1774 19.2013 49.8026 19.3688C49.9042 19.396 50.0062 19.409 50.1066 19.409C50.624 19.409 51.0975 19.0637 51.2378 18.5401L52.0755 15.4137C52.243 14.7884 51.872 14.1459 51.2468 13.9784ZM60.1969 29.3085L56.9659 28.4427C56.3406 28.2751 55.6983 28.6463 55.5307 29.2714C55.3631 29.8966 55.7341 30.5391 56.3593 30.7067L59.5903 31.5725C59.6919 31.5997 59.7939 31.6127 59.8943 31.6127C60.4117 31.6127 60.8852 31.2674 61.0255 30.7439C61.193 30.1186 60.8221 29.4759 60.1969 29.3085Z" stroke="white" stroke-width="4" mask="url(#path-2-outside-1_3154_86)"/>
<path d="M25.7625 20.5233L25.7618 20.5226C25.3547 20.1164 24.8034 19.8879 24.2284 19.887H24.2269C23.6538 19.887 23.0971 20.1156 22.6898 20.5247C22.2841 20.9318 22.0559 21.4828 22.055 22.0576V22.059C22.055 22.6306 22.2834 23.1888 22.6929 23.5964L23.3983 22.8876L22.6929 23.5964C23.0999 24.0013 23.6502 24.2293 24.2242 24.2309H24.2269C24.8008 24.2309 25.3572 23.9998 25.7624 23.5949L25.7648 23.5924C26.169 23.1856 26.3968 22.6359 26.3987 22.0624V22.059C26.3987 21.4853 26.1679 20.9287 25.7625 20.5233ZM24.2265 14.262H8.05609C6.85676 14.262 5.88424 15.2342 5.88424 16.4338C5.88424 17.6334 6.85676 18.6057 8.05609 18.6057H24.2266C25.426 18.6057 26.3985 17.6334 26.3985 16.4338C26.3985 15.2341 25.4257 14.262 24.2265 14.262ZM19.3828 19.8869H8.05609C6.85676 19.8869 5.88424 20.8592 5.88424 22.0588C5.88424 23.2583 6.85676 24.2306 8.05609 24.2306H19.3828C20.5821 24.2306 21.5546 23.2583 21.5546 22.0588C21.5546 20.8592 20.5821 19.8869 19.3828 19.8869ZM21.4425 25.5119H12.5575C11.3582 25.5119 10.3856 26.4841 10.3856 27.6837C10.3856 28.8832 11.358 29.8556 12.5575 29.8556H21.4424C22.6417 29.8556 23.6142 28.8833 23.6142 27.6837C23.6142 26.4843 22.6419 25.5119 21.4425 25.5119ZM8.10063 25.5119H8.04624C6.84691 25.5119 5.87439 26.4841 5.87439 27.6837C5.87439 28.8833 6.84691 29.8556 8.04624 29.8556H8.10063C9.29995 29.8556 10.2725 28.8833 10.2725 27.6837C10.2725 26.4841 9.29995 25.5119 8.10063 25.5119Z" fill="black"/>
<path d="M25.7625 20.5233L25.7618 20.5226C25.3547 20.1164 24.8034 19.8879 24.2284 19.887H24.2269C23.6538 19.887 23.0971 20.1156 22.6898 20.5247C22.2841 20.9318 22.0559 21.4828 22.055 22.0576V22.059C22.055 22.6306 22.2834 23.1888 22.6929 23.5964L23.3983 22.8876L22.6929 23.5964C23.0999 24.0013 23.6502 24.2293 24.2242 24.2309H24.2269C24.8008 24.2309 25.3572 23.9998 25.7624 23.5949L25.7648 23.5924C26.169 23.1856 26.3968 22.6359 26.3987 22.0624V22.059C26.3987 21.4853 26.1679 20.9287 25.7625 20.5233ZM24.2265 14.262H8.05609C6.85676 14.262 5.88424 15.2342 5.88424 16.4338C5.88424 17.6334 6.85676 18.6057 8.05609 18.6057H24.2266C25.426 18.6057 26.3985 17.6334 26.3985 16.4338C26.3985 15.2341 25.4257 14.262 24.2265 14.262ZM19.3828 19.8869H8.05609C6.85676 19.8869 5.88424 20.8592 5.88424 22.0588C5.88424 23.2583 6.85676 24.2306 8.05609 24.2306H19.3828C20.5821 24.2306 21.5546 23.2583 21.5546 22.0588C21.5546 20.8592 20.5821 19.8869 19.3828 19.8869ZM21.4425 25.5119H12.5575C11.3582 25.5119 10.3856 26.4841 10.3856 27.6837C10.3856 28.8832 11.358 29.8556 12.5575 29.8556H21.4424C22.6417 29.8556 23.6142 28.8833 23.6142 27.6837C23.6142 26.4843 22.6419 25.5119 21.4425 25.5119ZM8.10063 25.5119H8.04624C6.84691 25.5119 5.87439 26.4841 5.87439 27.6837C5.87439 28.8833 6.84691 29.8556 8.04624 29.8556H8.10063C9.29995 29.8556 10.2725 28.8833 10.2725 27.6837C10.2725 26.4841 9.29995 25.5119 8.10063 25.5119Z" fill="url(#paint2_linear_3154_86)"/>
<path d="M25.7625 20.5233L25.7618 20.5226C25.3547 20.1164 24.8034 19.8879 24.2284 19.887H24.2269C23.6538 19.887 23.0971 20.1156 22.6898 20.5247C22.2841 20.9318 22.0559 21.4828 22.055 22.0576V22.059C22.055 22.6306 22.2834 23.1888 22.6929 23.5964L23.3983 22.8876L22.6929 23.5964C23.0999 24.0013 23.6502 24.2293 24.2242 24.2309H24.2269C24.8008 24.2309 25.3572 23.9998 25.7624 23.5949L25.7648 23.5924C26.169 23.1856 26.3968 22.6359 26.3987 22.0624V22.059C26.3987 21.4853 26.1679 20.9287 25.7625 20.5233ZM24.2265 14.262H8.05609C6.85676 14.262 5.88424 15.2342 5.88424 16.4338C5.88424 17.6334 6.85676 18.6057 8.05609 18.6057H24.2266C25.426 18.6057 26.3985 17.6334 26.3985 16.4338C26.3985 15.2341 25.4257 14.262 24.2265 14.262ZM19.3828 19.8869H8.05609C6.85676 19.8869 5.88424 20.8592 5.88424 22.0588C5.88424 23.2583 6.85676 24.2306 8.05609 24.2306H19.3828C20.5821 24.2306 21.5546 23.2583 21.5546 22.0588C21.5546 20.8592 20.5821 19.8869 19.3828 19.8869ZM21.4425 25.5119H12.5575C11.3582 25.5119 10.3856 26.4841 10.3856 27.6837C10.3856 28.8832 11.358 29.8556 12.5575 29.8556H21.4424C22.6417 29.8556 23.6142 28.8833 23.6142 27.6837C23.6142 26.4843 22.6419 25.5119 21.4425 25.5119ZM8.10063 25.5119H8.04624C6.84691 25.5119 5.87439 26.4841 5.87439 27.6837C5.87439 28.8833 6.84691 29.8556 8.04624 29.8556H8.10063C9.29995 29.8556 10.2725 28.8833 10.2725 27.6837C10.2725 26.4841 9.29995 25.5119 8.10063 25.5119Z" stroke="white" stroke-width="2"/>
<defs>
<linearGradient id="paint0_linear_3154_86" x1="15.5937" y1="31.6343" x2="26.3749" y2="31.6343" gradientUnits="userSpaceOnUse">
<stop stop-color="#FF4B38"/>
<stop offset="0.515" stop-color="#FF4F35"/>
<stop offset="1" stop-color="#FF5433"/>
</linearGradient>
<linearGradient id="paint1_linear_3154_86" x1="2" y1="32" x2="62.0108" y2="32" gradientUnits="userSpaceOnUse">
<stop stop-color="#FF4B38"/>
<stop offset="0.515" stop-color="#FF4F35"/>
<stop offset="1" stop-color="#FF5433"/>
</linearGradient>
<linearGradient id="paint2_linear_3154_86" x1="6.87439" y1="22.0588" x2="25.3987" y2="22.0588" gradientUnits="userSpaceOnUse">
<stop stop-color="#FF4B38"/>
<stop offset="0.515" stop-color="#FF4F35"/>
<stop offset="1" stop-color="#FF5433"/>
</linearGradient>
</defs>
</svg>
