<svg width="33" height="34" viewBox="0 0 33 34" fill="none" xmlns="http://www.w3.org/2000/svg">
<path d="M28.0596 30.4521L28.0244 30.7334C27.847 32.1496 26.6406 33.2498 25.1807 33.25H5.95508C4.49514 33.2498 3.28873 32.1496 3.11133 30.7334L3.07617 30.4521H28.0596ZM14.5332 31.7861C14.491 31.7861 14.4553 31.8204 14.4551 31.8652C14.4551 31.9103 14.4909 31.9453 14.5332 31.9453H16.668C16.7103 31.9453 16.7461 31.9103 16.7461 31.8652C16.7459 31.8204 16.7102 31.7861 16.668 31.7861H14.5332ZM18.2881 17.1387C18.7734 16.969 19.318 17.1922 19.54 17.668H19.541C19.5976 17.7888 19.6299 17.9204 19.6357 18.0537C19.6405 18.1631 19.6259 18.272 19.5957 18.377C19.5967 18.3795 19.5978 18.3805 19.5977 18.3809C19.5972 18.3824 19.5969 18.385 19.5967 18.3857L19.5957 18.3877V18.3887L19.5947 18.3906C19.5927 18.3962 19.5861 18.4134 19.5791 18.4326C19.5776 18.4368 19.5767 18.4412 19.5752 18.4453C19.5666 18.4689 19.558 18.4927 19.5557 18.499L19.5547 18.5V18.502L19.5508 18.5098C19.5505 18.5105 19.5484 18.5103 19.5459 18.5117C19.4356 18.7554 19.241 18.9112 19.0508 19.0205C18.8584 19.131 18.6073 19.2255 18.4609 19.2939L18.2344 19.4004L18.1289 19.1729L17.9453 18.7773L17.8398 18.5508L18.0654 18.4453L18.2617 18.3535L18.2861 18.3359C18.2931 18.3284 18.2991 18.3196 18.3027 18.3096C18.3063 18.2996 18.308 18.2887 18.3076 18.2783L18.2998 18.2471C18.2954 18.2376 18.2888 18.2296 18.2812 18.2227C18.2737 18.2157 18.2653 18.2096 18.2559 18.2061C18.2463 18.2026 18.2357 18.2017 18.2256 18.2021L18.1963 18.209L17.999 18.3008L17.7725 18.4072L17.667 18.1797L17.4834 17.7842L17.3779 17.5586L17.6035 17.4521L18.1924 17.1777L18.2881 17.1387Z" fill="url(#paint0_linear_4408_68)" stroke="white" stroke-width="0.5"/>
<mask id="path-2-outside-1_4408_68" maskUnits="userSpaceOnUse" x="8.08203" y="1.33203" width="24" height="28" fill="black">
<rect fill="white" x="8.08203" y="1.33203" width="24" height="28"/>
<path d="M18.0867 13.0322C17.211 12.0917 16.6387 11.8257 16.4292 11.8257C16.3465 11.8257 16.3188 11.8876 16.2934 11.9575C16.0657 12.5859 16.4165 14.5176 17.4591 17.0697L18.0274 16.804C18.7375 16.4721 19.5846 16.7813 19.9159 17.4934C20.2438 18.1987 19.9296 19.0602 19.2283 19.388L18.6608 19.6533C19.26 20.7959 19.8893 21.807 20.4852 22.5762C21.4139 23.7752 21.8848 23.8878 21.9603 23.8534C21.9671 23.8502 22.0284 23.8174 22.092 23.6418C22.4487 22.6579 22.0352 19.8794 20.7455 17.1065C20.0152 15.5365 19.071 14.0896 18.0867 13.0322C19.071 14.0896 17.211 12.0917 18.0867 13.0322ZM11.6711 19.524C11.3702 19.687 11.0555 19.8243 10.7457 19.9691C10.9743 21.0546 11.448 22.0729 12.1303 22.9457C12.584 22.7335 13.032 22.5151 13.5094 22.3605C12.8162 21.4519 12.3283 20.4027 12.0795 19.2857C11.946 19.3696 11.8098 19.4491 11.6711 19.524C11.6989 19.5091 11.6397 19.5411 11.6711 19.524C11.6989 19.5091 11.3702 19.687 11.6711 19.524ZM12.9471 21.8883C12.9838 21.9676 12.9877 22.0583 12.9579 22.1404C12.9281 22.2226 12.867 22.2895 12.788 22.3264L12.4355 22.4913C12.0677 22.663 11.7659 22.0769 12.1584 21.8933L12.5109 21.7285C12.5898 21.6916 12.6801 21.6877 12.7619 21.7177C12.8437 21.7477 12.9103 21.809 12.9471 21.8883C12.8705 21.7231 13.0236 22.0533 12.9471 21.8883ZM12.4229 20.994C12.4596 21.0733 12.4635 21.164 12.4337 21.2461C12.4038 21.3283 12.3427 21.3952 12.2638 21.4322L11.9114 21.5969C11.5435 21.7687 11.2418 21.1826 11.6342 20.999L11.9867 20.8342C12.0656 20.7973 12.1559 20.7934 12.2377 20.8234C12.3195 20.8534 12.3862 20.9147 12.4229 20.994C12.3464 20.8289 12.4994 21.1591 12.4229 20.994ZM11.8937 20.52L11.5413 20.6848C11.1735 20.8565 10.8717 20.2705 11.2642 20.0868L11.6166 19.9221C11.6955 19.8852 11.7859 19.8814 11.8677 19.9113C11.9495 19.9413 12.0161 20.0026 12.0529 20.0819C12.0896 20.1612 12.0935 20.2518 12.0636 20.334C12.0338 20.4162 11.9727 20.4831 11.8937 20.52ZM10.1369 20.2537L10.0245 20.3063C9.21684 20.6838 8.85401 21.6754 9.23203 22.4882C9.61377 23.309 10.5908 23.6656 11.4097 23.2826L11.5212 23.2304C10.8573 22.3464 10.3857 21.3323 10.1369 20.2537ZM17.4344 18.6545C16.5981 16.8563 16.0045 15.1416 15.7353 13.8218L15.2075 15.5871C14.8364 16.8281 13.7808 18.037 12.6675 18.8781C12.8905 20.0887 13.4177 21.2221 14.1992 22.1708C15.5573 21.8562 17.1597 21.8225 18.3463 22.3353L20.0335 23.0642C19.1984 22.0093 18.2704 20.4519 17.4344 18.6545C18.2704 20.4519 16.5981 16.8563 17.4344 18.6545ZM28.65 21.8844C27.326 21.8844 26.2489 22.9679 26.2489 24.2996C26.2489 25.6313 27.326 26.7147 28.65 26.7147C29.974 26.7147 31.0511 25.6313 31.0511 24.2996C31.0511 22.9679 29.974 21.8844 28.65 21.8844ZM28.8307 25.4558V25.8577H28.4287V25.478C28.2396 25.4598 28.0293 25.4022 27.8847 25.2724L28.0294 24.8685C28.2003 24.9825 28.3719 25.0679 28.5834 25.0679C28.7832 25.0679 28.9178 24.9633 28.9178 24.8077C28.9178 24.7034 28.8766 24.59 28.5729 24.4668C28.2421 24.3369 27.9365 24.1627 27.9365 23.7735C27.9365 23.4581 28.1607 23.2129 28.4734 23.1324V22.7582H28.8754V23.1077C29.0393 23.1262 29.2057 23.1785 29.3409 23.2754L29.1904 23.6728C29.0339 23.5833 28.8862 23.5134 28.6997 23.5134C28.4872 23.5134 28.4114 23.6258 28.4114 23.731C28.4114 23.8445 28.4671 23.9181 28.7965 24.0545C29.0765 24.1688 29.3939 24.3551 29.3939 24.783C29.3938 25.109 29.188 25.3718 28.8307 25.4558ZM16.0063 2.33203C14.5013 2.33203 13.2769 3.56338 13.2769 5.07698C13.2769 6.5905 14.5013 7.82186 16.0063 7.82186C17.5114 7.82186 18.7358 6.5905 18.7358 5.07698C18.7358 3.56332 17.5114 2.33203 16.0063 2.33203ZM16.187 6.23326V6.63514H15.785V6.25542C15.5904 6.23656 15.3933 6.17561 15.2411 6.04981L15.3857 5.64587C15.5562 5.75973 15.7291 5.84532 15.9398 5.84532C16.1395 5.84532 16.2741 5.74074 16.2741 5.58518C16.2741 5.48091 16.233 5.36749 15.9292 5.24424C15.5984 5.11433 15.2928 4.94015 15.2928 4.55103C15.2928 4.23555 15.517 3.99035 15.8297 3.90986V3.53562H16.2317V3.88515C16.3994 3.90401 16.5569 3.9596 16.6972 4.05285L16.5467 4.45031C16.3903 4.36074 16.2419 4.29083 16.056 4.29083C15.8435 4.29083 15.7678 4.40325 15.7678 4.50852C15.7678 4.62193 15.8234 4.69557 16.1528 4.83196C16.4328 4.94631 16.7502 5.13263 16.7502 5.56047C16.7502 5.88647 16.5444 6.14922 16.187 6.23326ZM16.9411 27.2777L14.0145 22.8978C13.4887 23.0431 13.0043 23.2647 12.511 23.4953L15.1192 28.1294L16.9411 27.2777ZM15.4669 26.398C15.5612 26.3539 15.669 26.3492 15.7668 26.3849C15.8646 26.4206 15.9442 26.4937 15.9883 26.5883C16.0101 26.6352 16.0224 26.6858 16.0247 26.7375C16.0269 26.7891 16.019 26.8407 16.0014 26.8892C15.9838 26.9378 15.9568 26.9824 15.922 27.0204C15.8871 27.0585 15.8452 27.0893 15.7985 27.1111C15.6022 27.2029 15.3687 27.1177 15.2771 26.9208C15.1855 26.7239 15.2705 26.4899 15.4669 26.398Z"/>
</mask>
<path d="M18.0867 13.0322C17.211 12.0917 16.6387 11.8257 16.4292 11.8257C16.3465 11.8257 16.3188 11.8876 16.2934 11.9575C16.0657 12.5859 16.4165 14.5176 17.4591 17.0697L18.0274 16.804C18.7375 16.4721 19.5846 16.7813 19.9159 17.4934C20.2438 18.1987 19.9296 19.0602 19.2283 19.388L18.6608 19.6533C19.26 20.7959 19.8893 21.807 20.4852 22.5762C21.4139 23.7752 21.8848 23.8878 21.9603 23.8534C21.9671 23.8502 22.0284 23.8174 22.092 23.6418C22.4487 22.6579 22.0352 19.8794 20.7455 17.1065C20.0152 15.5365 19.071 14.0896 18.0867 13.0322C19.071 14.0896 17.211 12.0917 18.0867 13.0322ZM11.6711 19.524C11.3702 19.687 11.0555 19.8243 10.7457 19.9691C10.9743 21.0546 11.448 22.0729 12.1303 22.9457C12.584 22.7335 13.032 22.5151 13.5094 22.3605C12.8162 21.4519 12.3283 20.4027 12.0795 19.2857C11.946 19.3696 11.8098 19.4491 11.6711 19.524C11.6989 19.5091 11.6397 19.5411 11.6711 19.524C11.6989 19.5091 11.3702 19.687 11.6711 19.524ZM12.9471 21.8883C12.9838 21.9676 12.9877 22.0583 12.9579 22.1404C12.9281 22.2226 12.867 22.2895 12.788 22.3264L12.4355 22.4913C12.0677 22.663 11.7659 22.0769 12.1584 21.8933L12.5109 21.7285C12.5898 21.6916 12.6801 21.6877 12.7619 21.7177C12.8437 21.7477 12.9103 21.809 12.9471 21.8883C12.8705 21.7231 13.0236 22.0533 12.9471 21.8883ZM12.4229 20.994C12.4596 21.0733 12.4635 21.164 12.4337 21.2461C12.4038 21.3283 12.3427 21.3952 12.2638 21.4322L11.9114 21.5969C11.5435 21.7687 11.2418 21.1826 11.6342 20.999L11.9867 20.8342C12.0656 20.7973 12.1559 20.7934 12.2377 20.8234C12.3195 20.8534 12.3862 20.9147 12.4229 20.994C12.3464 20.8289 12.4994 21.1591 12.4229 20.994ZM11.8937 20.52L11.5413 20.6848C11.1735 20.8565 10.8717 20.2705 11.2642 20.0868L11.6166 19.9221C11.6955 19.8852 11.7859 19.8814 11.8677 19.9113C11.9495 19.9413 12.0161 20.0026 12.0529 20.0819C12.0896 20.1612 12.0935 20.2518 12.0636 20.334C12.0338 20.4162 11.9727 20.4831 11.8937 20.52ZM10.1369 20.2537L10.0245 20.3063C9.21684 20.6838 8.85401 21.6754 9.23203 22.4882C9.61377 23.309 10.5908 23.6656 11.4097 23.2826L11.5212 23.2304C10.8573 22.3464 10.3857 21.3323 10.1369 20.2537ZM17.4344 18.6545C16.5981 16.8563 16.0045 15.1416 15.7353 13.8218L15.2075 15.5871C14.8364 16.8281 13.7808 18.037 12.6675 18.8781C12.8905 20.0887 13.4177 21.2221 14.1992 22.1708C15.5573 21.8562 17.1597 21.8225 18.3463 22.3353L20.0335 23.0642C19.1984 22.0093 18.2704 20.4519 17.4344 18.6545C18.2704 20.4519 16.5981 16.8563 17.4344 18.6545ZM28.65 21.8844C27.326 21.8844 26.2489 22.9679 26.2489 24.2996C26.2489 25.6313 27.326 26.7147 28.65 26.7147C29.974 26.7147 31.0511 25.6313 31.0511 24.2996C31.0511 22.9679 29.974 21.8844 28.65 21.8844ZM28.8307 25.4558V25.8577H28.4287V25.478C28.2396 25.4598 28.0293 25.4022 27.8847 25.2724L28.0294 24.8685C28.2003 24.9825 28.3719 25.0679 28.5834 25.0679C28.7832 25.0679 28.9178 24.9633 28.9178 24.8077C28.9178 24.7034 28.8766 24.59 28.5729 24.4668C28.2421 24.3369 27.9365 24.1627 27.9365 23.7735C27.9365 23.4581 28.1607 23.2129 28.4734 23.1324V22.7582H28.8754V23.1077C29.0393 23.1262 29.2057 23.1785 29.3409 23.2754L29.1904 23.6728C29.0339 23.5833 28.8862 23.5134 28.6997 23.5134C28.4872 23.5134 28.4114 23.6258 28.4114 23.731C28.4114 23.8445 28.4671 23.9181 28.7965 24.0545C29.0765 24.1688 29.3939 24.3551 29.3939 24.783C29.3938 25.109 29.188 25.3718 28.8307 25.4558ZM16.0063 2.33203C14.5013 2.33203 13.2769 3.56338 13.2769 5.07698C13.2769 6.5905 14.5013 7.82186 16.0063 7.82186C17.5114 7.82186 18.7358 6.5905 18.7358 5.07698C18.7358 3.56332 17.5114 2.33203 16.0063 2.33203ZM16.187 6.23326V6.63514H15.785V6.25542C15.5904 6.23656 15.3933 6.17561 15.2411 6.04981L15.3857 5.64587C15.5562 5.75973 15.7291 5.84532 15.9398 5.84532C16.1395 5.84532 16.2741 5.74074 16.2741 5.58518C16.2741 5.48091 16.233 5.36749 15.9292 5.24424C15.5984 5.11433 15.2928 4.94015 15.2928 4.55103C15.2928 4.23555 15.517 3.99035 15.8297 3.90986V3.53562H16.2317V3.88515C16.3994 3.90401 16.5569 3.9596 16.6972 4.05285L16.5467 4.45031C16.3903 4.36074 16.2419 4.29083 16.056 4.29083C15.8435 4.29083 15.7678 4.40325 15.7678 4.50852C15.7678 4.62193 15.8234 4.69557 16.1528 4.83196C16.4328 4.94631 16.7502 5.13263 16.7502 5.56047C16.7502 5.88647 16.5444 6.14922 16.187 6.23326ZM16.9411 27.2777L14.0145 22.8978C13.4887 23.0431 13.0043 23.2647 12.511 23.4953L15.1192 28.1294L16.9411 27.2777ZM15.4669 26.398C15.5612 26.3539 15.669 26.3492 15.7668 26.3849C15.8646 26.4206 15.9442 26.4937 15.9883 26.5883C16.0101 26.6352 16.0224 26.6858 16.0247 26.7375C16.0269 26.7891 16.019 26.8407 16.0014 26.8892C15.9838 26.9378 15.9568 26.9824 15.922 27.0204C15.8871 27.0585 15.8452 27.0893 15.7985 27.1111C15.6022 27.2029 15.3687 27.1177 15.2771 26.9208C15.1855 26.7239 15.2705 26.4899 15.4669 26.398Z" fill="url(#paint1_linear_4408_68)"/>
<path d="M18.0867 13.0322L18.4526 12.6915L18.4526 12.6915L18.0867 13.0322ZM16.2934 11.9575L15.8234 11.787L15.8233 11.7871L16.2934 11.9575ZM17.4591 17.0697L16.9962 17.2588L17.1949 17.7452L17.6709 17.5227L17.4591 17.0697ZM18.0274 16.804L17.8157 16.351L17.8157 16.3511L18.0274 16.804ZM19.9159 17.4934L20.3693 17.2826L20.3692 17.2825L19.9159 17.4934ZM19.2283 19.388L19.0166 18.935L19.0165 18.935L19.2283 19.388ZM18.6608 19.6533L18.4491 19.2003L17.975 19.422L18.218 19.8855L18.6608 19.6533ZM20.4852 22.5762L20.8805 22.2701L20.8805 22.27L20.4852 22.5762ZM21.9603 23.8534L22.1678 24.3083L22.1713 24.3067L21.9603 23.8534ZM22.092 23.6418L22.5621 23.8123L22.5621 23.8122L22.092 23.6418ZM20.7455 17.1065L21.1989 16.8957L21.1989 16.8957L20.7455 17.1065ZM11.6711 19.524L11.4335 19.0841L11.433 19.0844L11.6711 19.524ZM10.7457 19.9691L10.534 19.5161L10.1746 19.684L10.2564 20.0721L10.7457 19.9691ZM12.1303 22.9457L11.7363 23.2536L11.9815 23.5672L12.342 23.3986L12.1303 22.9457ZM13.5094 22.3605L13.6635 22.8362L14.3352 22.6186L13.9069 22.0572L13.5094 22.3605ZM12.0795 19.2857L12.5676 19.177L12.4135 18.4853L11.8135 18.8624L12.0795 19.2857ZM12.9471 21.8883L13.4007 21.678L13.4007 21.6779L12.9471 21.8883ZM12.788 22.3264L12.9998 22.7794L13 22.7793L12.788 22.3264ZM12.4355 22.4913L12.6471 22.9443L12.6474 22.9442L12.4355 22.4913ZM12.1584 21.8933L11.9466 21.4404L11.9466 21.4404L12.1584 21.8933ZM12.5109 21.7285L12.2994 21.2754L12.2991 21.2756L12.5109 21.7285ZM12.4229 20.994L12.8766 20.7838L12.8765 20.7837L12.4229 20.994ZM12.2638 21.4322L12.4756 21.8851L12.4758 21.885L12.2638 21.4322ZM11.9114 21.5969L12.1229 22.05L12.1232 22.0499L11.9114 21.5969ZM11.6342 20.999L11.4225 20.546L11.4223 20.5461L11.6342 20.999ZM11.9867 20.8342L11.775 20.3812L11.7749 20.3813L11.9867 20.8342ZM11.8937 20.52L12.1055 20.973L12.1057 20.9729L11.8937 20.52ZM11.5413 20.6848L11.7528 21.1379L11.7531 21.1377L11.5413 20.6848ZM11.2642 20.0868L11.0524 19.6339L11.0523 19.634L11.2642 20.0868ZM11.6166 19.9221L11.4052 19.4689L11.4048 19.4691L11.6166 19.9221ZM12.0529 20.0819L12.5066 19.8718L12.5064 19.8713L12.0529 20.0819ZM10.1369 20.2537L10.6241 20.1413L10.4851 19.539L9.92516 19.8008L10.1369 20.2537ZM10.0245 20.3063L9.81275 19.8533L9.81272 19.8533L10.0245 20.3063ZM9.23203 22.4882L9.6854 22.2774L9.6854 22.2774L9.23203 22.4882ZM11.4097 23.2826L11.6215 23.7355L11.6216 23.7355L11.4097 23.2826ZM11.5212 23.2304L11.7331 23.6833L12.2906 23.4224L11.921 22.9302L11.5212 23.2304ZM17.4344 18.6545L16.981 18.8654L16.981 18.8654L17.4344 18.6545ZM15.7353 13.8218L16.2253 13.7218L15.2563 13.6785L15.7353 13.8218ZM15.2075 15.5871L14.7284 15.4438L14.7284 15.4438L15.2075 15.5871ZM12.6675 18.8781L12.3662 18.4791L12.1199 18.6651L12.1758 18.9686L12.6675 18.8781ZM14.1992 22.1708L13.8132 22.4887L14.0102 22.7278L14.312 22.6579L14.1992 22.1708ZM18.3463 22.3353L18.148 22.7943L18.148 22.7943L18.3463 22.3353ZM20.0335 23.0642L19.8352 23.5232L20.4255 22.7538L20.0335 23.0642ZM28.8307 25.4558L28.7162 24.9691L28.3307 25.0598V25.4558H28.8307ZM28.8307 25.8577V26.3577H29.3307V25.8577H28.8307ZM28.4287 25.8577H27.9287V26.3577H28.4287V25.8577ZM28.4287 25.478H28.9287V25.0239L28.4767 24.9803L28.4287 25.478ZM27.8847 25.2724L27.414 25.1038L27.3008 25.42L27.5507 25.6444L27.8847 25.2724ZM28.0294 24.8685L28.307 24.4526L27.7745 24.0972L27.5587 24.6999L28.0294 24.8685ZM28.5729 24.4668L28.7609 24.0034L28.7556 24.0013L28.5729 24.4668ZM28.4734 23.1324L28.598 23.6166L28.9734 23.52V23.1324H28.4734ZM28.4734 22.7582V22.2582H27.9734V22.7582H28.4734ZM28.8754 22.7582H29.3754V22.2582H28.8754V22.7582ZM28.8754 23.1077H28.3754V23.5544L28.8194 23.6045L28.8754 23.1077ZM29.3409 23.2754L29.8085 23.4524L29.9446 23.0929L29.6321 22.8689L29.3409 23.2754ZM29.1904 23.6728L28.9422 24.1068L29.4506 24.3977L29.658 23.8499L29.1904 23.6728ZM28.7965 24.0545L28.6053 24.5165L28.6075 24.5174L28.7965 24.0545ZM29.3939 24.783L29.8939 24.7831V24.783H29.3939ZM16.187 6.23326L16.0726 5.74653L15.687 5.83719V6.23326H16.187ZM16.187 6.63514V7.13514H16.687V6.63514H16.187ZM15.785 6.63514H15.285V7.13514H15.785V6.63514ZM15.785 6.25542H16.285V5.80153L15.8332 5.75775L15.785 6.25542ZM15.2411 6.04981L14.7703 5.88124L14.652 6.21163L14.9225 6.43521L15.2411 6.04981ZM15.3857 5.64587L15.6635 5.2301L15.1309 4.87436L14.915 5.47731L15.3857 5.64587ZM15.9292 5.24424L16.1172 4.7809L16.112 4.77885L15.9292 5.24424ZM15.8297 3.90986L15.9544 4.39408L16.3297 4.29745V3.90986H15.8297ZM15.8297 3.53562V3.03562H15.3297V3.53562H15.8297ZM16.2317 3.53562H16.7317V3.03562H16.2317V3.53562ZM16.2317 3.88515H15.7317V4.33205L16.1758 4.38202L16.2317 3.88515ZM16.6972 4.05285L17.1648 4.22988L17.306 3.857L16.9739 3.63637L16.6972 4.05285ZM16.5467 4.45031L16.2983 4.88421L16.8069 5.17544L17.0144 4.62735L16.5467 4.45031ZM16.1528 4.83196L15.9615 5.29394L15.9637 5.29485L16.1528 4.83196ZM16.7502 5.56047L16.2502 5.56047L16.2502 5.56056L16.7502 5.56047ZM16.9411 27.2777L17.1528 27.7307L17.6803 27.4841L17.3568 27L16.9411 27.2777ZM14.0145 22.8978L14.4303 22.62L14.2296 22.3196L13.8814 22.4158L14.0145 22.8978ZM12.511 23.4953L12.2992 23.0423L11.8108 23.2707L12.0753 23.7405L12.511 23.4953ZM15.1192 28.1294L14.6835 28.3746L14.9109 28.7787L15.331 28.5823L15.1192 28.1294ZM15.4669 26.398L15.6786 26.851L15.6788 26.8509L15.4669 26.398ZM15.9883 26.5883L16.4417 26.3775L16.4415 26.3772L15.9883 26.5883ZM15.7985 27.1111L15.5871 26.658L15.5867 26.6582L15.7985 27.1111ZM18.0867 13.0322L18.4526 12.6915C17.9953 12.2002 17.6035 11.8702 17.2837 11.659C17.1238 11.5534 16.9764 11.4739 16.8429 11.4192C16.7171 11.3677 16.5734 11.3257 16.4292 11.3257V11.8257V12.3257C16.3898 12.3257 16.3961 12.3169 16.464 12.3446C16.5241 12.3693 16.6137 12.415 16.7326 12.4935C16.9702 12.6504 17.3024 12.9236 17.7207 13.3729L18.0867 13.0322ZM16.4292 11.8257V11.3257C16.2363 11.3257 16.0703 11.4094 15.9576 11.5429C15.8723 11.6442 15.8338 11.7584 15.8234 11.787L16.2934 11.9575L16.7634 12.128C16.7687 12.1134 16.7685 12.1153 16.765 12.1226C16.7614 12.1303 16.7484 12.1565 16.7219 12.1878C16.6934 12.2216 16.6501 12.2603 16.59 12.2887C16.5298 12.3171 16.4727 12.3257 16.4292 12.3257V11.8257ZM16.2934 11.9575L15.8233 11.7871C15.7315 12.0404 15.7153 12.3604 15.7336 12.6902C15.7526 13.0332 15.8127 13.4403 15.9111 13.8974C16.1081 14.8126 16.4664 15.962 16.9962 17.2588L17.4591 17.0697L17.922 16.8806C17.4091 15.6253 17.0708 14.5328 16.8887 13.687C16.7975 13.2636 16.7474 12.9105 16.7321 12.6348C16.7161 12.3459 16.7414 12.1888 16.7635 12.1279L16.2934 11.9575ZM17.4591 17.0697L17.6709 17.5227L18.2392 17.2569L18.0274 16.804L17.8157 16.3511L17.2473 16.6168L17.4591 17.0697ZM18.0274 16.804L18.2392 17.2569C18.6979 17.0425 19.2475 17.2421 19.4625 17.7043L19.9159 17.4934L20.3692 17.2825C19.9217 16.3206 18.7771 15.9016 17.8157 16.351L18.0274 16.804ZM19.9159 17.4934L19.4625 17.7042C19.6744 18.1599 19.4676 18.7242 19.0166 18.935L19.2283 19.388L19.44 19.8409C20.3916 19.3962 20.8132 18.2375 20.3693 17.2826L19.9159 17.4934ZM19.2283 19.388L19.0165 18.935L18.4491 19.2003L18.6608 19.6533L18.8726 20.1062L19.4401 19.8409L19.2283 19.388ZM18.6608 19.6533L18.218 19.8855C18.8263 21.0455 19.471 22.0835 20.0899 22.8825L20.4852 22.5762L20.8805 22.27C20.3076 21.5306 19.6936 20.5462 19.1037 19.4211L18.6608 19.6533ZM20.4852 22.5762L20.0899 22.8824C20.5719 23.5046 20.9558 23.8726 21.2521 24.0842C21.4001 24.1899 21.5368 24.2642 21.6621 24.3085C21.7245 24.3305 21.7931 24.3483 21.865 24.3553C21.9227 24.3609 22.0415 24.3659 22.1678 24.3083L21.9603 23.8534L21.7527 23.3985C21.8602 23.3495 21.9478 23.3586 21.9617 23.3599C21.9897 23.3627 22.0019 23.3679 21.995 23.3655C21.9818 23.3608 21.9286 23.3385 21.8333 23.2705C21.6431 23.1346 21.3272 22.8468 20.8805 22.2701L20.4852 22.5762ZM21.9603 23.8534L22.1713 24.3067C22.3422 24.2272 22.4726 24.059 22.5621 23.8123L22.092 23.6418L21.622 23.4714C21.5841 23.5759 21.592 23.4733 21.7493 23.4001L21.9603 23.8534ZM22.092 23.6418L22.5621 23.8122C22.682 23.4814 22.7226 23.0518 22.7134 22.5856C22.7039 22.1094 22.6413 21.5548 22.5275 20.9522C22.2997 19.7467 21.861 18.3193 21.1989 16.8957L20.7455 17.1065L20.2921 17.3174C20.9197 18.6666 21.3326 20.0149 21.5448 21.1379C21.651 21.6994 21.7055 22.1972 21.7136 22.6054C21.7218 23.0236 21.6804 23.3102 21.6219 23.4715L22.092 23.6418ZM20.7455 17.1065L21.1989 16.8957C20.4507 15.2872 19.479 13.794 18.4526 12.6915L18.0867 13.0322L17.7207 13.3729C18.663 14.3851 19.5798 15.7858 20.2921 17.3174L20.7455 17.1065ZM18.0867 13.0322L18.4526 12.6915C18.3431 12.5739 18.2764 12.5023 18.2415 12.4648C18.2242 12.4461 18.2146 12.4359 18.2116 12.4327C18.2113 12.4323 18.2109 12.4319 18.2106 12.4316C18.2106 12.4316 18.2102 12.4312 18.2098 12.4307C18.2094 12.4302 18.205 12.4256 18.201 12.4216C17.5007 12.4099 17.4767 13.1108 17.4776 13.1118C17.4778 13.1121 17.4782 13.1125 17.4784 13.1126C17.4785 13.1127 17.4786 13.1129 17.4787 13.113C17.4788 13.1131 17.479 13.1133 17.4791 13.1135C17.4794 13.1138 17.4798 13.1142 17.4802 13.1146C17.482 13.1165 17.4852 13.12 17.4897 13.1248C17.5256 13.1633 17.6452 13.2919 17.7615 13.4167C17.8777 13.5416 17.9906 13.6628 18.0129 13.6868C18.0143 13.6883 18.0154 13.6894 18.0161 13.6902C18.0164 13.6906 18.0167 13.6909 18.017 13.6912C18.0171 13.6913 18.0172 13.6914 18.0173 13.6915C18.0174 13.6917 18.0178 13.692 18.018 13.6923C18.0188 13.6931 18.7191 13.7202 18.7593 13.0213C18.755 13.0164 18.7501 13.0111 18.7497 13.0106C18.7491 13.01 18.7485 13.0093 18.7484 13.0093C18.7481 13.0089 18.7477 13.0085 18.7473 13.008C18.7463 13.007 18.7449 13.0055 18.7432 13.0036C18.736 12.9959 18.7219 12.9807 18.6993 12.9565C18.6543 12.9081 18.5757 12.8237 18.4526 12.6915L18.0867 13.0322L17.7207 13.3729C17.8437 13.505 17.9223 13.5895 17.9674 13.6379C17.9899 13.6621 18.004 13.6772 18.0111 13.6849C18.0129 13.6868 18.0142 13.6882 18.0151 13.6891C18.0155 13.6896 18.0159 13.69 18.0161 13.6902C18.0165 13.6907 18.0162 13.6903 18.0157 13.6898C18.0153 13.6894 18.0105 13.6841 18.0062 13.6792C18.0463 12.9803 18.7466 13.0074 18.7474 13.0082C18.7476 13.0084 18.748 13.0088 18.748 13.0089C18.7481 13.0089 18.7481 13.009 18.7482 13.009C18.7482 13.009 18.7481 13.0089 18.748 13.0088C18.7479 13.0087 18.7478 13.0086 18.7477 13.0085C18.7471 13.0078 18.7461 13.0067 18.7447 13.0052C18.7224 12.9814 18.6096 12.8602 18.4934 12.7353C18.3771 12.6104 18.2575 12.482 18.2217 12.4435C18.2172 12.4386 18.2141 12.4353 18.2124 12.4335C18.212 12.4331 18.2117 12.4328 18.2115 12.4326C18.2114 12.4325 18.2114 12.4324 18.2114 12.4325C18.2114 12.4325 18.2115 12.4326 18.2116 12.4326C18.2116 12.4327 18.212 12.4331 18.2122 12.4333C18.2131 12.4343 18.1891 13.1352 17.4888 13.1235C17.4848 13.1195 17.4805 13.1149 17.48 13.1144C17.4799 13.1143 17.4797 13.114 17.4796 13.1139C17.4796 13.1139 17.4795 13.1139 17.4795 13.1139C17.4795 13.1139 17.4795 13.1139 17.4796 13.1139C17.4796 13.1139 17.4796 13.114 17.4797 13.114C17.4798 13.1141 17.4799 13.1143 17.4801 13.1145C17.4829 13.1174 17.4922 13.1275 17.5097 13.1463C17.5446 13.1837 17.6113 13.2553 17.7207 13.3729L18.0867 13.0322ZM11.6711 19.524L11.433 19.0844C11.1494 19.238 10.8596 19.3639 10.534 19.5161L10.7457 19.9691L10.9573 20.422C11.2514 20.2846 11.591 20.136 11.9093 19.9637L11.6711 19.524ZM10.7457 19.9691L10.2564 20.0721C10.5007 21.2322 11.007 22.3206 11.7363 23.2536L12.1303 22.9457L12.5242 22.6378C11.889 21.8252 11.4478 20.8769 11.2349 19.866L10.7457 19.9691ZM12.1303 22.9457L12.342 23.3986C12.8082 23.1807 13.2228 22.9789 13.6635 22.8362L13.5094 22.3605L13.3553 21.8848C12.8412 22.0513 12.3599 22.2864 11.9185 22.4927L12.1303 22.9457ZM13.5094 22.3605L13.9069 22.0572C13.2577 21.2062 12.8007 20.2234 12.5676 19.177L12.0795 19.2857L11.5915 19.3945C11.856 20.5819 12.3748 21.6975 13.1119 22.6637L13.5094 22.3605ZM12.0795 19.2857L11.8135 18.8624C11.6893 18.9405 11.5625 19.0144 11.4335 19.0841L11.6711 19.524L11.9088 19.964C12.0571 19.8838 12.2028 19.7988 12.3456 19.7091L12.0795 19.2857ZM11.6711 19.524L11.4327 19.0846C11.4287 19.0867 11.426 19.0882 11.4242 19.0892C11.4236 19.0895 11.4222 19.0902 11.421 19.0909C11.4207 19.0911 11.4197 19.0916 11.4185 19.0923C11.418 19.0926 11.4166 19.0934 11.4147 19.0944C11.4139 19.0949 11.4121 19.0959 11.4098 19.0973C11.4086 19.0979 11.4059 19.0995 11.4044 19.1005C11.402 19.1019 11.3959 19.1057 11.3921 19.1081C11.3847 19.1129 11.3571 19.1326 11.3376 19.1484C11.1848 19.3788 11.4104 19.9615 11.7917 20.012C11.8201 20.0034 11.8568 19.9895 11.8657 19.9857C11.8701 19.9837 11.877 19.9804 11.8796 19.9792C11.8813 19.9784 11.8842 19.9769 11.8854 19.9763C11.8864 19.9759 11.888 19.975 11.8887 19.9747C11.8902 19.9739 11.8914 19.9733 11.8921 19.9729C11.8944 19.9717 11.8963 19.9707 11.8964 19.9706C11.898 19.9698 11.8996 19.969 11.8998 19.9688C11.9005 19.9684 11.9013 19.968 11.9021 19.9676C11.9038 19.9667 11.9057 19.9657 11.9076 19.9646C11.9096 19.9636 11.9116 19.9625 11.9133 19.9616C11.9147 19.9608 11.9167 19.9597 11.9182 19.9589C11.9185 19.9587 11.9189 19.9585 11.9194 19.9582C11.9197 19.9581 11.9208 19.9575 11.9221 19.9567C11.9226 19.9564 11.9243 19.9555 11.9264 19.9543C11.9273 19.9538 11.9295 19.9525 11.9322 19.9509C11.9336 19.9501 11.9369 19.9481 11.9389 19.947C11.9419 19.9451 11.95 19.94 11.9552 19.9366C11.9662 19.929 12.0166 19.8885 12.0526 19.852C12.1469 19.3443 11.6311 19.0222 11.5228 19.0449C11.505 19.0511 11.4803 19.061 11.4733 19.0641C11.4696 19.0658 11.4635 19.0687 11.4611 19.0698C11.4568 19.0719 11.4535 19.0735 11.4524 19.0741C11.4509 19.0749 11.4497 19.0755 11.449 19.0759C11.4466 19.0771 11.4447 19.0781 11.4445 19.0782C11.4439 19.0785 11.4433 19.0788 11.443 19.079C11.4424 19.0793 11.4418 19.0796 11.4414 19.0799C11.4398 19.0807 11.4373 19.0821 11.4339 19.0839L11.6711 19.524L11.9084 19.9642C11.9119 19.9623 11.9136 19.9614 11.9142 19.961C11.9143 19.961 11.9142 19.9611 11.9138 19.9612C11.9137 19.9613 11.9133 19.9615 11.9127 19.9618C11.9126 19.9619 11.9108 19.9628 11.9085 19.964C11.9078 19.9644 11.9066 19.965 11.9051 19.9658C11.904 19.9664 11.9007 19.968 11.8964 19.9701C11.8941 19.9712 11.888 19.9741 11.8842 19.9758C11.8772 19.9789 11.8525 19.9888 11.8347 19.995C11.7264 20.0177 11.2106 19.6956 11.3049 19.1879C11.3409 19.1514 11.3913 19.1108 11.4023 19.1033C11.4075 19.0999 11.4157 19.0948 11.4186 19.0929C11.4206 19.0917 11.4239 19.0898 11.4253 19.089C11.428 19.0873 11.4302 19.0861 11.4311 19.0856C11.4332 19.0844 11.4348 19.0835 11.4353 19.0832C11.4366 19.0825 11.4376 19.0819 11.4378 19.0818C11.4382 19.0816 11.4385 19.0815 11.4386 19.0814C11.4389 19.0812 11.4385 19.0814 11.4368 19.0824C11.4354 19.0831 11.4336 19.0841 11.4318 19.0851C11.4301 19.086 11.4284 19.0869 11.4271 19.0876C11.4265 19.088 11.426 19.0882 11.4257 19.0884C11.425 19.0887 11.4259 19.0883 11.4271 19.0876C11.4272 19.0876 11.429 19.0866 11.4312 19.0855C11.4319 19.0851 11.4331 19.0845 11.4347 19.0837C11.4354 19.0833 11.437 19.0825 11.4379 19.0821C11.4391 19.0815 11.442 19.08 11.4437 19.0792C11.4463 19.078 11.4532 19.0747 11.4576 19.0727C11.4665 19.0689 11.5032 19.055 11.5316 19.0464C11.9129 19.0969 12.1385 19.6796 11.9857 19.91C11.9662 19.9257 11.9386 19.9455 11.9312 19.9503C11.9274 19.9527 11.9213 19.9565 11.9189 19.9579C11.9174 19.9588 11.9147 19.9604 11.9136 19.9611C11.9113 19.9624 11.9094 19.9635 11.9086 19.964C11.9068 19.965 11.9054 19.9658 11.9049 19.966C11.9038 19.9667 11.9029 19.9671 11.9027 19.9672C11.9019 19.9677 11.9015 19.9679 11.9023 19.9675C11.9034 19.9669 11.9057 19.9656 11.9096 19.9635L11.6711 19.524ZM11.6711 19.524L11.433 19.0844C11.3578 19.1251 11.3218 19.1446 11.3098 19.1511C11.3083 19.1519 11.3071 19.1526 11.3063 19.153C11.3058 19.1533 11.3055 19.1535 11.3051 19.1537C11.3049 19.1538 11.3047 19.1539 11.3045 19.154C11.3044 19.154 11.3038 19.1544 11.3031 19.1548C11.3029 19.1549 11.3024 19.1552 11.302 19.1554C11.3015 19.1557 11.2999 19.1566 11.2988 19.1571C11.2956 19.159 11.0786 19.4089 11.0642 19.7362C11.3454 20.0524 11.7716 20.0381 11.7749 20.0364C11.776 20.0358 11.7777 20.035 11.7782 20.0347C11.7785 20.0345 11.7791 20.0342 11.7793 20.0341C11.7798 20.0338 11.7801 20.0337 11.7802 20.0336C11.7808 20.0333 11.7813 20.033 11.7816 20.0329C11.7822 20.0325 11.7831 20.0321 11.7841 20.0315C11.7883 20.0292 11.7965 20.0248 11.8067 20.0192C11.8273 20.0081 11.8564 19.9923 11.8787 19.9803C11.8898 19.9743 11.8993 19.9691 11.9052 19.9659C11.9078 19.9645 11.9104 19.9631 11.9119 19.9623C11.9122 19.9621 11.9126 19.9619 11.9131 19.9616C11.9131 19.9616 11.9146 19.9608 11.9165 19.9598C11.917 19.9594 11.9185 19.9586 11.9194 19.9581C11.9209 19.9572 11.9256 19.9545 11.9288 19.9526C11.9396 19.946 12.1413 19.3484 11.6102 19.0271C11.5349 19.0425 11.4563 19.0724 11.4499 19.0756C11.4475 19.0768 11.4439 19.0786 11.4426 19.0793C11.4419 19.0797 11.4406 19.0803 11.4401 19.0806C11.4391 19.0811 11.4383 19.0816 11.4379 19.0817C11.4367 19.0824 11.4356 19.083 11.4354 19.0831C11.4349 19.0834 11.4344 19.0836 11.4339 19.0839L11.6711 19.524L11.9084 19.9642C11.9088 19.964 11.9089 19.9639 11.909 19.9639C11.9093 19.9637 11.9085 19.9641 11.9075 19.9646C11.9072 19.9648 11.9065 19.9652 11.9055 19.9657C11.905 19.966 11.9037 19.9666 11.903 19.967C11.9017 19.9677 11.8981 19.9695 11.8957 19.9707C11.8893 19.9738 11.8108 20.0037 11.7354 20.0192C11.2043 19.6978 11.406 19.1003 11.4168 19.0936C11.42 19.0918 11.4247 19.0891 11.4262 19.0882C11.4271 19.0877 11.4285 19.0869 11.4291 19.0865C11.4302 19.0859 11.4311 19.0855 11.4314 19.0853C11.4318 19.0851 11.4321 19.0849 11.4322 19.0848C11.4326 19.0846 11.4328 19.0845 11.4329 19.0845C11.433 19.0844 11.4327 19.0846 11.4317 19.0851C11.4309 19.0856 11.4297 19.0862 11.4283 19.0869C11.4227 19.09 11.4134 19.095 11.4023 19.101C11.3802 19.113 11.3511 19.1288 11.3306 19.1399C11.3204 19.1454 11.3123 19.1498 11.3083 19.1519C11.3073 19.1525 11.3067 19.1528 11.3063 19.153C11.3061 19.1531 11.3063 19.153 11.3066 19.1528C11.3067 19.1528 11.3071 19.1526 11.3075 19.1524C11.3077 19.1523 11.3082 19.152 11.3085 19.1518C11.3091 19.1515 11.3107 19.1507 11.3118 19.1501C11.3151 19.1484 11.7413 19.1341 12.0225 19.4503C12.0081 19.7776 11.7911 20.0276 11.7879 20.0294C11.7869 20.03 11.7852 20.0309 11.7847 20.0312C11.7844 20.0313 11.7839 20.0316 11.7837 20.0317C11.7828 20.0322 11.782 20.0326 11.7825 20.0324C11.7826 20.0323 11.7828 20.0322 11.7832 20.032C11.7838 20.0316 11.7849 20.0311 11.7864 20.0303C11.7982 20.0238 11.834 20.0045 11.9093 19.9637L11.6711 19.524ZM12.9471 21.8883L12.4934 22.0985C12.4746 22.0579 12.4727 22.0117 12.4879 21.9698L12.9579 22.1404L13.4279 22.3111C13.5028 22.1048 13.493 21.8772 13.4008 21.6781L12.9471 21.8883ZM12.9579 22.1404L12.4879 21.9698C12.5032 21.9278 12.5346 21.893 12.576 21.8736L12.788 22.3264L13 22.7793C13.1993 22.686 13.353 22.5174 13.4279 22.3111L12.9579 22.1404ZM12.788 22.3264L12.5762 21.8735L12.2237 22.0384L12.4355 22.4913L12.6474 22.9442L12.9998 22.7794L12.788 22.3264ZM12.4355 22.4913L12.224 22.0382C12.2669 22.0182 12.3322 22.0152 12.3892 22.0411C12.434 22.0615 12.4531 22.0897 12.461 22.1059C12.469 22.1222 12.4825 22.1617 12.467 22.2191C12.4587 22.2495 12.4434 22.2795 12.4217 22.3047C12.4001 22.3298 12.3794 22.3419 12.3702 22.3462L12.1584 21.8933L11.9466 21.4404C11.7227 21.5451 11.5635 21.7297 11.5018 21.9576C11.4439 22.1712 11.4823 22.3809 11.5626 22.5452C11.7171 22.8611 12.1451 23.1787 12.6471 22.9443L12.4355 22.4913ZM12.1584 21.8933L12.3702 22.3462L12.7227 22.1814L12.5109 21.7285L12.2991 21.2756L11.9466 21.4404L12.1584 21.8933ZM12.5109 21.7285L12.7224 22.1815C12.6808 22.2009 12.6331 22.203 12.59 22.1872L12.7619 21.7177L12.9339 21.2482C12.7272 21.1725 12.4989 21.1823 12.2994 21.2754L12.5109 21.7285ZM12.7619 21.7177L12.59 22.1872C12.5469 22.1714 12.5124 22.1393 12.4936 22.0987L12.9471 21.8883L13.4007 21.6778C13.3083 21.4787 13.1406 21.3239 12.9339 21.2482L12.7619 21.7177ZM12.9471 21.8883L12.4935 22.0986C12.5031 22.1192 12.509 22.1321 12.5123 22.1391C12.5139 22.1427 12.5149 22.1447 12.5152 22.1454C12.5153 22.1457 12.5153 22.1456 12.5152 22.1453C12.5151 22.1452 12.515 22.1449 12.5148 22.1445C12.5147 22.1443 12.5143 22.1435 12.5141 22.1431C12.5136 22.1418 12.5088 22.131 12.5048 22.1213C12.7661 21.479 13.4194 21.7184 13.4208 21.7213C13.4212 21.7221 13.4217 21.7232 13.4219 21.7236C13.4221 21.7241 13.4223 21.7245 13.4223 21.7246C13.4225 21.7249 13.4225 21.725 13.4221 21.7241C13.4198 21.7191 13.4103 21.6985 13.4007 21.6778C13.3911 21.6572 13.3816 21.6366 13.3792 21.6316C13.3788 21.6307 13.3789 21.6308 13.379 21.6312C13.3791 21.6312 13.3793 21.6317 13.3795 21.6323C13.3797 21.6327 13.3803 21.634 13.3808 21.635C13.3829 21.6398 13.1353 22.2941 12.4783 22.0652C12.4759 22.0605 12.4732 22.0548 12.4727 22.0538C12.4725 22.0534 12.4722 22.0528 12.4721 22.0525C12.472 22.0522 12.4718 22.0519 12.4718 22.0518C12.4717 22.0516 12.4716 22.0515 12.4718 22.0517C12.4721 22.0525 12.473 22.0545 12.4747 22.058C12.478 22.0651 12.484 22.078 12.4935 22.0987L12.9471 21.8883L13.4007 21.6779C13.3911 21.6572 13.3851 21.6443 13.3818 21.6372C13.3802 21.6336 13.3791 21.6314 13.3787 21.6304C13.3786 21.6302 13.3784 21.6298 13.3782 21.6294C13.3782 21.6293 13.378 21.629 13.3778 21.6286C13.3777 21.6284 13.3774 21.6277 13.3772 21.6273C13.3768 21.6264 13.374 21.6206 13.3717 21.6159C12.7146 21.387 12.467 22.0413 12.4692 22.0461C12.4696 22.0471 12.4702 22.0484 12.4704 22.0489C12.4707 22.0495 12.4709 22.0499 12.471 22.05C12.4712 22.0506 12.4717 22.0515 12.4719 22.052C12.4743 22.0572 12.4839 22.078 12.4935 22.0985C12.503 22.1191 12.5126 22.1399 12.5151 22.1452C12.5153 22.1456 12.5157 22.1465 12.516 22.1471C12.516 22.1472 12.5162 22.1476 12.5165 22.1482C12.5167 22.1485 12.5172 22.1497 12.5176 22.1504C12.519 22.1534 13.1723 22.3928 13.4335 21.7505C13.4295 21.7408 13.4248 21.7299 13.4242 21.7287C13.424 21.7282 13.4237 21.7275 13.4236 21.7272C13.4234 21.7268 13.4232 21.7264 13.4232 21.7264C13.423 21.726 13.4228 21.7255 13.4227 21.7253C13.4222 21.7243 13.4212 21.7221 13.4196 21.7186C13.4163 21.7115 13.4103 21.6986 13.4007 21.678L12.9471 21.8883ZM12.4229 20.994L11.9692 21.2042C11.9504 21.1636 11.9485 21.1174 11.9637 21.0755L12.4337 21.2461L12.9037 21.4168C12.9785 21.2105 12.9688 20.9829 12.8766 20.7838L12.4229 20.994ZM12.4337 21.2461L11.9637 21.0755C11.9789 21.0335 12.0104 20.9987 12.0518 20.9793L12.2638 21.4322L12.4758 21.885C12.6751 21.7917 12.8288 21.6231 12.9037 21.4168L12.4337 21.2461ZM12.2638 21.4322L12.052 20.9792L11.6996 21.144L11.9114 21.5969L12.1232 22.0499L12.4756 21.8851L12.2638 21.4322ZM11.9114 21.5969L11.6999 21.1439C11.7428 21.1239 11.808 21.1208 11.865 21.1468C11.9099 21.1672 11.9289 21.1954 11.9369 21.2116C11.9449 21.2279 11.9584 21.2674 11.9429 21.3248C11.9346 21.3551 11.9193 21.3851 11.8976 21.4103C11.876 21.4355 11.8554 21.4475 11.8461 21.4518L11.6342 20.999L11.4223 20.5461C11.1985 20.6508 11.0394 20.8354 10.9776 21.0633C10.9198 21.2769 10.9582 21.4865 11.0385 21.6508C11.193 21.9668 11.621 22.2844 12.1229 22.05L11.9114 21.5969ZM11.6342 20.999L11.846 21.4519L12.1984 21.2871L11.9867 20.8342L11.7749 20.3813L11.4225 20.546L11.6342 20.999ZM11.9867 20.8342L12.1983 21.2872C12.1567 21.3066 12.109 21.3087 12.0658 21.2929L12.2377 20.8234L12.4097 20.3539C12.2029 20.2781 11.9745 20.288 11.775 20.3812L11.9867 20.8342ZM12.2377 20.8234L12.0658 21.2929C12.0226 21.2771 11.9881 21.245 11.9693 21.2043L12.4229 20.994L12.8765 20.7837C12.7842 20.5845 12.6165 20.4296 12.4097 20.3539L12.2377 20.8234ZM12.4229 20.994L11.9692 21.2042C11.9788 21.2248 11.9847 21.2377 11.988 21.2448C11.9897 21.2484 11.9906 21.2504 11.991 21.2511C11.9911 21.2514 11.9911 21.2513 11.991 21.2512C11.991 21.2511 11.9909 21.2509 11.9907 21.2506C11.9906 21.2504 11.9904 21.2499 11.9903 21.2496C11.9899 21.2488 11.9874 21.2433 11.9854 21.2386C12.2365 20.5872 12.8956 20.8249 12.897 20.8279C12.8973 20.8286 12.8978 20.8296 12.8979 20.8299C12.8981 20.8303 12.8983 20.8307 12.8983 20.8307C12.8984 20.8309 12.8984 20.8309 12.898 20.8301C12.8957 20.825 12.8861 20.8045 12.8766 20.7838C12.867 20.7631 12.8575 20.7426 12.8551 20.7375C12.8547 20.7367 12.8547 20.7367 12.8548 20.7369C12.8548 20.7369 12.855 20.7373 12.8552 20.7377C12.8553 20.738 12.8557 20.7389 12.856 20.7395C12.8573 20.7423 12.6141 21.3986 11.9544 21.1715C11.9517 21.1661 11.9486 21.1598 11.9482 21.1589C11.9481 21.1586 11.9478 21.158 11.9477 21.1579C11.9476 21.1576 11.9475 21.1573 11.9475 21.1573C11.9474 21.1571 11.9474 21.157 11.9475 21.1573C11.9479 21.1581 11.9488 21.1601 11.9504 21.1637C11.9537 21.1707 11.9597 21.1836 11.9692 21.2042L12.4229 20.994L12.8765 20.7837C12.867 20.7631 12.861 20.7502 12.8577 20.7431C12.8561 20.7396 12.8551 20.7374 12.8546 20.7364C12.8545 20.7362 12.8543 20.7358 12.8542 20.7355C12.8542 20.7354 12.854 20.7352 12.8539 20.7349C12.8538 20.7347 12.8535 20.7341 12.8534 20.7338C12.853 20.7329 12.8499 20.7266 12.8473 20.7212C12.1875 20.4941 11.9444 21.1504 11.9456 21.1531C11.9459 21.1538 11.9463 21.1547 11.9464 21.155C11.9466 21.1555 11.9468 21.1558 11.9468 21.1559C11.9471 21.1564 11.9474 21.1572 11.9477 21.1577C11.9501 21.1629 11.9597 21.1836 11.9692 21.2042C11.9788 21.2248 11.9884 21.2456 11.9908 21.2508C11.991 21.2513 11.9914 21.2521 11.9916 21.2526C11.9917 21.2526 11.9918 21.253 11.992 21.2534C11.9922 21.2537 11.9926 21.2547 11.993 21.2554C11.9944 21.2584 12.6534 21.4962 12.9046 20.8447C12.9025 20.84 12.9001 20.8346 12.8997 20.8338C12.8996 20.8334 12.8993 20.8329 12.8992 20.8327C12.8991 20.8324 12.899 20.8321 12.8989 20.8321C12.8988 20.8317 12.8986 20.8314 12.8985 20.8312C12.8981 20.8302 12.8971 20.828 12.8954 20.8245C12.8921 20.8174 12.8861 20.8045 12.8766 20.7838L12.4229 20.994ZM11.8937 20.52L11.6819 20.0671L11.3295 20.2319L11.5413 20.6848L11.7531 21.1377L12.1055 20.973L11.8937 20.52ZM11.5413 20.6848L11.3298 20.2317C11.3727 20.2117 11.4379 20.2087 11.4949 20.2346C11.5398 20.2551 11.5589 20.2832 11.5668 20.2995C11.5748 20.3158 11.5883 20.3552 11.5728 20.4126C11.5646 20.443 11.5492 20.473 11.5275 20.4982C11.5059 20.5233 11.4853 20.5354 11.4761 20.5397L11.2642 20.0868L11.0523 19.634C10.8284 19.7387 10.6693 19.9233 10.6076 20.1512C10.5497 20.3647 10.5881 20.5744 10.6684 20.7387C10.8229 21.0547 11.2509 21.3722 11.7528 21.1379L11.5413 20.6848ZM11.2642 20.0868L11.4759 20.5398L11.8284 20.375L11.6166 19.9221L11.4048 19.4691L11.0524 19.6339L11.2642 20.0868ZM11.6166 19.9221L11.828 20.3752C11.7865 20.3945 11.7388 20.3966 11.6957 20.3808L11.8677 19.9113L12.0396 19.4418C11.8329 19.3661 11.6046 19.3759 11.4052 19.4689L11.6166 19.9221ZM11.8677 19.9113L11.6957 20.3808C11.6527 20.3651 11.6182 20.333 11.5994 20.2924L12.0529 20.0819L12.5064 19.8713C12.4139 19.6722 12.2463 19.5175 12.0396 19.4418L11.8677 19.9113ZM12.0529 20.0819L11.5991 20.2919C11.5804 20.2514 11.5784 20.2052 11.5937 20.1633L12.0636 20.334L12.5336 20.5047C12.6085 20.2985 12.5988 20.0709 12.5066 19.8718L12.0529 20.0819ZM12.0636 20.334L11.5937 20.1633C11.6089 20.1214 11.6403 20.0866 11.6817 20.0672L11.8937 20.52L12.1057 20.9729C12.305 20.8796 12.4586 20.711 12.5336 20.5047L12.0636 20.334ZM10.1369 20.2537L9.92516 19.8008L9.81275 19.8533L10.0245 20.3063L10.2362 20.7592L10.3486 20.7067L10.1369 20.2537ZM10.0245 20.3063L9.81272 19.8533C8.75531 20.3476 8.28435 21.6362 8.77866 22.6991L9.23203 22.4882L9.6854 22.2774C9.42368 21.7146 9.67837 21.02 10.2362 20.7592L10.0245 20.3063ZM9.23203 22.4882L8.77866 22.6991C9.2767 23.77 10.5514 24.236 11.6215 23.7355L11.4097 23.2826L11.1978 22.8297C10.6302 23.0952 9.95084 22.8481 9.6854 22.2774L9.23203 22.4882ZM11.4097 23.2826L11.6216 23.7355L11.7331 23.6833L11.5212 23.2304L11.3092 22.7776L11.1978 22.8297L11.4097 23.2826ZM11.5212 23.2304L11.921 22.9302C11.2991 22.102 10.8573 21.1519 10.6241 20.1413L10.1369 20.2537L9.64967 20.3661C9.91421 21.5126 10.4155 22.5907 11.1213 23.5307L11.5212 23.2304ZM17.4344 18.6545L17.8878 18.4437C17.0623 16.6687 16.4843 14.9921 16.2253 13.7218L15.7353 13.8218L15.2454 13.9217C15.5247 15.291 16.1339 17.044 16.981 18.8654L17.4344 18.6545ZM15.7353 13.8218L15.2563 13.6785L14.7284 15.4438L15.2075 15.5871L15.6865 15.7303L16.2144 13.965L15.7353 13.8218ZM15.2075 15.5871L14.7284 15.4438C14.3999 16.5425 13.4358 17.671 12.3662 18.4791L12.6675 18.8781L12.9689 19.277C14.1259 18.403 15.2729 17.1137 15.6865 15.7303L15.2075 15.5871ZM12.6675 18.8781L12.1758 18.9686C12.4141 20.2626 12.9777 21.4743 13.8132 22.4887L14.1992 22.1708L14.5851 21.8529C13.8577 20.9698 13.3669 19.9147 13.1593 18.7875L12.6675 18.8781ZM14.1992 22.1708L14.312 22.6579C15.6169 22.3557 17.0983 22.3407 18.148 22.7943L18.3463 22.3353L18.5447 21.8763C17.221 21.3043 15.4978 21.3568 14.0863 21.6836L14.1992 22.1708ZM18.3463 22.3353L18.148 22.7943L19.8352 23.5232L20.0335 23.0642L20.2318 22.6052L18.5446 21.8763L18.3463 22.3353ZM20.0335 23.0642L20.4255 22.7538C19.6218 21.7386 18.7129 20.2178 17.8878 18.4437L17.4344 18.6545L16.981 18.8654C17.8278 20.6859 18.775 22.2799 19.6415 23.3745L20.0335 23.0642ZM17.4344 18.6545L17.8878 18.4437C17.7832 18.2189 17.7179 18.0784 17.6819 18.0011C17.664 17.9625 17.6534 17.9396 17.6489 17.93C17.6477 17.9276 17.647 17.926 17.6466 17.9252C17.6465 17.925 17.6465 17.9249 17.6465 17.9248C17.6464 17.9248 17.6464 17.9248 17.6464 17.9248C17.6465 17.9248 17.6467 17.9254 17.6469 17.9258C17.4037 18.5888 16.7399 18.3469 16.7398 18.3466C16.7397 18.3466 16.7397 18.3465 16.7397 18.3465C16.7397 18.3465 16.7398 18.3466 16.7399 18.3468C16.7405 18.3482 16.7425 18.3525 16.7458 18.3595C16.7719 18.4157 16.8764 18.6404 16.9809 18.8651C17.0854 19.0898 17.19 19.3145 17.2161 19.3708C17.2194 19.3778 17.2214 19.3822 17.2221 19.3836C17.2221 19.3837 17.2222 19.3838 17.2222 19.3839C17.2222 19.3839 17.2222 19.3838 17.2222 19.3838C17.222 19.3835 17.4645 18.7201 18.1283 18.9608C18.1286 18.9614 18.1289 18.9621 18.1289 18.9621C18.1289 18.9621 18.1289 18.9622 18.1289 18.9621C18.1289 18.9621 18.1288 18.9619 18.1287 18.9617C18.1284 18.961 18.1276 18.9594 18.1265 18.957C18.122 18.9473 18.1114 18.9246 18.0935 18.8859C18.0576 18.8087 17.9923 18.6683 17.8878 18.4437L17.4344 18.6545L16.981 18.8654C17.0855 19.0901 17.1508 19.2305 17.1868 19.3077C17.2047 19.3463 17.2153 19.3691 17.2198 19.3787C17.2209 19.3812 17.2217 19.3828 17.2221 19.3836C17.2222 19.3838 17.2222 19.384 17.2223 19.3841C17.2223 19.3842 17.2224 19.3843 17.2224 19.3844C17.2225 19.3845 17.2228 19.3852 17.2231 19.3858C17.8869 19.6265 18.1293 18.9631 18.1292 18.9628C18.1292 18.9627 18.1291 18.9625 18.1291 18.9625C18.129 18.9623 18.1289 18.9622 18.1288 18.962C18.1282 18.9605 18.1261 18.9561 18.1228 18.9491C18.0967 18.8928 17.9921 18.6681 17.8876 18.4434C17.7831 18.2186 17.6786 17.9939 17.6525 17.9378C17.6492 17.9308 17.6472 17.9264 17.6465 17.9249C17.6464 17.9247 17.6463 17.9246 17.6463 17.9244C17.6462 17.9244 17.6462 17.9242 17.6461 17.9241C17.646 17.9238 16.9822 17.6819 16.739 18.3449C16.7392 18.3453 16.7394 18.3459 16.7395 18.346C16.7395 18.3461 16.7396 18.3462 16.7396 18.3463C16.7397 18.3464 16.7397 18.3466 16.7398 18.3468C16.7402 18.3476 16.741 18.3492 16.7421 18.3517C16.7466 18.3613 16.7572 18.3842 16.7752 18.4228C16.8112 18.5001 16.8765 18.6406 16.981 18.8654L17.4344 18.6545ZM28.65 21.8844V21.3844C27.0471 21.3844 25.7489 22.6945 25.7489 24.2996H26.2489H26.7489C26.7489 23.2412 27.6049 22.3844 28.65 22.3844V21.8844ZM26.2489 24.2996H25.7489C25.7489 25.9046 27.0471 27.2147 28.65 27.2147V26.7147V26.2147C27.6049 26.2147 26.7489 25.3579 26.7489 24.2996H26.2489ZM28.65 26.7147V27.2147C30.2529 27.2147 31.5511 25.9046 31.5511 24.2996H31.0511H30.5511C30.5511 25.3579 29.6951 26.2147 28.65 26.2147V26.7147ZM31.0511 24.2996H31.5511C31.5511 22.6945 30.2529 21.3844 28.65 21.3844V21.8844V22.3844C29.6951 22.3844 30.5511 23.2413 30.5511 24.2996H31.0511ZM28.8307 25.4558H28.3307V25.8577H28.8307H29.3307V25.4558H28.8307ZM28.8307 25.8577V25.3577H28.4287V25.8577V26.3577H28.8307V25.8577ZM28.4287 25.8577H28.9287V25.478H28.4287H27.9287V25.8577H28.4287ZM28.4287 25.478L28.4767 24.9803C28.3328 24.9664 28.248 24.9266 28.2188 24.9004L27.8847 25.2724L27.5507 25.6444C27.8107 25.8779 28.1464 25.9531 28.3807 25.9757L28.4287 25.478ZM27.8847 25.2724L28.3555 25.441L28.5001 25.037L28.0294 24.8685L27.5587 24.6999L27.414 25.1038L27.8847 25.2724ZM28.0294 24.8685L27.7518 25.2843C27.9526 25.4183 28.2249 25.5679 28.5834 25.5679V25.0679V24.5679C28.5189 24.5679 28.4479 24.5467 28.307 24.4526L28.0294 24.8685ZM28.5834 25.0679V25.5679C28.7658 25.5679 28.9659 25.5204 29.1325 25.3908C29.3093 25.2533 29.4178 25.0443 29.4178 24.8077H28.9178H28.4178C28.4178 24.773 28.4257 24.7321 28.4459 24.6916C28.4658 24.6514 28.4928 24.6215 28.5185 24.6015C28.5679 24.5631 28.6008 24.5679 28.5834 24.5679V25.0679ZM28.9178 24.8077H29.4178C29.4178 24.6716 29.3852 24.4911 29.2403 24.3206C29.1165 24.1749 28.9447 24.078 28.7609 24.0034L28.5729 24.4668L28.3849 24.9301C28.4409 24.9528 28.472 24.97 28.4868 24.9794C28.5013 24.9886 28.4937 24.9863 28.4782 24.9681C28.4607 24.9475 28.442 24.9169 28.4299 24.8785C28.4184 24.8423 28.4178 24.8147 28.4178 24.8077H28.9178ZM28.5729 24.4668L28.7556 24.0013C28.6012 23.9407 28.5154 23.892 28.4694 23.8496C28.4508 23.8325 28.4451 23.822 28.4432 23.8178C28.4418 23.8147 28.4365 23.8031 28.4365 23.7735H27.9365H27.4365C27.4365 24.1222 27.5824 24.3922 27.792 24.5852C27.9814 24.7597 28.2138 24.8629 28.3902 24.9322L28.5729 24.4668ZM27.9365 23.7735H28.4365C28.4365 23.7397 28.4468 23.7141 28.4671 23.6906C28.4895 23.6644 28.5315 23.6337 28.598 23.6166L28.4734 23.1324L28.3487 22.6482C27.8573 22.7747 27.4365 23.1891 27.4365 23.7735H27.9365ZM28.4734 23.1324H28.9734V22.7582H28.4734H27.9734V23.1324H28.4734ZM28.4734 22.7582V23.2582H28.8754V22.7582V22.2582H28.4734V22.7582ZM28.8754 22.7582H28.3754V23.1077H28.8754H29.3754V22.7582H28.8754ZM28.8754 23.1077L28.8194 23.6045C28.9217 23.6161 29.0007 23.6467 29.0496 23.6818L29.3409 23.2754L29.6321 22.8689C29.4108 22.7103 29.157 22.6363 28.9314 22.6108L28.8754 23.1077ZM29.3409 23.2754L28.8733 23.0983L28.7228 23.4958L29.1904 23.6728L29.658 23.8499L29.8085 23.4524L29.3409 23.2754ZM29.1904 23.6728L29.4387 23.2388C29.2656 23.1398 29.0225 23.0134 28.6997 23.0134V23.5134V24.0134C28.7499 24.0134 28.8023 24.0268 28.9422 24.1068L29.1904 23.6728ZM28.6997 23.5134V23.0134C28.5073 23.0134 28.3023 23.0653 28.14 23.2124C27.976 23.3611 27.9114 23.5575 27.9114 23.731H28.4114H28.9114C28.9114 23.7994 28.8848 23.8869 28.8117 23.9532C28.7405 24.0178 28.6796 24.0134 28.6997 24.0134V23.5134ZM28.4114 23.731H27.9114C27.9114 23.8006 27.9199 23.8969 27.9634 24.0018C28.0075 24.1081 28.0741 24.1911 28.1458 24.2556C28.2704 24.3679 28.4384 24.4474 28.6053 24.5165L28.7965 24.0545L28.9878 23.5925C28.9139 23.5619 28.8659 23.5391 28.835 23.5225C28.8029 23.5051 28.8024 23.5013 28.8151 23.5127C28.8317 23.5276 28.8638 23.5624 28.8871 23.6187C28.9099 23.6736 28.9114 23.7182 28.9114 23.731H28.4114ZM28.7965 24.0545L28.6075 24.5174C28.7289 24.5669 28.8037 24.6118 28.8467 24.6547C28.8649 24.673 28.8746 24.6883 28.8806 24.7022C28.8863 24.7154 28.8939 24.7397 28.8939 24.783H29.3939H29.8939C29.8939 24.4271 29.755 24.1489 29.5538 23.9476C29.368 23.7619 29.1442 23.6564 28.9856 23.5916L28.7965 24.0545ZM29.3939 24.783L28.8939 24.7829C28.8939 24.8376 28.878 24.8708 28.86 24.8927C28.8415 24.9152 28.8011 24.9491 28.7162 24.9691L28.8307 25.4558L28.9452 25.9426C29.5132 25.8089 29.8938 25.3563 29.8939 24.7831L29.3939 24.783ZM16.0063 2.33203V1.83203C14.2225 1.83203 12.7769 3.28992 12.7769 5.07698H13.2769H13.7769C13.7769 3.83685 14.7801 2.83203 16.0063 2.83203V2.33203ZM13.2769 5.07698H12.7769C12.7769 6.86399 14.2226 8.32186 16.0063 8.32186V7.82186V7.32186C14.7801 7.32186 13.7769 6.31702 13.7769 5.07698H13.2769ZM16.0063 7.82186V8.32186C17.7902 8.32186 19.2358 6.86398 19.2358 5.07698H18.7358H18.2358C18.2358 6.31703 17.2326 7.32186 16.0063 7.32186V7.82186ZM18.7358 5.07698H19.2358C19.2358 3.28985 17.7902 1.83203 16.0063 1.83203V2.33203V2.83203C17.2326 2.83203 18.2358 3.8368 18.2358 5.07698H18.7358ZM16.187 6.23326H15.687V6.63514H16.187H16.687V6.23326H16.187ZM16.187 6.63514V6.13514H15.785V6.63514V7.13514H16.187V6.63514ZM15.785 6.63514H16.285V6.25542H15.785H15.285V6.63514H15.785ZM15.785 6.25542L15.8332 5.75775C15.7017 5.745 15.611 5.70689 15.5596 5.66441L15.2411 6.04981L14.9225 6.43521C15.1756 6.64434 15.4791 6.72811 15.7368 6.75309L15.785 6.25542ZM15.2411 6.04981L15.7118 6.21837L15.8565 5.81444L15.3857 5.64587L14.915 5.47731L14.7703 5.88124L15.2411 6.04981ZM15.3857 5.64587L15.108 6.06164C15.3088 6.19579 15.5823 6.34532 15.9398 6.34532V5.84532V5.34532C15.8759 5.34532 15.8035 5.32366 15.6635 5.2301L15.3857 5.64587ZM15.9398 5.84532V6.34532C16.1221 6.34532 16.3222 6.29786 16.4888 6.16828C16.6656 6.03081 16.7741 5.82186 16.7741 5.58518H16.2741H15.7741C15.7741 5.5504 15.7821 5.50952 15.8022 5.46897C15.8222 5.4288 15.8491 5.39893 15.8749 5.37889C15.9243 5.34049 15.9572 5.34532 15.9398 5.34532V5.84532ZM16.2741 5.58518H16.7741C16.7741 5.44912 16.7415 5.26857 16.5966 5.09807C16.4728 4.9524 16.301 4.85551 16.1172 4.78093L15.9292 5.24424L15.7412 5.70755C15.7972 5.73027 15.8283 5.74745 15.8431 5.75685C15.8577 5.76612 15.85 5.76375 15.8346 5.74559C15.8171 5.725 15.7983 5.69437 15.7862 5.65597C15.7748 5.61979 15.7741 5.5922 15.7741 5.58518H16.2741ZM15.9292 5.24424L16.112 4.77885C15.9576 4.7182 15.8718 4.66945 15.8257 4.62702C15.8071 4.60988 15.8015 4.59942 15.7995 4.59525C15.7981 4.59214 15.7928 4.58051 15.7928 4.55103H15.2928H14.7928C14.7928 4.89966 14.9388 5.16971 15.1483 5.36265C15.3377 5.53707 15.5701 5.64037 15.7464 5.70963L15.9292 5.24424ZM15.2928 4.55103H15.7928C15.7928 4.51721 15.8032 4.49158 15.8234 4.46805C15.8458 4.44189 15.8878 4.4112 15.9544 4.39408L15.8297 3.90986L15.7051 3.42565C15.2137 3.55215 14.7928 3.96657 14.7928 4.55103H15.2928ZM15.8297 3.90986H16.3297V3.53562H15.8297H15.3297V3.90986H15.8297ZM15.8297 3.53562V4.03562H16.2317V3.53562V3.03562H15.8297V3.53562ZM16.2317 3.53562H15.7317V3.88515H16.2317H16.7317V3.53562H16.2317ZM16.2317 3.88515L16.1758 4.38202C16.268 4.39239 16.3492 4.42193 16.4206 4.46933L16.6972 4.05285L16.9739 3.63637C16.7645 3.49728 16.5307 3.41564 16.2876 3.38829L16.2317 3.88515ZM16.6972 4.05285L16.2296 3.87582L16.0791 4.27328L16.5467 4.45031L17.0144 4.62735L17.1648 4.22988L16.6972 4.05285ZM16.5467 4.45031L16.7952 4.01642C16.6217 3.91707 16.378 3.79083 16.056 3.79083V4.29083V4.79083C16.1057 4.79083 16.1589 4.8044 16.2983 4.88421L16.5467 4.45031ZM16.056 4.29083V3.79083C15.8637 3.79083 15.6586 3.84269 15.4963 3.98982C15.3322 4.13864 15.2678 4.33501 15.2678 4.50852H15.7678H16.2678C16.2678 4.57676 16.2412 4.66429 16.1681 4.73058C16.0969 4.79518 16.0359 4.79083 16.056 4.79083V4.29083ZM15.7678 4.50852H15.2678C15.2678 4.57811 15.2763 4.67442 15.3197 4.77925C15.3638 4.88555 15.4304 4.96852 15.502 5.03306C15.6267 5.14537 15.7946 5.22482 15.9615 5.29393L16.1528 4.83196L16.3441 4.36999C16.2703 4.33944 16.2222 4.31662 16.1914 4.29997C16.1593 4.28261 16.1588 4.27877 16.1715 4.29019C16.188 4.30509 16.2201 4.33987 16.2435 4.39619C16.2662 4.45106 16.2678 4.49563 16.2678 4.50852H15.7678ZM16.1528 4.83196L15.9637 5.29485C16.0852 5.34443 16.16 5.38925 16.2029 5.4322C16.2212 5.45048 16.2309 5.46578 16.2368 5.47964C16.2425 5.49292 16.2502 5.51716 16.2502 5.56047H16.7502H17.2502C17.2502 5.20457 17.1113 4.92639 16.91 4.72511C16.7243 4.53936 16.5004 4.43385 16.3418 4.36908L16.1528 4.83196ZM16.7502 5.56047L16.2502 5.56056C16.2502 5.61517 16.2343 5.64824 16.2164 5.6701C16.1979 5.69262 16.1575 5.72655 16.0726 5.74653L16.187 6.23326L16.3015 6.71998C16.8696 6.5864 17.2503 6.13374 17.2502 5.56037L16.7502 5.56047ZM16.9411 27.2777L17.3568 27L14.4303 22.62L14.0145 22.8978L13.5988 23.1755L16.5253 27.5555L16.9411 27.2777ZM14.0145 22.8978L13.8814 22.4158C13.3098 22.5737 12.7902 22.8128 12.2992 23.0423L12.511 23.4953L12.7227 23.9482C13.2185 23.7165 13.6676 23.5124 14.1477 23.3797L14.0145 22.8978ZM12.511 23.4953L12.0753 23.7405L14.6835 28.3746L15.1192 28.1294L15.555 27.8841L12.9467 23.25L12.511 23.4953ZM15.1192 28.1294L15.331 28.5823L17.1528 27.7307L16.9411 27.2777L16.7293 26.8248L14.9075 27.6764L15.1192 28.1294ZM15.4669 26.398L15.6788 26.8509C15.6526 26.8632 15.6226 26.8645 15.5954 26.8546L15.7668 26.3849L15.9382 25.9152C15.7155 25.8339 15.4697 25.8447 15.255 25.9451L15.4669 26.398ZM15.7668 26.3849L15.5954 26.8546C15.5683 26.8447 15.5468 26.8246 15.5351 26.7995L15.9883 26.5883L16.4415 26.3772C16.3417 26.1629 16.1609 25.9964 15.9382 25.9152L15.7668 26.3849ZM15.9883 26.5883L15.5349 26.7991C15.5291 26.7865 15.5258 26.773 15.5252 26.7592L16.0247 26.7375L16.5242 26.7158C16.5191 26.5987 16.4911 26.4838 16.4417 26.3775L15.9883 26.5883ZM16.0247 26.7375L15.5252 26.7592C15.5246 26.7454 15.5267 26.7316 15.5314 26.7186L16.0014 26.8892L16.4714 27.0599C16.5114 26.9497 16.5293 26.8328 16.5242 26.7158L16.0247 26.7375ZM16.0014 26.8892L15.5314 26.7186C15.5361 26.7056 15.5434 26.6935 15.5529 26.6831L15.922 27.0204L16.291 27.3578C16.3701 27.2713 16.4314 27.17 16.4714 27.0599L16.0014 26.8892ZM15.922 27.0204L15.5529 26.6831C15.5625 26.6726 15.5741 26.6641 15.5871 26.658L15.7985 27.1111L16.0099 27.5642C16.1163 27.5146 16.2118 27.4444 16.291 27.3578L15.922 27.0204ZM15.7985 27.1111L15.5867 26.6582C15.6417 26.6325 15.7058 26.6569 15.7305 26.71L15.2771 26.9208L14.8237 27.1317C15.0316 27.5785 15.5627 27.7734 16.0103 27.564L15.7985 27.1111ZM15.2771 26.9208L15.7305 26.71C15.7548 26.7623 15.7328 26.8257 15.6786 26.851L15.4669 26.398L15.2551 25.9451C14.8082 26.154 14.6162 26.6855 14.8237 27.1317L15.2771 26.9208Z" fill="white" mask="url(#path-2-outside-1_4408_68)"/>
<path d="M6.19238 21.3096L6.2041 30.041L6.20508 30.291H4.52734V21.3809L4.75684 21.3613C5.13087 21.3302 5.49712 21.2358 5.83984 21.082L6.19238 20.9238V21.3096ZM13.3994 17.7334L12.8945 18.1729C12.4482 18.5611 11.9562 18.9197 11.4209 19.1992L11.1885 19.3135L9.85938 19.9355C8.85277 20.4065 8.39885 21.6485 8.87012 22.6621L8.96777 22.8477C9.4983 23.7395 10.6304 24.1018 11.5879 23.6543L11.8145 23.5488L12.0244 23.4502L12.1387 23.6523L14.9209 28.5967L14.9404 28.6191C14.9633 28.6367 14.9958 28.6417 15.0215 28.6299L17.4668 27.4873L17.4912 27.4678C17.4984 27.4591 17.5043 27.4483 17.5078 27.4355C17.5113 27.4229 17.5115 27.4107 17.5098 27.3994L17.499 27.3691L14.499 22.8799L14.2881 22.5645L14.6611 22.4951C15.8499 22.2746 17.1965 22.2817 18.1924 22.7119L21.5918 24.1807C21.9886 24.3227 22.1758 24.2304 22.2676 24.1533C22.3836 24.0558 22.4172 23.9331 22.4443 23.8721L22.4453 23.8711V23.8691L22.5107 23.6924C22.5676 23.5031 22.6013 23.2774 22.6162 23.0293C22.636 22.7014 22.6218 22.3501 22.5918 22.0205V22.0195C22.4965 20.9429 22.1839 19.5643 21.6064 18.0742L21.4736 17.7334H24.8174V30.291H6.36133V30.042L6.34863 20.9307V20.8027L6.45117 20.7275C7.3141 20.0967 7.8424 19.056 7.83301 17.9863L7.83008 17.7334H13.3994ZM14.709 15.8438L14.5146 16.2109C14.275 16.6624 13.953 17.096 13.5918 17.4922L13.5176 17.5742H7.81055L7.77246 17.3711C7.7146 17.0664 7.61482 16.7714 7.47656 16.4951L7.32617 16.2256L7.08789 15.8438H14.709Z" fill="url(#paint2_linear_4408_68)" stroke="white" stroke-width="0.5"/>
<path d="M5.79102 17.8184C6.01332 17.8676 6.11319 18.0722 6.15234 18.1963C6.20113 18.3509 6.20703 18.5205 6.20703 18.6104C6.20701 18.7021 6.20055 18.8737 6.15234 19.0303C6.10891 19.1713 5.98684 19.4258 5.6875 19.4258C5.39313 19.4258 5.26688 19.1798 5.2207 19.0381C5.17003 18.8825 5.16199 18.712 5.16309 18.6162C5.16339 18.4605 5.18737 18.2856 5.24902 18.1396C5.30653 18.0035 5.43868 17.8076 5.6875 17.8076L5.79102 17.8184ZM3.36816 16.5762C3.58163 16.6205 3.68578 16.8058 3.72949 16.9346C3.78094 17.0863 3.78905 17.2576 3.78906 17.3682C3.78906 17.4599 3.78356 17.6323 3.73535 17.7891C3.692 17.9298 3.5694 18.1843 3.27051 18.1846C2.97426 18.1846 2.84895 17.9374 2.80371 17.7939C2.75447 17.6378 2.7478 17.4673 2.75 17.3721C2.75048 17.252 2.76723 17.0832 2.82031 16.9346C2.86794 16.8014 2.99302 16.5664 3.27051 16.5664L3.36816 16.5762ZM26.6328 30.291H24.9727V17.6543L24.9668 17.623C24.9628 17.6133 24.9565 17.604 24.9492 17.5967C24.942 17.5895 24.9331 17.5839 24.9238 17.5801L24.8945 17.5742H21.4033L21.3379 17.4229C21.2673 17.2587 21.1943 17.0957 21.1191 16.9336L20.9453 16.5693L20.7627 16.209L20.5732 15.8438H25.8018C26.261 15.8439 26.6326 16.218 26.6328 16.6768V22.3408L26.5693 22.4121C26.1033 22.9322 25.8477 23.5971 25.8477 24.2998C25.8477 25.0023 26.1024 25.6674 26.5684 26.1875L26.6328 26.2588V30.291Z" fill="url(#paint3_linear_4408_68)" stroke="white" stroke-width="0.5"/>
<path d="M4.47949 14.7969C6.24423 14.7969 7.67871 16.2365 7.67871 18.0049C7.67869 19.7733 6.24421 21.2129 4.47949 21.2129C2.71498 21.2126 1.28128 19.7731 1.28125 18.0049C1.28125 16.2366 2.71496 14.7971 4.47949 14.7969ZM5.70508 17.8281C5.56256 17.8281 5.42089 17.8837 5.31348 18.002C5.20641 18.12 5.11625 18.3204 5.11621 18.6377C5.11879 18.939 5.20615 19.1288 5.30859 19.2402C5.41157 19.3522 5.54646 19.4043 5.68164 19.4043C5.82066 19.4043 5.95935 19.3499 6.06543 19.2314C6.17162 19.1129 6.26175 18.9107 6.26172 18.5908L6.25 18.4004C6.22643 18.2252 6.17028 18.0946 6.09961 18.0059C6.01049 17.894 5.8824 17.8282 5.70508 17.8281ZM3.28711 16.5869C3.11996 16.587 2.98077 16.6579 2.87793 16.7871C2.77204 16.9203 2.69829 17.1256 2.69824 17.3916C2.70103 17.6948 2.78885 17.8858 2.8916 17.998C2.99481 18.1107 3.1299 18.1631 3.26465 18.1631L3.36914 18.1523C3.47274 18.1313 3.57127 18.0782 3.65137 17.9893C3.75817 17.8706 3.8486 17.6691 3.84863 17.3496C3.84863 17.076 3.78024 16.8839 3.68555 16.7656C3.59581 16.6536 3.46652 16.5869 3.28711 16.5869ZM28.0127 6.82617L27.6455 6.63086L25.918 5.71387L25.5029 5.49316L25.918 5.27246L27.6455 4.35547L28.0127 4.16016V6.82617Z" fill="url(#paint4_linear_4408_68)" stroke="white" stroke-width="0.5"/>
<mask id="path-7-outside-2_4408_68" maskUnits="userSpaceOnUse" x="0" y="0" width="33" height="13" fill="black">
<rect fill="white" width="33" height="13"/>
<path d="M32.0003 8.18142V2.823H21.951L21.9482 8.18136L32.0003 8.18142ZM25.4604 5.05239L27.6843 3.87177C28.011 3.69816 28.4156 3.9451 28.4156 4.31455V6.67579C28.4156 7.04499 28.011 7.29212 27.6843 7.11851L25.4604 5.93789C25.1132 5.75363 25.1126 5.23715 25.4604 5.05239ZM21.9479 8.84089L21.9469 10.8261H32.0003V8.84089H21.9479ZM23.4486 10.1565H22.7822C22.6008 10.1565 22.4538 10.0089 22.4538 9.82673C22.4538 9.64459 22.6008 9.49699 22.7822 9.49699H23.4486C23.6299 9.49699 23.7769 9.64459 23.7769 9.82673C23.7769 10.0089 23.6299 10.1565 23.4486 10.1565ZM29.3248 10.1565H26.5958C26.4919 10.3061 26.3195 10.4042 26.1241 10.4042C25.9287 10.4042 25.7563 10.3061 25.6524 10.1565H24.6092C24.4278 10.1565 24.2808 10.0089 24.2808 9.82673C24.2808 9.64459 24.4278 9.49699 24.6092 9.49699H25.6525C25.7053 9.42054 25.7758 9.35808 25.858 9.31493C25.9401 9.27179 26.0314 9.24926 26.1241 9.24926C26.2168 9.24926 26.3081 9.27179 26.3902 9.31493C26.4724 9.35808 26.5429 9.42054 26.5957 9.49699H29.3248C29.5062 9.49699 29.6532 9.64459 29.6532 9.82673C29.6532 10.0089 29.5062 10.1565 29.3248 10.1565ZM31.1801 10.1565H31.1748V10.1618C31.1748 10.205 31.1663 10.2479 31.1498 10.2879C31.1333 10.3279 31.1091 10.3643 31.0786 10.3949C31.0481 10.4255 31.0119 10.4498 30.9721 10.4663C30.9323 10.4829 30.8896 10.4914 30.8464 10.4914C30.8033 10.4914 30.7606 10.4829 30.7208 10.4663C30.6809 10.4498 30.6448 10.4255 30.6143 10.3949C30.5838 10.3643 30.5596 10.3279 30.5431 10.2879C30.5266 10.2479 30.5181 10.205 30.5181 10.1618V10.1565H30.5128C30.3314 10.1565 30.1844 10.0089 30.1844 9.82673C30.1844 9.64459 30.3314 9.49699 30.5128 9.49699H30.5181V9.49177C30.5181 9.44847 30.5266 9.4056 30.5431 9.36561C30.5596 9.32561 30.5838 9.28927 30.6143 9.25865C30.6448 9.22804 30.6809 9.20376 30.7208 9.18719C30.7606 9.17062 30.8033 9.16209 30.8464 9.16209C30.8896 9.16209 30.9323 9.17062 30.9721 9.18719C31.0119 9.20376 31.0481 9.22804 31.0786 9.25865C31.1091 9.28927 31.1333 9.32561 31.1498 9.36561C31.1663 9.4056 31.1748 9.44847 31.1748 9.49177V9.49699H31.1801C31.3614 9.49699 31.5084 9.64459 31.5084 9.82673C31.5084 10.0089 31.3614 10.1565 31.1801 10.1565ZM3.43818 11.9978C4.01875 12.2416 4.63237 12.3651 5.26465 12.3651H9.36457C9.66459 12.3651 9.90863 12.1202 9.90863 11.8191C9.90863 11.5152 9.6623 11.2681 9.35955 11.2681H8.43035C8.27144 11.2681 8.16474 11.1274 8.1829 10.975C8.19884 10.841 8.30269 10.7726 8.4288 10.7554H9.81364C10.1136 10.7554 10.3576 10.5105 10.3576 10.2094C10.3576 9.9056 10.1113 9.65841 9.80856 9.65841H8.70761C8.39284 9.65841 8.39308 9.14578 8.70476 9.14578H10.2627C10.5627 9.14578 10.8067 8.90083 10.8067 8.59973C10.8067 8.29596 10.5604 8.04883 10.2576 8.04883H8.80477C8.77158 8.04883 8.73871 8.04226 8.70805 8.02951C8.67738 8.01675 8.64952 7.99806 8.62605 7.97449C8.60258 7.95092 8.58397 7.92294 8.57127 7.89215C8.55858 7.86136 8.55205 7.82836 8.55205 7.79504C8.55205 7.65491 8.66521 7.53608 8.80477 7.53608H10.7117C11.0116 7.53608 11.2557 7.29119 11.2557 6.99015C11.2566 6.69005 11.0082 6.43918 10.7091 6.43918L6.58186 6.43091C6.25958 6.43091 6.01759 6.07864 6.13818 5.77442C6.28376 5.40286 6.46871 4.86129 6.52612 4.59804C6.7115 3.74684 6.43194 2.78565 5.77659 2C5.45698 3.2903 5.06315 4.34636 4.60416 5.14272C4.31071 5.65192 3.90913 6.11487 3.43811 6.48824L3.43818 11.9978ZM1 6.37669V12.1976H2.93058V6.37669H1ZM1.96529 11.267C1.90571 11.268 1.84653 11.2571 1.79121 11.2349C1.73588 11.2127 1.6855 11.1796 1.64302 11.1377C1.60054 11.0957 1.5668 11.0457 1.54377 10.9905C1.52074 10.9354 1.50888 10.8761 1.50888 10.8163C1.50888 10.7565 1.52074 10.6973 1.54377 10.6421C1.5668 10.5869 1.60054 10.5369 1.64302 10.4949C1.6855 10.453 1.73588 10.42 1.79121 10.3978C1.84653 10.3755 1.90571 10.3646 1.96529 10.3656C2.02486 10.3646 2.08404 10.3755 2.13937 10.3978C2.1947 10.42 2.24507 10.453 2.28755 10.4949C2.33004 10.5369 2.36377 10.5869 2.38681 10.6421C2.40984 10.6973 2.4217 10.7565 2.4217 10.8163C2.4217 10.8761 2.40984 10.9354 2.38681 10.9905C2.36377 11.0457 2.33004 11.0957 2.28755 11.1377C2.24507 11.1796 2.1947 11.2127 2.13937 11.2349C2.08404 11.2571 2.02486 11.268 1.96529 11.267Z"/>
</mask>
<path d="M32.0003 8.18142V2.823H21.951L21.9482 8.18136L32.0003 8.18142ZM25.4604 5.05239L27.6843 3.87177C28.011 3.69816 28.4156 3.9451 28.4156 4.31455V6.67579C28.4156 7.04499 28.011 7.29212 27.6843 7.11851L25.4604 5.93789C25.1132 5.75363 25.1126 5.23715 25.4604 5.05239ZM21.9479 8.84089L21.9469 10.8261H32.0003V8.84089H21.9479ZM23.4486 10.1565H22.7822C22.6008 10.1565 22.4538 10.0089 22.4538 9.82673C22.4538 9.64459 22.6008 9.49699 22.7822 9.49699H23.4486C23.6299 9.49699 23.7769 9.64459 23.7769 9.82673C23.7769 10.0089 23.6299 10.1565 23.4486 10.1565ZM29.3248 10.1565H26.5958C26.4919 10.3061 26.3195 10.4042 26.1241 10.4042C25.9287 10.4042 25.7563 10.3061 25.6524 10.1565H24.6092C24.4278 10.1565 24.2808 10.0089 24.2808 9.82673C24.2808 9.64459 24.4278 9.49699 24.6092 9.49699H25.6525C25.7053 9.42054 25.7758 9.35808 25.858 9.31493C25.9401 9.27179 26.0314 9.24926 26.1241 9.24926C26.2168 9.24926 26.3081 9.27179 26.3902 9.31493C26.4724 9.35808 26.5429 9.42054 26.5957 9.49699H29.3248C29.5062 9.49699 29.6532 9.64459 29.6532 9.82673C29.6532 10.0089 29.5062 10.1565 29.3248 10.1565ZM31.1801 10.1565H31.1748V10.1618C31.1748 10.205 31.1663 10.2479 31.1498 10.2879C31.1333 10.3279 31.1091 10.3643 31.0786 10.3949C31.0481 10.4255 31.0119 10.4498 30.9721 10.4663C30.9323 10.4829 30.8896 10.4914 30.8464 10.4914C30.8033 10.4914 30.7606 10.4829 30.7208 10.4663C30.6809 10.4498 30.6448 10.4255 30.6143 10.3949C30.5838 10.3643 30.5596 10.3279 30.5431 10.2879C30.5266 10.2479 30.5181 10.205 30.5181 10.1618V10.1565H30.5128C30.3314 10.1565 30.1844 10.0089 30.1844 9.82673C30.1844 9.64459 30.3314 9.49699 30.5128 9.49699H30.5181V9.49177C30.5181 9.44847 30.5266 9.4056 30.5431 9.36561C30.5596 9.32561 30.5838 9.28927 30.6143 9.25865C30.6448 9.22804 30.6809 9.20376 30.7208 9.18719C30.7606 9.17062 30.8033 9.16209 30.8464 9.16209C30.8896 9.16209 30.9323 9.17062 30.9721 9.18719C31.0119 9.20376 31.0481 9.22804 31.0786 9.25865C31.1091 9.28927 31.1333 9.32561 31.1498 9.36561C31.1663 9.4056 31.1748 9.44847 31.1748 9.49177V9.49699H31.1801C31.3614 9.49699 31.5084 9.64459 31.5084 9.82673C31.5084 10.0089 31.3614 10.1565 31.1801 10.1565ZM3.43818 11.9978C4.01875 12.2416 4.63237 12.3651 5.26465 12.3651H9.36457C9.66459 12.3651 9.90863 12.1202 9.90863 11.8191C9.90863 11.5152 9.6623 11.2681 9.35955 11.2681H8.43035C8.27144 11.2681 8.16474 11.1274 8.1829 10.975C8.19884 10.841 8.30269 10.7726 8.4288 10.7554H9.81364C10.1136 10.7554 10.3576 10.5105 10.3576 10.2094C10.3576 9.9056 10.1113 9.65841 9.80856 9.65841H8.70761C8.39284 9.65841 8.39308 9.14578 8.70476 9.14578H10.2627C10.5627 9.14578 10.8067 8.90083 10.8067 8.59973C10.8067 8.29596 10.5604 8.04883 10.2576 8.04883H8.80477C8.77158 8.04883 8.73871 8.04226 8.70805 8.02951C8.67738 8.01675 8.64952 7.99806 8.62605 7.97449C8.60258 7.95092 8.58397 7.92294 8.57127 7.89215C8.55858 7.86136 8.55205 7.82836 8.55205 7.79504C8.55205 7.65491 8.66521 7.53608 8.80477 7.53608H10.7117C11.0116 7.53608 11.2557 7.29119 11.2557 6.99015C11.2566 6.69005 11.0082 6.43918 10.7091 6.43918L6.58186 6.43091C6.25958 6.43091 6.01759 6.07864 6.13818 5.77442C6.28376 5.40286 6.46871 4.86129 6.52612 4.59804C6.7115 3.74684 6.43194 2.78565 5.77659 2C5.45698 3.2903 5.06315 4.34636 4.60416 5.14272C4.31071 5.65192 3.90913 6.11487 3.43811 6.48824L3.43818 11.9978ZM1 6.37669V12.1976H2.93058V6.37669H1ZM1.96529 11.267C1.90571 11.268 1.84653 11.2571 1.79121 11.2349C1.73588 11.2127 1.6855 11.1796 1.64302 11.1377C1.60054 11.0957 1.5668 11.0457 1.54377 10.9905C1.52074 10.9354 1.50888 10.8761 1.50888 10.8163C1.50888 10.7565 1.52074 10.6973 1.54377 10.6421C1.5668 10.5869 1.60054 10.5369 1.64302 10.4949C1.6855 10.453 1.73588 10.42 1.79121 10.3978C1.84653 10.3755 1.90571 10.3646 1.96529 10.3656C2.02486 10.3646 2.08404 10.3755 2.13937 10.3978C2.1947 10.42 2.24507 10.453 2.28755 10.4949C2.33004 10.5369 2.36377 10.5869 2.38681 10.6421C2.40984 10.6973 2.4217 10.7565 2.4217 10.8163C2.4217 10.8761 2.40984 10.9354 2.38681 10.9905C2.36377 11.0457 2.33004 11.0957 2.28755 11.1377C2.24507 11.1796 2.1947 11.2127 2.13937 11.2349C2.08404 11.2571 2.02486 11.268 1.96529 11.267Z" fill="url(#paint5_linear_4408_68)"/>
<path d="M32.0003 8.18142V2.823H21.951L21.9482 8.18136L32.0003 8.18142ZM25.4604 5.05239L27.6843 3.87177C28.011 3.69816 28.4156 3.9451 28.4156 4.31455V6.67579C28.4156 7.04499 28.011 7.29212 27.6843 7.11851L25.4604 5.93789C25.1132 5.75363 25.1126 5.23715 25.4604 5.05239ZM21.9479 8.84089L21.9469 10.8261H32.0003V8.84089H21.9479ZM23.4486 10.1565H22.7822C22.6008 10.1565 22.4538 10.0089 22.4538 9.82673C22.4538 9.64459 22.6008 9.49699 22.7822 9.49699H23.4486C23.6299 9.49699 23.7769 9.64459 23.7769 9.82673C23.7769 10.0089 23.6299 10.1565 23.4486 10.1565ZM29.3248 10.1565H26.5958C26.4919 10.3061 26.3195 10.4042 26.1241 10.4042C25.9287 10.4042 25.7563 10.3061 25.6524 10.1565H24.6092C24.4278 10.1565 24.2808 10.0089 24.2808 9.82673C24.2808 9.64459 24.4278 9.49699 24.6092 9.49699H25.6525C25.7053 9.42054 25.7758 9.35808 25.858 9.31493C25.9401 9.27179 26.0314 9.24926 26.1241 9.24926C26.2168 9.24926 26.3081 9.27179 26.3902 9.31493C26.4724 9.35808 26.5429 9.42054 26.5957 9.49699H29.3248C29.5062 9.49699 29.6532 9.64459 29.6532 9.82673C29.6532 10.0089 29.5062 10.1565 29.3248 10.1565ZM31.1801 10.1565H31.1748V10.1618C31.1748 10.205 31.1663 10.2479 31.1498 10.2879C31.1333 10.3279 31.1091 10.3643 31.0786 10.3949C31.0481 10.4255 31.0119 10.4498 30.9721 10.4663C30.9323 10.4829 30.8896 10.4914 30.8464 10.4914C30.8033 10.4914 30.7606 10.4829 30.7208 10.4663C30.6809 10.4498 30.6448 10.4255 30.6143 10.3949C30.5838 10.3643 30.5596 10.3279 30.5431 10.2879C30.5266 10.2479 30.5181 10.205 30.5181 10.1618V10.1565H30.5128C30.3314 10.1565 30.1844 10.0089 30.1844 9.82673C30.1844 9.64459 30.3314 9.49699 30.5128 9.49699H30.5181V9.49177C30.5181 9.44847 30.5266 9.4056 30.5431 9.36561C30.5596 9.32561 30.5838 9.28927 30.6143 9.25865C30.6448 9.22804 30.6809 9.20376 30.7208 9.18719C30.7606 9.17062 30.8033 9.16209 30.8464 9.16209C30.8896 9.16209 30.9323 9.17062 30.9721 9.18719C31.0119 9.20376 31.0481 9.22804 31.0786 9.25865C31.1091 9.28927 31.1333 9.32561 31.1498 9.36561C31.1663 9.4056 31.1748 9.44847 31.1748 9.49177V9.49699H31.1801C31.3614 9.49699 31.5084 9.64459 31.5084 9.82673C31.5084 10.0089 31.3614 10.1565 31.1801 10.1565ZM3.43818 11.9978C4.01875 12.2416 4.63237 12.3651 5.26465 12.3651H9.36457C9.66459 12.3651 9.90863 12.1202 9.90863 11.8191C9.90863 11.5152 9.6623 11.2681 9.35955 11.2681H8.43035C8.27144 11.2681 8.16474 11.1274 8.1829 10.975C8.19884 10.841 8.30269 10.7726 8.4288 10.7554H9.81364C10.1136 10.7554 10.3576 10.5105 10.3576 10.2094C10.3576 9.9056 10.1113 9.65841 9.80856 9.65841H8.70761C8.39284 9.65841 8.39308 9.14578 8.70476 9.14578H10.2627C10.5627 9.14578 10.8067 8.90083 10.8067 8.59973C10.8067 8.29596 10.5604 8.04883 10.2576 8.04883H8.80477C8.77158 8.04883 8.73871 8.04226 8.70805 8.02951C8.67738 8.01675 8.64952 7.99806 8.62605 7.97449C8.60258 7.95092 8.58397 7.92294 8.57127 7.89215C8.55858 7.86136 8.55205 7.82836 8.55205 7.79504C8.55205 7.65491 8.66521 7.53608 8.80477 7.53608H10.7117C11.0116 7.53608 11.2557 7.29119 11.2557 6.99015C11.2566 6.69005 11.0082 6.43918 10.7091 6.43918L6.58186 6.43091C6.25958 6.43091 6.01759 6.07864 6.13818 5.77442C6.28376 5.40286 6.46871 4.86129 6.52612 4.59804C6.7115 3.74684 6.43194 2.78565 5.77659 2C5.45698 3.2903 5.06315 4.34636 4.60416 5.14272C4.31071 5.65192 3.90913 6.11487 3.43811 6.48824L3.43818 11.9978ZM1 6.37669V12.1976H2.93058V6.37669H1ZM1.96529 11.267C1.90571 11.268 1.84653 11.2571 1.79121 11.2349C1.73588 11.2127 1.6855 11.1796 1.64302 11.1377C1.60054 11.0957 1.5668 11.0457 1.54377 10.9905C1.52074 10.9354 1.50888 10.8761 1.50888 10.8163C1.50888 10.7565 1.52074 10.6973 1.54377 10.6421C1.5668 10.5869 1.60054 10.5369 1.64302 10.4949C1.6855 10.453 1.73588 10.42 1.79121 10.3978C1.84653 10.3755 1.90571 10.3646 1.96529 10.3656C2.02486 10.3646 2.08404 10.3755 2.13937 10.3978C2.1947 10.42 2.24507 10.453 2.28755 10.4949C2.33004 10.5369 2.36377 10.5869 2.38681 10.6421C2.40984 10.6973 2.4217 10.7565 2.4217 10.8163C2.4217 10.8761 2.40984 10.9354 2.38681 10.9905C2.36377 11.0457 2.33004 11.0957 2.28755 11.1377C2.24507 11.1796 2.1947 11.2127 2.13937 11.2349C2.08404 11.2571 2.02486 11.268 1.96529 11.267Z" stroke="white" mask="url(#path-7-outside-2_4408_68)"/>
<defs>
<linearGradient id="paint0_linear_4408_68" x1="28.0386" y1="25.0893" x2="2.81552" y2="25.5334" gradientUnits="userSpaceOnUse">
<stop stop-color="#FF7223"/>
<stop offset="1" stop-color="#FF6827"/>
</linearGradient>
<linearGradient id="paint1_linear_4408_68" x1="31.2871" y1="15.1043" x2="8.58777" y2="15.3226" gradientUnits="userSpaceOnUse">
<stop stop-color="#FF7223"/>
<stop offset="1" stop-color="#FF6827"/>
</linearGradient>
<linearGradient id="paint2_linear_4408_68" x1="24.7797" y1="22.9991" x2="4.33547" y2="23.3268" gradientUnits="userSpaceOnUse">
<stop stop-color="#FF7223"/>
<stop offset="1" stop-color="#FF6827"/>
</linearGradient>
<linearGradient id="paint3_linear_4408_68" x1="26.6343" y1="22.9991" x2="2.48035" y2="23.4565" gradientUnits="userSpaceOnUse">
<stop stop-color="#FF7223"/>
<stop offset="1" stop-color="#FF6827"/>
</linearGradient>
<linearGradient id="paint4_linear_4408_68" x1="28.0448" y1="12.6893" x2="0.947435" y2="13.1793" gradientUnits="userSpaceOnUse">
<stop stop-color="#FF7223"/>
<stop offset="1" stop-color="#FF6827"/>
</linearGradient>
<linearGradient id="paint5_linear_4408_68" x1="32.3333" y1="7.13173" x2="0.33611" y2="8.21283" gradientUnits="userSpaceOnUse">
<stop stop-color="#FF7223"/>
<stop offset="1" stop-color="#FF6827"/>
</linearGradient>
</defs>
</svg>
